solid OpenSCAD_Model
  facet normal 0 -1 0
    outer loop
      vertex -28 28 0
      vertex 6.21725e-15 28 1
      vertex -28 28 1
    endloop
  endfacet
  facet normal 0 -1 -0
    outer loop
      vertex 6.21725e-15 28 1
      vertex -28 28 0
      vertex 6.21725e-15 28 0
    endloop
  endfacet
  facet normal -0 0 1
    outer loop
      vertex -28 56 1
      vertex 6.21725e-15 28 1
      vertex 1.24345e-14 56 1
    endloop
  endfacet
  facet normal 0 0 1
    outer loop
      vertex 6.21725e-15 28 1
      vertex -28 56 1
      vertex -28 28 1
    endloop
  endfacet
  facet normal 0 1 -0
    outer loop
      vertex 1.24345e-14 56 0
      vertex -28 56 1
      vertex 1.24345e-14 56 1
    endloop
  endfacet
  facet normal 0 1 0
    outer loop
      vertex -28 56 1
      vertex 1.24345e-14 56 0
      vertex -28 56 0
    endloop
  endfacet
  facet normal -1 0 0
    outer loop
      vertex -28 28 0
      vertex -28 56 1
      vertex -28 56 0
    endloop
  endfacet
  facet normal -1 -0 0
    outer loop
      vertex -28 56 1
      vertex -28 28 0
      vertex -28 28 1
    endloop
  endfacet
  facet normal 0 0 -1
    outer loop
      vertex -28 28 0
      vertex 1.24345e-14 56 0
      vertex 6.21725e-15 28 0
    endloop
  endfacet
  facet normal -0 0 -1
    outer loop
      vertex 1.24345e-14 56 0
      vertex -28 28 0
      vertex -28 56 0
    endloop
  endfacet
  facet normal 1 -2.22045e-16 0
    outer loop
      vertex 6.21725e-15 28 1
      vertex 1.24345e-14 56 0
      vertex 1.24345e-14 56 1
    endloop
  endfacet
  facet normal 1 -2.22045e-16 0
    outer loop
      vertex 1.24345e-14 56 0
      vertex 6.21725e-15 28 1
      vertex 6.21725e-15 28 0
    endloop
  endfacet
  facet normal 0 -1 0
    outer loop
      vertex -28 84 0
      vertex 1.86517e-14 84 1
      vertex -28 84 1
    endloop
  endfacet
  facet normal 0 -1 -0
    outer loop
      vertex 1.86517e-14 84 1
      vertex -28 84 0
      vertex 1.86517e-14 84 0
    endloop
  endfacet
  facet normal -0 0 1
    outer loop
      vertex -28 112 1
      vertex 1.86517e-14 84 1
      vertex 2.4869e-14 112 1
    endloop
  endfacet
  facet normal 0 0 1
    outer loop
      vertex 1.86517e-14 84 1
      vertex -28 112 1
      vertex -28 84 1
    endloop
  endfacet
  facet normal 0 1 -0
    outer loop
      vertex 2.4869e-14 112 0
      vertex -28 112 1
      vertex 2.4869e-14 112 1
    endloop
  endfacet
  facet normal 0 1 0
    outer loop
      vertex -28 112 1
      vertex 2.4869e-14 112 0
      vertex -28 112 0
    endloop
  endfacet
  facet normal -1 0 0
    outer loop
      vertex -28 84 0
      vertex -28 112 1
      vertex -28 112 0
    endloop
  endfacet
  facet normal -1 -0 0
    outer loop
      vertex -28 112 1
      vertex -28 84 0
      vertex -28 84 1
    endloop
  endfacet
  facet normal 0 0 -1
    outer loop
      vertex -28 84 0
      vertex 2.4869e-14 112 0
      vertex 1.86517e-14 84 0
    endloop
  endfacet
  facet normal -0 0 -1
    outer loop
      vertex 2.4869e-14 112 0
      vertex -28 84 0
      vertex -28 112 0
    endloop
  endfacet
  facet normal 1 -2.22046e-16 0
    outer loop
      vertex 1.86517e-14 84 1
      vertex 2.4869e-14 112 0
      vertex 2.4869e-14 112 1
    endloop
  endfacet
  facet normal 1 -2.22046e-16 0
    outer loop
      vertex 2.4869e-14 112 0
      vertex 1.86517e-14 84 1
      vertex 1.86517e-14 84 0
    endloop
  endfacet
  facet normal -2.22045e-16 -1 0
    outer loop
      vertex -56 1.24345e-14 0
      vertex -28 6.21725e-15 1
      vertex -56 1.24345e-14 1
    endloop
  endfacet
  facet normal -2.22045e-16 -1 -0
    outer loop
      vertex -28 6.21725e-15 1
      vertex -56 1.24345e-14 0
      vertex -28 6.21725e-15 0
    endloop
  endfacet
  facet normal -0 0 1
    outer loop
      vertex -56 28 1
      vertex -28 6.21725e-15 1
      vertex -28 28 1
    endloop
  endfacet
  facet normal 0 0 1
    outer loop
      vertex -28 6.21725e-15 1
      vertex -56 28 1
      vertex -56 1.24345e-14 1
    endloop
  endfacet
  facet normal 0 1 -0
    outer loop
      vertex -28 28 0
      vertex -56 28 1
      vertex -28 28 1
    endloop
  endfacet
  facet normal 0 1 0
    outer loop
      vertex -56 28 1
      vertex -28 28 0
      vertex -56 28 0
    endloop
  endfacet
  facet normal -1 0 0
    outer loop
      vertex -56 1.24345e-14 0
      vertex -56 28 1
      vertex -56 28 0
    endloop
  endfacet
  facet normal -1 -0 0
    outer loop
      vertex -56 28 1
      vertex -56 1.24345e-14 0
      vertex -56 1.24345e-14 1
    endloop
  endfacet
  facet normal 0 0 -1
    outer loop
      vertex -56 1.24345e-14 0
      vertex -28 28 0
      vertex -28 6.21725e-15 0
    endloop
  endfacet
  facet normal -0 0 -1
    outer loop
      vertex -28 28 0
      vertex -56 1.24345e-14 0
      vertex -56 28 0
    endloop
  endfacet
  facet normal 1 -0 0
    outer loop
      vertex -28 6.21725e-15 1
      vertex -28 28 0
      vertex -28 28 1
    endloop
  endfacet
  facet normal 1 0 0
    outer loop
      vertex -28 28 0
      vertex -28 6.21725e-15 1
      vertex -28 6.21725e-15 0
    endloop
  endfacet
  facet normal 0 -1 0
    outer loop
      vertex -56 56 0
      vertex -28 56 1
      vertex -56 56 1
    endloop
  endfacet
  facet normal 0 -1 -0
    outer loop
      vertex -28 56 1
      vertex -56 56 0
      vertex -28 56 0
    endloop
  endfacet
  facet normal -0 0 1
    outer loop
      vertex -56 84 1
      vertex -28 56 1
      vertex -28 84 1
    endloop
  endfacet
  facet normal 0 0 1
    outer loop
      vertex -28 56 1
      vertex -56 84 1
      vertex -56 56 1
    endloop
  endfacet
  facet normal 0 1 -0
    outer loop
      vertex -28 84 0
      vertex -56 84 1
      vertex -28 84 1
    endloop
  endfacet
  facet normal 0 1 0
    outer loop
      vertex -56 84 1
      vertex -28 84 0
      vertex -56 84 0
    endloop
  endfacet
  facet normal -1 0 0
    outer loop
      vertex -56 56 0
      vertex -56 84 1
      vertex -56 84 0
    endloop
  endfacet
  facet normal -1 -0 0
    outer loop
      vertex -56 84 1
      vertex -56 56 0
      vertex -56 56 1
    endloop
  endfacet
  facet normal 0 0 -1
    outer loop
      vertex -56 56 0
      vertex -28 84 0
      vertex -28 56 0
    endloop
  endfacet
  facet normal -0 0 -1
    outer loop
      vertex -28 84 0
      vertex -56 56 0
      vertex -56 84 0
    endloop
  endfacet
  facet normal 1 -0 0
    outer loop
      vertex -28 56 1
      vertex -28 84 0
      vertex -28 84 1
    endloop
  endfacet
  facet normal 1 0 0
    outer loop
      vertex -28 84 0
      vertex -28 56 1
      vertex -28 56 0
    endloop
  endfacet
  facet normal 0 -1 0
    outer loop
      vertex -84 28 0
      vertex -56 28 1
      vertex -84 28 1
    endloop
  endfacet
  facet normal 0 -1 -0
    outer loop
      vertex -56 28 1
      vertex -84 28 0
      vertex -56 28 0
    endloop
  endfacet
  facet normal -0 0 1
    outer loop
      vertex -84 56 1
      vertex -56 28 1
      vertex -56 56 1
    endloop
  endfacet
  facet normal 0 0 1
    outer loop
      vertex -56 28 1
      vertex -84 56 1
      vertex -84 28 1
    endloop
  endfacet
  facet normal 0 1 -0
    outer loop
      vertex -56 56 0
      vertex -84 56 1
      vertex -56 56 1
    endloop
  endfacet
  facet normal 0 1 0
    outer loop
      vertex -84 56 1
      vertex -56 56 0
      vertex -84 56 0
    endloop
  endfacet
  facet normal -1 0 0
    outer loop
      vertex -84 28 0
      vertex -84 56 1
      vertex -84 56 0
    endloop
  endfacet
  facet normal -1 -0 0
    outer loop
      vertex -84 56 1
      vertex -84 28 0
      vertex -84 28 1
    endloop
  endfacet
  facet normal 0 0 -1
    outer loop
      vertex -84 28 0
      vertex -56 56 0
      vertex -56 28 0
    endloop
  endfacet
  facet normal -0 0 -1
    outer loop
      vertex -56 56 0
      vertex -84 28 0
      vertex -84 56 0
    endloop
  endfacet
  facet normal 1 -0 0
    outer loop
      vertex -56 28 1
      vertex -56 56 0
      vertex -56 56 1
    endloop
  endfacet
  facet normal 1 0 0
    outer loop
      vertex -56 56 0
      vertex -56 28 1
      vertex -56 28 0
    endloop
  endfacet
  facet normal 0 -1 0
    outer loop
      vertex -84 84 0
      vertex -56 84 1
      vertex -84 84 1
    endloop
  endfacet
  facet normal 0 -1 -0
    outer loop
      vertex -56 84 1
      vertex -84 84 0
      vertex -56 84 0
    endloop
  endfacet
  facet normal -0 0 1
    outer loop
      vertex -84 112 1
      vertex -56 84 1
      vertex -56 112 1
    endloop
  endfacet
  facet normal 0 0 1
    outer loop
      vertex -56 84 1
      vertex -84 112 1
      vertex -84 84 1
    endloop
  endfacet
  facet normal 0 1 -0
    outer loop
      vertex -56 112 0
      vertex -84 112 1
      vertex -56 112 1
    endloop
  endfacet
  facet normal 0 1 0
    outer loop
      vertex -84 112 1
      vertex -56 112 0
      vertex -84 112 0
    endloop
  endfacet
  facet normal -1 0 0
    outer loop
      vertex -84 84 0
      vertex -84 112 1
      vertex -84 112 0
    endloop
  endfacet
  facet normal -1 -0 0
    outer loop
      vertex -84 112 1
      vertex -84 84 0
      vertex -84 84 1
    endloop
  endfacet
  facet normal 0 0 -1
    outer loop
      vertex -84 84 0
      vertex -56 112 0
      vertex -56 84 0
    endloop
  endfacet
  facet normal -0 0 -1
    outer loop
      vertex -56 112 0
      vertex -84 84 0
      vertex -84 112 0
    endloop
  endfacet
  facet normal 1 -0 0
    outer loop
      vertex -56 84 1
      vertex -56 112 0
      vertex -56 112 1
    endloop
  endfacet
  facet normal 1 0 0
    outer loop
      vertex -56 112 0
      vertex -56 84 1
      vertex -56 84 0
    endloop
  endfacet
  facet normal 0 -1 0
    outer loop
      vertex 43 28 0
      vertex 71 28 1
      vertex 43 28 1
    endloop
  endfacet
  facet normal 0 -1 -0
    outer loop
      vertex 71 28 1
      vertex 43 28 0
      vertex 71 28 0
    endloop
  endfacet
  facet normal -0 0 1
    outer loop
      vertex 43 56 1
      vertex 71 28 1
      vertex 71 56 1
    endloop
  endfacet
  facet normal 0 0 1
    outer loop
      vertex 71 28 1
      vertex 43 56 1
      vertex 43 28 1
    endloop
  endfacet
  facet normal 0 1 -0
    outer loop
      vertex 71 56 0
      vertex 43 56 1
      vertex 71 56 1
    endloop
  endfacet
  facet normal 0 1 0
    outer loop
      vertex 43 56 1
      vertex 71 56 0
      vertex 43 56 0
    endloop
  endfacet
  facet normal -1 0 0
    outer loop
      vertex 43 28 0
      vertex 43 56 1
      vertex 43 56 0
    endloop
  endfacet
  facet normal -1 -0 0
    outer loop
      vertex 43 56 1
      vertex 43 28 0
      vertex 43 28 1
    endloop
  endfacet
  facet normal 0 0 -1
    outer loop
      vertex 43 28 0
      vertex 71 56 0
      vertex 71 28 0
    endloop
  endfacet
  facet normal -0 0 -1
    outer loop
      vertex 71 56 0
      vertex 43 28 0
      vertex 43 56 0
    endloop
  endfacet
  facet normal 1 -0 0
    outer loop
      vertex 71 28 1
      vertex 71 56 0
      vertex 71 56 1
    endloop
  endfacet
  facet normal 1 0 0
    outer loop
      vertex 71 56 0
      vertex 71 28 1
      vertex 71 28 0
    endloop
  endfacet
  facet normal 0 -1 0
    outer loop
      vertex 43 84 0
      vertex 71 84 1
      vertex 43 84 1
    endloop
  endfacet
  facet normal 0 -1 -0
    outer loop
      vertex 71 84 1
      vertex 43 84 0
      vertex 71 84 0
    endloop
  endfacet
  facet normal -0 0 1
    outer loop
      vertex 43 112 1
      vertex 71 84 1
      vertex 71 112 1
    endloop
  endfacet
  facet normal 0 0 1
    outer loop
      vertex 71 84 1
      vertex 43 112 1
      vertex 43 84 1
    endloop
  endfacet
  facet normal 0 1 -0
    outer loop
      vertex 71 112 0
      vertex 43 112 1
      vertex 71 112 1
    endloop
  endfacet
  facet normal 0 1 0
    outer loop
      vertex 43 112 1
      vertex 71 112 0
      vertex 43 112 0
    endloop
  endfacet
  facet normal -1 0 0
    outer loop
      vertex 43 84 0
      vertex 43 112 1
      vertex 43 112 0
    endloop
  endfacet
  facet normal -1 -0 0
    outer loop
      vertex 43 112 1
      vertex 43 84 0
      vertex 43 84 1
    endloop
  endfacet
  facet normal 0 0 -1
    outer loop
      vertex 43 84 0
      vertex 71 112 0
      vertex 71 84 0
    endloop
  endfacet
  facet normal -0 0 -1
    outer loop
      vertex 71 112 0
      vertex 43 84 0
      vertex 43 112 0
    endloop
  endfacet
  facet normal 1 -0 0
    outer loop
      vertex 71 84 1
      vertex 71 112 0
      vertex 71 112 1
    endloop
  endfacet
  facet normal 1 0 0
    outer loop
      vertex 71 112 0
      vertex 71 84 1
      vertex 71 84 0
    endloop
  endfacet
  facet normal -2.22045e-16 -1 0
    outer loop
      vertex 5 -1.11022e-15 0
      vertex 33 -7.32747e-15 1
      vertex 5 -1.11022e-15 1
    endloop
  endfacet
  facet normal -2.22045e-16 -1 -0
    outer loop
      vertex 33 -7.32747e-15 1
      vertex 5 -1.11022e-15 0
      vertex 33 -7.32747e-15 0
    endloop
  endfacet
  facet normal -0 0 1
    outer loop
      vertex 5 28 1
      vertex 33 -7.32747e-15 1
      vertex 33 28 1
    endloop
  endfacet
  facet normal 0 0 1
    outer loop
      vertex 33 -7.32747e-15 1
      vertex 5 28 1
      vertex 5 -1.11022e-15 1
    endloop
  endfacet
  facet normal 0 1 -0
    outer loop
      vertex 33 28 0
      vertex 5 28 1
      vertex 33 28 1
    endloop
  endfacet
  facet normal 0 1 0
    outer loop
      vertex 5 28 1
      vertex 33 28 0
      vertex 5 28 0
    endloop
  endfacet
  facet normal -1 0 0
    outer loop
      vertex 5 -1.11022e-15 0
      vertex 5 28 1
      vertex 5 28 0
    endloop
  endfacet
  facet normal -1 -0 0
    outer loop
      vertex 5 28 1
      vertex 5 -1.11022e-15 0
      vertex 5 -1.11022e-15 1
    endloop
  endfacet
  facet normal 0 0 -1
    outer loop
      vertex 5 -1.11022e-15 0
      vertex 33 28 0
      vertex 33 -7.32747e-15 0
    endloop
  endfacet
  facet normal -0 0 -1
    outer loop
      vertex 33 28 0
      vertex 5 -1.11022e-15 0
      vertex 5 28 0
    endloop
  endfacet
  facet normal 1 -0 0
    outer loop
      vertex 33 -7.32747e-15 1
      vertex 33 28 0
      vertex 33 28 1
    endloop
  endfacet
  facet normal 1 0 0
    outer loop
      vertex 33 28 0
      vertex 33 -7.32747e-15 1
      vertex 33 -7.32747e-15 0
    endloop
  endfacet
  facet normal 0 -1 0
    outer loop
      vertex 5 56 0
      vertex 33 56 1
      vertex 5 56 1
    endloop
  endfacet
  facet normal 0 -1 -0
    outer loop
      vertex 33 56 1
      vertex 5 56 0
      vertex 33 56 0
    endloop
  endfacet
  facet normal -0 0 1
    outer loop
      vertex 5 84 1
      vertex 33 56 1
      vertex 33 84 1
    endloop
  endfacet
  facet normal 0 0 1
    outer loop
      vertex 33 56 1
      vertex 5 84 1
      vertex 5 56 1
    endloop
  endfacet
  facet normal 0 1 -0
    outer loop
      vertex 33 84 0
      vertex 5 84 1
      vertex 33 84 1
    endloop
  endfacet
  facet normal 0 1 0
    outer loop
      vertex 5 84 1
      vertex 33 84 0
      vertex 5 84 0
    endloop
  endfacet
  facet normal -1 0 0
    outer loop
      vertex 5 56 0
      vertex 5 84 1
      vertex 5 84 0
    endloop
  endfacet
  facet normal -1 -0 0
    outer loop
      vertex 5 84 1
      vertex 5 56 0
      vertex 5 56 1
    endloop
  endfacet
  facet normal 0 0 -1
    outer loop
      vertex 5 56 0
      vertex 33 84 0
      vertex 33 56 0
    endloop
  endfacet
  facet normal -0 0 -1
    outer loop
      vertex 33 84 0
      vertex 5 56 0
      vertex 5 84 0
    endloop
  endfacet
  facet normal 1 -0 0
    outer loop
      vertex 33 56 1
      vertex 33 84 0
      vertex 33 84 1
    endloop
  endfacet
  facet normal 1 0 0
    outer loop
      vertex 33 84 0
      vertex 33 56 1
      vertex 33 56 0
    endloop
  endfacet
  facet normal 0 1 -0
    outer loop
      vertex 104 84 0
      vertex 76 84 1
      vertex 104 84 1
    endloop
  endfacet
  facet normal 0 1 0
    outer loop
      vertex 76 84 1
      vertex 104 84 0
      vertex 76 84 0
    endloop
  endfacet
  facet normal -0 0 1
    outer loop
      vertex 76 84 1
      vertex 104 56 1
      vertex 104 84 1
    endloop
  endfacet
  facet normal 0 0 1
    outer loop
      vertex 104 56 1
      vertex 76 84 1
      vertex 76 56 1
    endloop
  endfacet
  facet normal 0 -1 0
    outer loop
      vertex 76 56 0
      vertex 104 56 1
      vertex 76 56 1
    endloop
  endfacet
  facet normal 0 -1 -0
    outer loop
      vertex 104 56 1
      vertex 76 56 0
      vertex 104 56 0
    endloop
  endfacet
  facet normal 1 -0 0
    outer loop
      vertex 104 56 1
      vertex 104 84 0
      vertex 104 84 1
    endloop
  endfacet
  facet normal 1 0 0
    outer loop
      vertex 104 84 0
      vertex 104 56 1
      vertex 104 56 0
    endloop
  endfacet
  facet normal 0 0 -1
    outer loop
      vertex 76 56 0
      vertex 104 84 0
      vertex 104 56 0
    endloop
  endfacet
  facet normal -0 0 -1
    outer loop
      vertex 104 84 0
      vertex 76 56 0
      vertex 76 84 0
    endloop
  endfacet
  facet normal -1 0 0
    outer loop
      vertex 76 56 0
      vertex 76 84 1
      vertex 76 84 0
    endloop
  endfacet
  facet normal -1 -0 0
    outer loop
      vertex 76 84 1
      vertex 76 56 0
      vertex 76 56 1
    endloop
  endfacet
  facet normal 0 1 -0
    outer loop
      vertex 104 28 0
      vertex 76 28 1
      vertex 104 28 1
    endloop
  endfacet
  facet normal 0 1 0
    outer loop
      vertex 76 28 1
      vertex 104 28 0
      vertex 76 28 0
    endloop
  endfacet
  facet normal -0 0 1
    outer loop
      vertex 76 28 1
      vertex 104 -2.65217e-14 1
      vertex 104 28 1
    endloop
  endfacet
  facet normal 0 0 1
    outer loop
      vertex 104 -2.65217e-14 1
      vertex 76 28 1
      vertex 76 -1.68754e-14 1
    endloop
  endfacet
  facet normal -3.44511e-16 -1 0
    outer loop
      vertex 76 -1.68754e-14 0
      vertex 104 -2.65217e-14 1
      vertex 76 -1.68754e-14 1
    endloop
  endfacet
  facet normal -3.44511e-16 -1 -0
    outer loop
      vertex 104 -2.65217e-14 1
      vertex 76 -1.68754e-14 0
      vertex 104 -2.65217e-14 0
    endloop
  endfacet
  facet normal 1 -0 0
    outer loop
      vertex 104 -2.65217e-14 1
      vertex 104 28 0
      vertex 104 28 1
    endloop
  endfacet
  facet normal 1 0 0
    outer loop
      vertex 104 28 0
      vertex 104 -2.65217e-14 1
      vertex 104 -2.65217e-14 0
    endloop
  endfacet
  facet normal 0 0 -1
    outer loop
      vertex 76 -1.68754e-14 0
      vertex 104 28 0
      vertex 104 -2.65217e-14 0
    endloop
  endfacet
  facet normal -0 0 -1
    outer loop
      vertex 104 28 0
      vertex 76 -1.68754e-14 0
      vertex 76 28 0
    endloop
  endfacet
  facet normal -1 0 0
    outer loop
      vertex 76 -1.68754e-14 0
      vertex 76 28 1
      vertex 76 28 0
    endloop
  endfacet
  facet normal -1 -0 0
    outer loop
      vertex 76 28 1
      vertex 76 -1.68754e-14 0
      vertex 76 -1.68754e-14 1
    endloop
  endfacet
  facet normal 0 1 -0
    outer loop
      vertex 132 112 0
      vertex 104 112 1
      vertex 132 112 1
    endloop
  endfacet
  facet normal 0 1 0
    outer loop
      vertex 104 112 1
      vertex 132 112 0
      vertex 104 112 0
    endloop
  endfacet
  facet normal -0 0 1
    outer loop
      vertex 104 112 1
      vertex 132 84 1
      vertex 132 112 1
    endloop
  endfacet
  facet normal 0 0 1
    outer loop
      vertex 132 84 1
      vertex 104 112 1
      vertex 104 84 1
    endloop
  endfacet
  facet normal 0 -1 0
    outer loop
      vertex 104 84 0
      vertex 132 84 1
      vertex 104 84 1
    endloop
  endfacet
  facet normal 0 -1 -0
    outer loop
      vertex 132 84 1
      vertex 104 84 0
      vertex 132 84 0
    endloop
  endfacet
  facet normal 1 -0 0
    outer loop
      vertex 132 84 1
      vertex 132 112 0
      vertex 132 112 1
    endloop
  endfacet
  facet normal 1 0 0
    outer loop
      vertex 132 112 0
      vertex 132 84 1
      vertex 132 84 0
    endloop
  endfacet
  facet normal 0 0 -1
    outer loop
      vertex 104 84 0
      vertex 132 112 0
      vertex 132 84 0
    endloop
  endfacet
  facet normal -0 0 -1
    outer loop
      vertex 132 112 0
      vertex 104 84 0
      vertex 104 112 0
    endloop
  endfacet
  facet normal -1 0 0
    outer loop
      vertex 104 84 0
      vertex 104 112 1
      vertex 104 112 0
    endloop
  endfacet
  facet normal -1 -0 0
    outer loop
      vertex 104 112 1
      vertex 104 84 0
      vertex 104 84 1
    endloop
  endfacet
  facet normal 0 1 -0
    outer loop
      vertex 132 56 0
      vertex 104 56 1
      vertex 132 56 1
    endloop
  endfacet
  facet normal 0 1 0
    outer loop
      vertex 104 56 1
      vertex 132 56 0
      vertex 104 56 0
    endloop
  endfacet
  facet normal -0 0 1
    outer loop
      vertex 104 56 1
      vertex 132 28 1
      vertex 132 56 1
    endloop
  endfacet
  facet normal 0 0 1
    outer loop
      vertex 132 28 1
      vertex 104 56 1
      vertex 104 28 1
    endloop
  endfacet
  facet normal 0 -1 0
    outer loop
      vertex 104 28 0
      vertex 132 28 1
      vertex 104 28 1
    endloop
  endfacet
  facet normal 0 -1 -0
    outer loop
      vertex 132 28 1
      vertex 104 28 0
      vertex 132 28 0
    endloop
  endfacet
  facet normal 1 -0 0
    outer loop
      vertex 132 28 1
      vertex 132 56 0
      vertex 132 56 1
    endloop
  endfacet
  facet normal 1 0 0
    outer loop
      vertex 132 56 0
      vertex 132 28 1
      vertex 132 28 0
    endloop
  endfacet
  facet normal 0 0 -1
    outer loop
      vertex 104 28 0
      vertex 132 56 0
      vertex 132 28 0
    endloop
  endfacet
  facet normal -0 0 -1
    outer loop
      vertex 132 56 0
      vertex 104 28 0
      vertex 104 56 0
    endloop
  endfacet
  facet normal -1 0 0
    outer loop
      vertex 104 28 0
      vertex 104 56 1
      vertex 104 56 0
    endloop
  endfacet
  facet normal -1 -0 0
    outer loop
      vertex 104 56 1
      vertex 104 28 0
      vertex 104 28 1
    endloop
  endfacet
  facet normal 0 1 -0
    outer loop
      vertex 160 84 0
      vertex 132 84 1
      vertex 160 84 1
    endloop
  endfacet
  facet normal 0 1 0
    outer loop
      vertex 132 84 1
      vertex 160 84 0
      vertex 132 84 0
    endloop
  endfacet
  facet normal -0 0 1
    outer loop
      vertex 132 84 1
      vertex 160 56 1
      vertex 160 84 1
    endloop
  endfacet
  facet normal 0 0 1
    outer loop
      vertex 160 56 1
      vertex 132 84 1
      vertex 132 56 1
    endloop
  endfacet
  facet normal 0 -1 0
    outer loop
      vertex 132 56 0
      vertex 160 56 1
      vertex 132 56 1
    endloop
  endfacet
  facet normal 0 -1 -0
    outer loop
      vertex 160 56 1
      vertex 132 56 0
      vertex 160 56 0
    endloop
  endfacet
  facet normal 1 -0 0
    outer loop
      vertex 160 56 1
      vertex 160 84 0
      vertex 160 84 1
    endloop
  endfacet
  facet normal 1 0 0
    outer loop
      vertex 160 84 0
      vertex 160 56 1
      vertex 160 56 0
    endloop
  endfacet
  facet normal 0 0 -1
    outer loop
      vertex 132 56 0
      vertex 160 84 0
      vertex 160 56 0
    endloop
  endfacet
  facet normal -0 0 -1
    outer loop
      vertex 160 84 0
      vertex 132 56 0
      vertex 132 84 0
    endloop
  endfacet
  facet normal -1 0 0
    outer loop
      vertex 132 56 0
      vertex 132 84 1
      vertex 132 84 0
    endloop
  endfacet
  facet normal -1 -0 0
    outer loop
      vertex 132 84 1
      vertex 132 56 0
      vertex 132 56 1
    endloop
  endfacet
  facet normal 0 1 -0
    outer loop
      vertex 160 28 0
      vertex 132 28 1
      vertex 160 28 1
    endloop
  endfacet
  facet normal 0 1 0
    outer loop
      vertex 132 28 1
      vertex 160 28 0
      vertex 132 28 0
    endloop
  endfacet
  facet normal -0 0 1
    outer loop
      vertex 132 28 1
      vertex 160 -4.58142e-14 1
      vertex 160 28 1
    endloop
  endfacet
  facet normal 0 0 1
    outer loop
      vertex 160 -4.58142e-14 1
      vertex 132 28 1
      vertex 132 -3.61679e-14 1
    endloop
  endfacet
  facet normal -3.44511e-16 -1 0
    outer loop
      vertex 132 -3.61679e-14 0
      vertex 160 -4.58142e-14 1
      vertex 132 -3.61679e-14 1
    endloop
  endfacet
  facet normal -3.44511e-16 -1 -0
    outer loop
      vertex 160 -4.58142e-14 1
      vertex 132 -3.61679e-14 0
      vertex 160 -4.58142e-14 0
    endloop
  endfacet
  facet normal 1 -0 0
    outer loop
      vertex 160 -4.58142e-14 1
      vertex 160 28 0
      vertex 160 28 1
    endloop
  endfacet
  facet normal 1 0 0
    outer loop
      vertex 160 28 0
      vertex 160 -4.58142e-14 1
      vertex 160 -4.58142e-14 0
    endloop
  endfacet
  facet normal 0 0 -1
    outer loop
      vertex 132 -3.61679e-14 0
      vertex 160 28 0
      vertex 160 -4.58142e-14 0
    endloop
  endfacet
  facet normal -0 0 -1
    outer loop
      vertex 160 28 0
      vertex 132 -3.61679e-14 0
      vertex 132 28 0
    endloop
  endfacet
  facet normal -1 0 0
    outer loop
      vertex 132 -3.61679e-14 0
      vertex 132 28 1
      vertex 132 28 0
    endloop
  endfacet
  facet normal -1 -0 0
    outer loop
      vertex 132 28 1
      vertex 132 -3.61679e-14 0
      vertex 132 -3.61679e-14 1
    endloop
  endfacet
endsolid OpenSCAD_Model
