solid OpenSCAD_Model
  facet normal -1 0 0
    outer loop
      vertex 0 0 0
      vertex 0 28 4
      vertex 0 28 0
    endloop
  endfacet
  facet normal -1 -0 0
    outer loop
      vertex 0 28 4
      vertex 0 0 0
      vertex 0 0 4
    endloop
  endfacet
  facet normal -0 0 1
    outer loop
      vertex 0 28 4
      vertex 28 0 4
      vertex 28 28 4
    endloop
  endfacet
  facet normal 0 0 1
    outer loop
      vertex 28 0 4
      vertex 0 28 4
      vertex 0 0 4
    endloop
  endfacet
  facet normal 1 -0 0
    outer loop
      vertex 28 0 4
      vertex 28 28 0
      vertex 28 28 4
    endloop
  endfacet
  facet normal 1 0 0
    outer loop
      vertex 28 28 0
      vertex 28 0 4
      vertex 28 0 0
    endloop
  endfacet
  facet normal 0 1 -0
    outer loop
      vertex 28 28 0
      vertex 0 28 4
      vertex 28 28 4
    endloop
  endfacet
  facet normal 0 1 0
    outer loop
      vertex 0 28 4
      vertex 28 28 0
      vertex 0 28 0
    endloop
  endfacet
  facet normal 0 0 -1
    outer loop
      vertex 0 0 0
      vertex 28 28 0
      vertex 28 0 0
    endloop
  endfacet
  facet normal -0 0 -1
    outer loop
      vertex 28 28 0
      vertex 0 0 0
      vertex 0 28 0
    endloop
  endfacet
  facet normal 0 -1 0
    outer loop
      vertex 0 0 0
      vertex 28 0 4
      vertex 0 0 4
    endloop
  endfacet
  facet normal 0 -1 -0
    outer loop
      vertex 28 0 4
      vertex 0 0 0
      vertex 28 0 0
    endloop
  endfacet
  facet normal -1 0 0
    outer loop
      vertex 56 0 0
      vertex 56 28 4
      vertex 56 28 0
    endloop
  endfacet
  facet normal -1 -0 0
    outer loop
      vertex 56 28 4
      vertex 56 0 0
      vertex 56 0 4
    endloop
  endfacet
  facet normal -0 0 1
    outer loop
      vertex 56 28 4
      vertex 84 0 4
      vertex 84 28 4
    endloop
  endfacet
  facet normal 0 0 1
    outer loop
      vertex 84 0 4
      vertex 56 28 4
      vertex 56 0 4
    endloop
  endfacet
  facet normal 1 -0 0
    outer loop
      vertex 84 0 4
      vertex 84 28 0
      vertex 84 28 4
    endloop
  endfacet
  facet normal 1 0 0
    outer loop
      vertex 84 28 0
      vertex 84 0 4
      vertex 84 0 0
    endloop
  endfacet
  facet normal 0 0 -1
    outer loop
      vertex 56 0 0
      vertex 84 28 0
      vertex 84 0 0
    endloop
  endfacet
  facet normal -0 0 -1
    outer loop
      vertex 84 28 0
      vertex 56 0 0
      vertex 56 28 0
    endloop
  endfacet
  facet normal 0 -1 0
    outer loop
      vertex 56 0 0
      vertex 84 0 4
      vertex 56 0 4
    endloop
  endfacet
  facet normal 0 -1 -0
    outer loop
      vertex 84 0 4
      vertex 56 0 0
      vertex 84 0 0
    endloop
  endfacet
  facet normal 0 1 -0
    outer loop
      vertex 84 28 0
      vertex 56 28 4
      vertex 84 28 4
    endloop
  endfacet
  facet normal 0 1 0
    outer loop
      vertex 56 28 4
      vertex 84 28 0
      vertex 56 28 0
    endloop
  endfacet
  facet normal -1 0 0
    outer loop
      vertex 28 28 0
      vertex 28 56 4
      vertex 28 56 0
    endloop
  endfacet
  facet normal -1 -0 0
    outer loop
      vertex 28 56 4
      vertex 28 28 0
      vertex 28 28 4
    endloop
  endfacet
  facet normal -0 0 1
    outer loop
      vertex 28 56 4
      vertex 56 28 4
      vertex 56 56 4
    endloop
  endfacet
  facet normal 0 0 1
    outer loop
      vertex 56 28 4
      vertex 28 56 4
      vertex 28 28 4
    endloop
  endfacet
  facet normal 1 -0 0
    outer loop
      vertex 56 28 4
      vertex 56 56 0
      vertex 56 56 4
    endloop
  endfacet
  facet normal 1 0 0
    outer loop
      vertex 56 56 0
      vertex 56 28 4
      vertex 56 28 0
    endloop
  endfacet
  facet normal 0 0 -1
    outer loop
      vertex 28 28 0
      vertex 56 56 0
      vertex 56 28 0
    endloop
  endfacet
  facet normal -0 0 -1
    outer loop
      vertex 56 56 0
      vertex 28 28 0
      vertex 28 56 0
    endloop
  endfacet
  facet normal 0 -1 0
    outer loop
      vertex 28 28 0
      vertex 56 28 4
      vertex 28 28 4
    endloop
  endfacet
  facet normal 0 -1 -0
    outer loop
      vertex 56 28 4
      vertex 28 28 0
      vertex 56 28 0
    endloop
  endfacet
  facet normal 0 1 -0
    outer loop
      vertex 56 56 0
      vertex 28 56 4
      vertex 56 56 4
    endloop
  endfacet
  facet normal 0 1 0
    outer loop
      vertex 28 56 4
      vertex 56 56 0
      vertex 28 56 0
    endloop
  endfacet
  facet normal -1 0 0
    outer loop
      vertex 84 28 0
      vertex 84 56 4
      vertex 84 56 0
    endloop
  endfacet
  facet normal -1 -0 0
    outer loop
      vertex 84 56 4
      vertex 84 28 0
      vertex 84 28 4
    endloop
  endfacet
  facet normal -0 0 1
    outer loop
      vertex 84 56 4
      vertex 112 28 4
      vertex 112 56 4
    endloop
  endfacet
  facet normal 0 0 1
    outer loop
      vertex 112 28 4
      vertex 84 56 4
      vertex 84 28 4
    endloop
  endfacet
  facet normal 1 -0 0
    outer loop
      vertex 112 28 4
      vertex 112 56 0
      vertex 112 56 4
    endloop
  endfacet
  facet normal 1 0 0
    outer loop
      vertex 112 56 0
      vertex 112 28 4
      vertex 112 28 0
    endloop
  endfacet
  facet normal 0 1 -0
    outer loop
      vertex 112 56 0
      vertex 84 56 4
      vertex 112 56 4
    endloop
  endfacet
  facet normal 0 1 0
    outer loop
      vertex 84 56 4
      vertex 112 56 0
      vertex 84 56 0
    endloop
  endfacet
  facet normal 0 0 -1
    outer loop
      vertex 84 28 0
      vertex 112 56 0
      vertex 112 28 0
    endloop
  endfacet
  facet normal -0 0 -1
    outer loop
      vertex 112 56 0
      vertex 84 28 0
      vertex 84 56 0
    endloop
  endfacet
  facet normal 0 -1 0
    outer loop
      vertex 84 28 0
      vertex 112 28 4
      vertex 84 28 4
    endloop
  endfacet
  facet normal 0 -1 -0
    outer loop
      vertex 112 28 4
      vertex 84 28 0
      vertex 112 28 0
    endloop
  endfacet
  facet normal -1 0 0
    outer loop
      vertex 0 56 0
      vertex 0 84 4
      vertex 0 84 0
    endloop
  endfacet
  facet normal -1 -0 0
    outer loop
      vertex 0 84 4
      vertex 0 56 0
      vertex 0 56 4
    endloop
  endfacet
  facet normal -0 0 1
    outer loop
      vertex 0 84 4
      vertex 28 56 4
      vertex 28 84 4
    endloop
  endfacet
  facet normal 0 0 1
    outer loop
      vertex 28 56 4
      vertex 0 84 4
      vertex 0 56 4
    endloop
  endfacet
  facet normal 1 -0 0
    outer loop
      vertex 28 56 4
      vertex 28 84 0
      vertex 28 84 4
    endloop
  endfacet
  facet normal 1 0 0
    outer loop
      vertex 28 84 0
      vertex 28 56 4
      vertex 28 56 0
    endloop
  endfacet
  facet normal 0 0 -1
    outer loop
      vertex 0 56 0
      vertex 28 84 0
      vertex 28 56 0
    endloop
  endfacet
  facet normal -0 0 -1
    outer loop
      vertex 28 84 0
      vertex 0 56 0
      vertex 0 84 0
    endloop
  endfacet
  facet normal 0 -1 0
    outer loop
      vertex 0 56 0
      vertex 28 56 4
      vertex 0 56 4
    endloop
  endfacet
  facet normal 0 -1 -0
    outer loop
      vertex 28 56 4
      vertex 0 56 0
      vertex 28 56 0
    endloop
  endfacet
  facet normal 0 1 -0
    outer loop
      vertex 28 84 0
      vertex 0 84 4
      vertex 28 84 4
    endloop
  endfacet
  facet normal 0 1 0
    outer loop
      vertex 0 84 4
      vertex 28 84 0
      vertex 0 84 0
    endloop
  endfacet
  facet normal -1 0 0
    outer loop
      vertex 56 56 0
      vertex 56 84 4
      vertex 56 84 0
    endloop
  endfacet
  facet normal -1 -0 0
    outer loop
      vertex 56 84 4
      vertex 56 56 0
      vertex 56 56 4
    endloop
  endfacet
  facet normal -0 0 1
    outer loop
      vertex 56 84 4
      vertex 84 56 4
      vertex 84 84 4
    endloop
  endfacet
  facet normal 0 0 1
    outer loop
      vertex 84 56 4
      vertex 56 84 4
      vertex 56 56 4
    endloop
  endfacet
  facet normal 1 -0 0
    outer loop
      vertex 84 56 4
      vertex 84 84 0
      vertex 84 84 4
    endloop
  endfacet
  facet normal 1 0 0
    outer loop
      vertex 84 84 0
      vertex 84 56 4
      vertex 84 56 0
    endloop
  endfacet
  facet normal 0 1 -0
    outer loop
      vertex 84 84 0
      vertex 56 84 4
      vertex 84 84 4
    endloop
  endfacet
  facet normal 0 1 0
    outer loop
      vertex 56 84 4
      vertex 84 84 0
      vertex 56 84 0
    endloop
  endfacet
  facet normal 0 0 -1
    outer loop
      vertex 56 56 0
      vertex 84 84 0
      vertex 84 56 0
    endloop
  endfacet
  facet normal -0 0 -1
    outer loop
      vertex 84 84 0
      vertex 56 56 0
      vertex 56 84 0
    endloop
  endfacet
  facet normal 0 -1 0
    outer loop
      vertex 56 56 0
      vertex 84 56 4
      vertex 56 56 4
    endloop
  endfacet
  facet normal 0 -1 -0
    outer loop
      vertex 84 56 4
      vertex 56 56 0
      vertex 84 56 0
    endloop
  endfacet
  facet normal -1 0 0
    outer loop
      vertex 0 -71 0
      vertex 0 -43 4
      vertex 0 -43 0
    endloop
  endfacet
  facet normal -1 -0 0
    outer loop
      vertex 0 -43 4
      vertex 0 -71 0
      vertex 0 -71 4
    endloop
  endfacet
  facet normal -0 0 1
    outer loop
      vertex 0 -43 4
      vertex 28 -71 4
      vertex 28 -43 4
    endloop
  endfacet
  facet normal 0 0 1
    outer loop
      vertex 28 -71 4
      vertex 0 -43 4
      vertex 0 -71 4
    endloop
  endfacet
  facet normal 1 -0 0
    outer loop
      vertex 28 -71 4
      vertex 28 -43 0
      vertex 28 -43 4
    endloop
  endfacet
  facet normal 1 0 0
    outer loop
      vertex 28 -43 0
      vertex 28 -71 4
      vertex 28 -71 0
    endloop
  endfacet
  facet normal 0 0 -1
    outer loop
      vertex 0 -71 0
      vertex 28 -43 0
      vertex 28 -71 0
    endloop
  endfacet
  facet normal -0 0 -1
    outer loop
      vertex 28 -43 0
      vertex 0 -71 0
      vertex 0 -43 0
    endloop
  endfacet
  facet normal 0 -1 0
    outer loop
      vertex 0 -71 0
      vertex 28 -71 4
      vertex 0 -71 4
    endloop
  endfacet
  facet normal 0 -1 -0
    outer loop
      vertex 28 -71 4
      vertex 0 -71 0
      vertex 28 -71 0
    endloop
  endfacet
  facet normal 0 1 -0
    outer loop
      vertex 28 -43 0
      vertex 0 -43 4
      vertex 28 -43 4
    endloop
  endfacet
  facet normal 0 1 0
    outer loop
      vertex 0 -43 4
      vertex 28 -43 0
      vertex 0 -43 0
    endloop
  endfacet
  facet normal -1 0 0
    outer loop
      vertex 56 -71 0
      vertex 56 -43 4
      vertex 56 -43 0
    endloop
  endfacet
  facet normal -1 -0 0
    outer loop
      vertex 56 -43 4
      vertex 56 -71 0
      vertex 56 -71 4
    endloop
  endfacet
  facet normal -0 0 1
    outer loop
      vertex 56 -43 4
      vertex 84 -71 4
      vertex 84 -43 4
    endloop
  endfacet
  facet normal 0 0 1
    outer loop
      vertex 84 -71 4
      vertex 56 -43 4
      vertex 56 -71 4
    endloop
  endfacet
  facet normal 1 -0 0
    outer loop
      vertex 84 -71 4
      vertex 84 -43 0
      vertex 84 -43 4
    endloop
  endfacet
  facet normal 1 0 0
    outer loop
      vertex 84 -43 0
      vertex 84 -71 4
      vertex 84 -71 0
    endloop
  endfacet
  facet normal 0 1 -0
    outer loop
      vertex 84 -43 0
      vertex 56 -43 4
      vertex 84 -43 4
    endloop
  endfacet
  facet normal 0 1 0
    outer loop
      vertex 56 -43 4
      vertex 84 -43 0
      vertex 56 -43 0
    endloop
  endfacet
  facet normal 0 0 -1
    outer loop
      vertex 56 -71 0
      vertex 84 -43 0
      vertex 84 -71 0
    endloop
  endfacet
  facet normal -0 0 -1
    outer loop
      vertex 84 -43 0
      vertex 56 -71 0
      vertex 56 -43 0
    endloop
  endfacet
  facet normal 0 -1 0
    outer loop
      vertex 56 -71 0
      vertex 84 -71 4
      vertex 56 -71 4
    endloop
  endfacet
  facet normal 0 -1 -0
    outer loop
      vertex 84 -71 4
      vertex 56 -71 0
      vertex 84 -71 0
    endloop
  endfacet
  facet normal -1 0 0
    outer loop
      vertex 28 -33 0
      vertex 28 -5 4
      vertex 28 -5 0
    endloop
  endfacet
  facet normal -1 -0 0
    outer loop
      vertex 28 -5 4
      vertex 28 -33 0
      vertex 28 -33 4
    endloop
  endfacet
  facet normal -0 0 1
    outer loop
      vertex 28 -5 4
      vertex 56 -33 4
      vertex 56 -5 4
    endloop
  endfacet
  facet normal 0 0 1
    outer loop
      vertex 56 -33 4
      vertex 28 -5 4
      vertex 28 -33 4
    endloop
  endfacet
  facet normal 1 -0 0
    outer loop
      vertex 56 -33 4
      vertex 56 -5 0
      vertex 56 -5 4
    endloop
  endfacet
  facet normal 1 0 0
    outer loop
      vertex 56 -5 0
      vertex 56 -33 4
      vertex 56 -33 0
    endloop
  endfacet
  facet normal 0 0 -1
    outer loop
      vertex 28 -33 0
      vertex 56 -5 0
      vertex 56 -33 0
    endloop
  endfacet
  facet normal -0 0 -1
    outer loop
      vertex 56 -5 0
      vertex 28 -33 0
      vertex 28 -5 0
    endloop
  endfacet
  facet normal 0 -1 0
    outer loop
      vertex 28 -33 0
      vertex 56 -33 4
      vertex 28 -33 4
    endloop
  endfacet
  facet normal 0 -1 -0
    outer loop
      vertex 56 -33 4
      vertex 28 -33 0
      vertex 56 -33 0
    endloop
  endfacet
  facet normal 0 1 -0
    outer loop
      vertex 56 -5 0
      vertex 28 -5 4
      vertex 56 -5 4
    endloop
  endfacet
  facet normal 0 1 0
    outer loop
      vertex 28 -5 4
      vertex 56 -5 0
      vertex 28 -5 0
    endloop
  endfacet
  facet normal -1 0 0
    outer loop
      vertex 84 -33 0
      vertex 84 -5 4
      vertex 84 -5 0
    endloop
  endfacet
  facet normal -1 -0 0
    outer loop
      vertex 84 -5 4
      vertex 84 -33 0
      vertex 84 -33 4
    endloop
  endfacet
  facet normal -0 0 1
    outer loop
      vertex 84 -5 4
      vertex 112 -33 4
      vertex 112 -5 4
    endloop
  endfacet
  facet normal 0 0 1
    outer loop
      vertex 112 -33 4
      vertex 84 -5 4
      vertex 84 -33 4
    endloop
  endfacet
  facet normal 1 -0 0
    outer loop
      vertex 112 -33 4
      vertex 112 -5 0
      vertex 112 -5 4
    endloop
  endfacet
  facet normal 1 0 0
    outer loop
      vertex 112 -5 0
      vertex 112 -33 4
      vertex 112 -33 0
    endloop
  endfacet
  facet normal 0 1 -0
    outer loop
      vertex 112 -5 0
      vertex 84 -5 4
      vertex 112 -5 4
    endloop
  endfacet
  facet normal 0 1 0
    outer loop
      vertex 84 -5 4
      vertex 112 -5 0
      vertex 84 -5 0
    endloop
  endfacet
  facet normal 0 0 -1
    outer loop
      vertex 84 -33 0
      vertex 112 -5 0
      vertex 112 -33 0
    endloop
  endfacet
  facet normal -0 0 -1
    outer loop
      vertex 112 -5 0
      vertex 84 -33 0
      vertex 84 -5 0
    endloop
  endfacet
  facet normal 0 -1 0
    outer loop
      vertex 84 -33 0
      vertex 112 -33 4
      vertex 84 -33 4
    endloop
  endfacet
  facet normal 0 -1 -0
    outer loop
      vertex 112 -33 4
      vertex 84 -33 0
      vertex 112 -33 0
    endloop
  endfacet
  facet normal 1 -0 0
    outer loop
      vertex 112 -104 4
      vertex 112 -76 0
      vertex 112 -76 4
    endloop
  endfacet
  facet normal 1 0 0
    outer loop
      vertex 112 -76 0
      vertex 112 -104 4
      vertex 112 -104 0
    endloop
  endfacet
  facet normal -0 0 1
    outer loop
      vertex 84 -76 4
      vertex 112 -104 4
      vertex 112 -76 4
    endloop
  endfacet
  facet normal 0 0 1
    outer loop
      vertex 112 -104 4
      vertex 84 -76 4
      vertex 84 -104 4
    endloop
  endfacet
  facet normal -1 0 0
    outer loop
      vertex 84 -104 0
      vertex 84 -76 4
      vertex 84 -76 0
    endloop
  endfacet
  facet normal -1 -0 0
    outer loop
      vertex 84 -76 4
      vertex 84 -104 0
      vertex 84 -104 4
    endloop
  endfacet
  facet normal 0 -1 0
    outer loop
      vertex 84 -104 0
      vertex 112 -104 4
      vertex 84 -104 4
    endloop
  endfacet
  facet normal 0 -1 -0
    outer loop
      vertex 112 -104 4
      vertex 84 -104 0
      vertex 112 -104 0
    endloop
  endfacet
  facet normal 0 0 -1
    outer loop
      vertex 84 -104 0
      vertex 112 -76 0
      vertex 112 -104 0
    endloop
  endfacet
  facet normal -0 0 -1
    outer loop
      vertex 112 -76 0
      vertex 84 -104 0
      vertex 84 -76 0
    endloop
  endfacet
  facet normal 0 1 -0
    outer loop
      vertex 112 -76 0
      vertex 84 -76 4
      vertex 112 -76 4
    endloop
  endfacet
  facet normal 0 1 0
    outer loop
      vertex 84 -76 4
      vertex 112 -76 0
      vertex 84 -76 0
    endloop
  endfacet
  facet normal 1 -0 0
    outer loop
      vertex 56 -104 4
      vertex 56 -76 0
      vertex 56 -76 4
    endloop
  endfacet
  facet normal 1 0 0
    outer loop
      vertex 56 -76 0
      vertex 56 -104 4
      vertex 56 -104 0
    endloop
  endfacet
  facet normal -0 0 1
    outer loop
      vertex 28 -76 4
      vertex 56 -104 4
      vertex 56 -76 4
    endloop
  endfacet
  facet normal 0 0 1
    outer loop
      vertex 56 -104 4
      vertex 28 -76 4
      vertex 28 -104 4
    endloop
  endfacet
  facet normal -1 0 0
    outer loop
      vertex 28 -104 0
      vertex 28 -76 4
      vertex 28 -76 0
    endloop
  endfacet
  facet normal -1 -0 0
    outer loop
      vertex 28 -76 4
      vertex 28 -104 0
      vertex 28 -104 4
    endloop
  endfacet
  facet normal 0 0 -1
    outer loop
      vertex 28 -104 0
      vertex 56 -76 0
      vertex 56 -104 0
    endloop
  endfacet
  facet normal -0 0 -1
    outer loop
      vertex 56 -76 0
      vertex 28 -104 0
      vertex 28 -76 0
    endloop
  endfacet
  facet normal 0 1 -0
    outer loop
      vertex 56 -76 0
      vertex 28 -76 4
      vertex 56 -76 4
    endloop
  endfacet
  facet normal 0 1 0
    outer loop
      vertex 28 -76 4
      vertex 56 -76 0
      vertex 28 -76 0
    endloop
  endfacet
  facet normal 0 -1 0
    outer loop
      vertex 28 -104 0
      vertex 56 -104 4
      vertex 28 -104 4
    endloop
  endfacet
  facet normal 0 -1 -0
    outer loop
      vertex 56 -104 4
      vertex 28 -104 0
      vertex 56 -104 0
    endloop
  endfacet
  facet normal 1 -0 0
    outer loop
      vertex 84 -132 4
      vertex 84 -104 0
      vertex 84 -104 4
    endloop
  endfacet
  facet normal 1 0 0
    outer loop
      vertex 84 -104 0
      vertex 84 -132 4
      vertex 84 -132 0
    endloop
  endfacet
  facet normal -0 0 1
    outer loop
      vertex 56 -104 4
      vertex 84 -132 4
      vertex 84 -104 4
    endloop
  endfacet
  facet normal 0 0 1
    outer loop
      vertex 84 -132 4
      vertex 56 -104 4
      vertex 56 -132 4
    endloop
  endfacet
  facet normal -1 0 0
    outer loop
      vertex 56 -132 0
      vertex 56 -104 4
      vertex 56 -104 0
    endloop
  endfacet
  facet normal -1 -0 0
    outer loop
      vertex 56 -104 4
      vertex 56 -132 0
      vertex 56 -132 4
    endloop
  endfacet
  facet normal 0 0 -1
    outer loop
      vertex 56 -132 0
      vertex 84 -104 0
      vertex 84 -132 0
    endloop
  endfacet
  facet normal -0 0 -1
    outer loop
      vertex 84 -104 0
      vertex 56 -132 0
      vertex 56 -104 0
    endloop
  endfacet
  facet normal 0 1 -0
    outer loop
      vertex 84 -104 0
      vertex 56 -104 4
      vertex 84 -104 4
    endloop
  endfacet
  facet normal 0 1 0
    outer loop
      vertex 56 -104 4
      vertex 84 -104 0
      vertex 56 -104 0
    endloop
  endfacet
  facet normal 0 -1 0
    outer loop
      vertex 56 -132 0
      vertex 84 -132 4
      vertex 56 -132 4
    endloop
  endfacet
  facet normal 0 -1 -0
    outer loop
      vertex 84 -132 4
      vertex 56 -132 0
      vertex 84 -132 0
    endloop
  endfacet
  facet normal 1 -0 0
    outer loop
      vertex 28 -132 4
      vertex 28 -104 0
      vertex 28 -104 4
    endloop
  endfacet
  facet normal 1 0 0
    outer loop
      vertex 28 -104 0
      vertex 28 -132 4
      vertex 28 -132 0
    endloop
  endfacet
  facet normal -0 0 1
    outer loop
      vertex -3.42901e-15 -104 4
      vertex 28 -132 4
      vertex 28 -104 4
    endloop
  endfacet
  facet normal 0 0 1
    outer loop
      vertex 28 -132 4
      vertex -3.42901e-15 -104 4
      vertex -6.85802e-15 -132 4
    endloop
  endfacet
  facet normal -1 1.22465e-16 0
    outer loop
      vertex -6.85802e-15 -132 0
      vertex -3.42901e-15 -104 4
      vertex -3.42901e-15 -104 0
    endloop
  endfacet
  facet normal -1 1.22465e-16 0
    outer loop
      vertex -3.42901e-15 -104 4
      vertex -6.85802e-15 -132 0
      vertex -6.85802e-15 -132 4
    endloop
  endfacet
  facet normal 0 -1 0
    outer loop
      vertex -6.85802e-15 -132 0
      vertex 28 -132 4
      vertex -6.85802e-15 -132 4
    endloop
  endfacet
  facet normal 0 -1 -0
    outer loop
      vertex 28 -132 4
      vertex -6.85802e-15 -132 0
      vertex 28 -132 0
    endloop
  endfacet
  facet normal 0 0 -1
    outer loop
      vertex 28 -132 0
      vertex -3.42901e-15 -104 0
      vertex 28 -104 0
    endloop
  endfacet
  facet normal 0 -0 -1
    outer loop
      vertex -3.42901e-15 -104 0
      vertex 28 -132 0
      vertex -6.85802e-15 -132 0
    endloop
  endfacet
  facet normal 0 1 -0
    outer loop
      vertex 28 -104 0
      vertex -3.42901e-15 -104 4
      vertex 28 -104 4
    endloop
  endfacet
  facet normal 0 1 0
    outer loop
      vertex -3.42901e-15 -104 4
      vertex 28 -104 0
      vertex -3.42901e-15 -104 0
    endloop
  endfacet
  facet normal 1 -0 0
    outer loop
      vertex 112 -160 4
      vertex 112 -132 0
      vertex 112 -132 4
    endloop
  endfacet
  facet normal 1 0 0
    outer loop
      vertex 112 -132 0
      vertex 112 -160 4
      vertex 112 -160 0
    endloop
  endfacet
  facet normal -0 0 1
    outer loop
      vertex 84 -132 4
      vertex 112 -160 4
      vertex 112 -132 4
    endloop
  endfacet
  facet normal 0 0 1
    outer loop
      vertex 112 -160 4
      vertex 84 -132 4
      vertex 84 -160 4
    endloop
  endfacet
  facet normal -1 0 0
    outer loop
      vertex 84 -160 0
      vertex 84 -132 4
      vertex 84 -132 0
    endloop
  endfacet
  facet normal -1 -0 0
    outer loop
      vertex 84 -132 4
      vertex 84 -160 0
      vertex 84 -160 4
    endloop
  endfacet
  facet normal 0 0 -1
    outer loop
      vertex 84 -160 0
      vertex 112 -132 0
      vertex 112 -160 0
    endloop
  endfacet
  facet normal -0 0 -1
    outer loop
      vertex 112 -132 0
      vertex 84 -160 0
      vertex 84 -132 0
    endloop
  endfacet
  facet normal 0 1 -0
    outer loop
      vertex 112 -132 0
      vertex 84 -132 4
      vertex 112 -132 4
    endloop
  endfacet
  facet normal 0 1 0
    outer loop
      vertex 84 -132 4
      vertex 112 -132 0
      vertex 84 -132 0
    endloop
  endfacet
  facet normal 0 -1 0
    outer loop
      vertex 84 -160 0
      vertex 112 -160 4
      vertex 84 -160 4
    endloop
  endfacet
  facet normal 0 -1 -0
    outer loop
      vertex 112 -160 4
      vertex 84 -160 0
      vertex 112 -160 0
    endloop
  endfacet
  facet normal 1 -0 0
    outer loop
      vertex 56 -160 4
      vertex 56 -132 0
      vertex 56 -132 4
    endloop
  endfacet
  facet normal 1 0 0
    outer loop
      vertex 56 -132 0
      vertex 56 -160 4
      vertex 56 -160 0
    endloop
  endfacet
  facet normal -0 0 1
    outer loop
      vertex 28 -132 4
      vertex 56 -160 4
      vertex 56 -132 4
    endloop
  endfacet
  facet normal 0 0 1
    outer loop
      vertex 56 -160 4
      vertex 28 -132 4
      vertex 28 -160 4
    endloop
  endfacet
  facet normal -1 0 0
    outer loop
      vertex 28 -160 0
      vertex 28 -132 4
      vertex 28 -132 0
    endloop
  endfacet
  facet normal -1 -0 0
    outer loop
      vertex 28 -132 4
      vertex 28 -160 0
      vertex 28 -160 4
    endloop
  endfacet
  facet normal 0 -1 0
    outer loop
      vertex 28 -160 0
      vertex 56 -160 4
      vertex 28 -160 4
    endloop
  endfacet
  facet normal 0 -1 -0
    outer loop
      vertex 56 -160 4
      vertex 28 -160 0
      vertex 56 -160 0
    endloop
  endfacet
  facet normal 0 0 -1
    outer loop
      vertex 28 -160 0
      vertex 56 -132 0
      vertex 56 -160 0
    endloop
  endfacet
  facet normal -0 0 -1
    outer loop
      vertex 56 -132 0
      vertex 28 -160 0
      vertex 28 -132 0
    endloop
  endfacet
  facet normal 0 1 -0
    outer loop
      vertex 56 -132 0
      vertex 28 -132 4
      vertex 56 -132 4
    endloop
  endfacet
  facet normal 0 1 0
    outer loop
      vertex 28 -132 4
      vertex 56 -132 0
      vertex 28 -132 0
    endloop
  endfacet
endsolid OpenSCAD_Model
