solid OpenSCAD_Model
  facet normal -1 0 0
    outer loop
      vertex -83.995 -10 -3
      vertex -83.995 -9.99921 0
      vertex -83.995 -9.99921 -3
    endloop
  endfacet
  facet normal -1 -0 0
    outer loop
      vertex -83.995 -9.99921 0
      vertex -83.995 -10 -3
      vertex -83.995 -10 0
    endloop
  endfacet
  facet normal 0 -1 0
    outer loop
      vertex -94 0.00499916 -3
      vertex -93.9992 0.00499916 0
      vertex -94 0.00499916 0
    endloop
  endfacet
  facet normal 0 -1 -0
    outer loop
      vertex -93.9992 0.00499916 0
      vertex -94 0.00499916 -3
      vertex -93.9992 0.00499916 -3
    endloop
  endfacet
  facet normal 0.156064 -0.987747 0
    outer loop
      vertex -84 -10 -3
      vertex -83.995 -9.99921 0
      vertex -84 -10 0
    endloop
  endfacet
  facet normal 0.156064 -0.987747 0
    outer loop
      vertex -83.995 -9.99921 0
      vertex -84 -10 -3
      vertex -83.995 -9.99921 -3
    endloop
  endfacet
  facet normal -0.987436 0.158016 0
    outer loop
      vertex -94 2.08722e-14 -3
      vertex -93.9992 0.00499916 0
      vertex -93.9992 0.00499916 -3
    endloop
  endfacet
  facet normal -0.987436 0.158016 0
    outer loop
      vertex -93.9992 0.00499916 0
      vertex -94 2.08722e-14 -3
      vertex -94 2.08722e-14 0
    endloop
  endfacet
  facet normal -0.98769 -0.156424 0
    outer loop
      vertex -93.5106 -3.09017 -3
      vertex -94 2.08722e-14 0
      vertex -94 2.08722e-14 -3
    endloop
  endfacet
  facet normal -0.98769 -0.156424 0
    outer loop
      vertex -94 2.08722e-14 0
      vertex -93.5106 -3.09017 -3
      vertex -93.5106 -3.09017 0
    endloop
  endfacet
  facet normal -0.156435 -0.987688 0
    outer loop
      vertex -87.0902 -9.51056 -3
      vertex -84 -10 0
      vertex -87.0902 -9.51056 0
    endloop
  endfacet
  facet normal -0.156435 -0.987688 -0
    outer loop
      vertex -84 -10 0
      vertex -87.0902 -9.51056 -3
      vertex -84 -10 -3
    endloop
  endfacet
  facet normal -0.70711 -0.707104 0
    outer loop
      vertex -92.0902 -5.87785 -3
      vertex -89.8779 -8.09017 0
      vertex -92.0902 -5.87785 0
    endloop
  endfacet
  facet normal -0.70711 -0.707104 -0
    outer loop
      vertex -89.8779 -8.09017 0
      vertex -92.0902 -5.87785 -3
      vertex -89.8779 -8.09017 -3
    endloop
  endfacet
  facet normal -0.891006 -0.453992 0
    outer loop
      vertex -92.0902 -5.87785 -3
      vertex -93.5106 -3.09017 0
      vertex -93.5106 -3.09017 -3
    endloop
  endfacet
  facet normal -0.891006 -0.453992 0
    outer loop
      vertex -93.5106 -3.09017 0
      vertex -92.0902 -5.87785 -3
      vertex -92.0902 -5.87785 0
    endloop
  endfacet
  facet normal -0.453987 -0.891008 0
    outer loop
      vertex -89.8779 -8.09017 -3
      vertex -87.0902 -9.51056 0
      vertex -89.8779 -8.09017 0
    endloop
  endfacet
  facet normal -0.453987 -0.891008 -0
    outer loop
      vertex -87.0902 -9.51056 0
      vertex -89.8779 -8.09017 -3
      vertex -87.0902 -9.51056 -3
    endloop
  endfacet
  facet normal 0 1 -0
    outer loop
      vertex -93.9992 111.995 -3
      vertex -94 111.995 0
      vertex -93.9992 111.995 0
    endloop
  endfacet
  facet normal 0 1 0
    outer loop
      vertex -94 111.995 0
      vertex -93.9992 111.995 -3
      vertex -94 111.995 -3
    endloop
  endfacet
  facet normal -1 0 0
    outer loop
      vertex -83.995 121.999 -3
      vertex -83.995 122 0
      vertex -83.995 122 -3
    endloop
  endfacet
  facet normal -1 -0 0
    outer loop
      vertex -83.995 122 0
      vertex -83.995 121.999 -3
      vertex -83.995 121.999 0
    endloop
  endfacet
  facet normal -0.987441 -0.157991 0
    outer loop
      vertex -93.9992 111.995 -3
      vertex -94 112 0
      vertex -94 112 -3
    endloop
  endfacet
  facet normal -0.987441 -0.157991 0
    outer loop
      vertex -94 112 0
      vertex -93.9992 111.995 -3
      vertex -93.9992 111.995 0
    endloop
  endfacet
  facet normal 0.196116 0.980581 -0
    outer loop
      vertex -83.995 121.999 -3
      vertex -84 122 0
      vertex -83.995 121.999 0
    endloop
  endfacet
  facet normal 0.196116 0.980581 0
    outer loop
      vertex -84 122 0
      vertex -83.995 121.999 -3
      vertex -84 122 -3
    endloop
  endfacet
  facet normal -0.156297 0.98771 0
    outer loop
      vertex -84 122 -3
      vertex -87.0902 121.511 0
      vertex -84 122 0
    endloop
  endfacet
  facet normal -0.156297 0.98771 0
    outer loop
      vertex -87.0902 121.511 0
      vertex -84 122 -3
      vertex -87.0902 121.511 -3
    endloop
  endfacet
  facet normal -0.987689 0.156432 0
    outer loop
      vertex -94 112 -3
      vertex -93.5106 115.09 0
      vertex -93.5106 115.09 -3
    endloop
  endfacet
  facet normal -0.987689 0.156432 0
    outer loop
      vertex -93.5106 115.09 0
      vertex -94 112 -3
      vertex -94 112 0
    endloop
  endfacet
  facet normal -0.707059 0.707155 0
    outer loop
      vertex -92.0902 117.878 -3
      vertex -89.8779 120.09 0
      vertex -89.8779 120.09 -3
    endloop
  endfacet
  facet normal -0.707059 0.707155 0
    outer loop
      vertex -89.8779 120.09 0
      vertex -92.0902 117.878 -3
      vertex -92.0902 117.878 0
    endloop
  endfacet
  facet normal -0.454142 0.890929 0
    outer loop
      vertex -87.0902 121.511 -3
      vertex -89.8779 120.09 0
      vertex -87.0902 121.511 0
    endloop
  endfacet
  facet normal -0.454142 0.890929 0
    outer loop
      vertex -89.8779 120.09 0
      vertex -87.0902 121.511 -3
      vertex -89.8779 120.09 -3
    endloop
  endfacet
  facet normal -0.891027 0.453951 0
    outer loop
      vertex -93.5106 115.09 -3
      vertex -92.0902 117.878 0
      vertex -92.0902 117.878 -3
    endloop
  endfacet
  facet normal -0.891027 0.453951 0
    outer loop
      vertex -92.0902 117.878 0
      vertex -93.5106 115.09 -3
      vertex -93.5106 115.09 0
    endloop
  endfacet
  facet normal 0 -1 0
    outer loop
      vertex -83.995 -10 -3
      vertex 149.995 -10 0
      vertex -83.995 -10 0
    endloop
  endfacet
  facet normal 0 -1 -0
    outer loop
      vertex 149.995 -10 0
      vertex -83.995 -10 -3
      vertex 149.995 -10 -3
    endloop
  endfacet
  facet normal 0 0 1
    outer loop
      vertex 149.995 121.999 0
      vertex 159.999 111.995 0
      vertex 159.511 115.09 0
    endloop
  endfacet
  facet normal 0 0 1
    outer loop
      vertex 159.511 115.09 0
      vertex 159.999 111.995 0
      vertex 160 112 0
    endloop
  endfacet
  facet normal -0 0 1
    outer loop
      vertex 159.999 111.995 0
      vertex 160 0.00499916 0
      vertex 160 111.995 0
    endloop
  endfacet
  facet normal 0 0 1
    outer loop
      vertex 160 0.00499916 0
      vertex 159.999 111.995 0
      vertex 159.999 0.00499916 0
    endloop
  endfacet
  facet normal 0 0 1
    outer loop
      vertex 159.999 0.00499916 0
      vertex 159.511 -3.09017 0
      vertex 160 -9.53674e-07 0
    endloop
  endfacet
  facet normal 0 0 1
    outer loop
      vertex 159.999 111.995 0
      vertex 149.995 121.999 0
      vertex 159.999 0.00499916 0
    endloop
  endfacet
  facet normal 0 0 1
    outer loop
      vertex 149.995 121.999 0
      vertex 159.511 115.09 0
      vertex 158.09 117.878 0
    endloop
  endfacet
  facet normal 0 0 1
    outer loop
      vertex 149.995 -9.99921 0
      vertex 159.999 0.00499916 0
      vertex 149.995 121.999 0
    endloop
  endfacet
  facet normal 0 0 1
    outer loop
      vertex 149.995 121.999 0
      vertex 158.09 117.878 0
      vertex 155.878 120.09 0
    endloop
  endfacet
  facet normal 0 0 1
    outer loop
      vertex 159.999 0.00499916 0
      vertex 149.995 -9.99921 0
      vertex 159.511 -3.09017 0
    endloop
  endfacet
  facet normal 0 0 1
    outer loop
      vertex 149.995 121.999 0
      vertex 155.878 120.09 0
      vertex 153.09 121.511 0
    endloop
  endfacet
  facet normal 0 0 1
    outer loop
      vertex 159.511 -3.09017 0
      vertex 149.995 -9.99921 0
      vertex 158.09 -5.87785 0
    endloop
  endfacet
  facet normal -0 0 1
    outer loop
      vertex 149.995 121.999 0
      vertex 153.09 121.511 0
      vertex 150 122 0
    endloop
  endfacet
  facet normal 0 0 1
    outer loop
      vertex 158.09 -5.87785 0
      vertex 149.995 -9.99921 0
      vertex 155.878 -8.09017 0
    endloop
  endfacet
  facet normal 0 0 1
    outer loop
      vertex 155.878 -8.09017 0
      vertex 149.995 -9.99921 0
      vertex 153.09 -9.51056 0
    endloop
  endfacet
  facet normal 0 0 1
    outer loop
      vertex 153.09 -9.51056 0
      vertex 149.995 -9.99921 0
      vertex 150 -10 0
    endloop
  endfacet
  facet normal -0 0 1
    outer loop
      vertex -94 111.995 0
      vertex -93.9992 0.00499916 0
      vertex -93.9992 111.995 0
    endloop
  endfacet
  facet normal 0 0 1
    outer loop
      vertex -93.9992 0.00499916 0
      vertex -94 111.995 0
      vertex -94 0.00499916 0
    endloop
  endfacet
  facet normal 0 0 1
    outer loop
      vertex -87.0902 121.511 0
      vertex -83.995 121.999 0
      vertex -84 122 0
    endloop
  endfacet
  facet normal 0 0 1
    outer loop
      vertex -83.995 121.999 0
      vertex -93.9992 111.995 0
      vertex -83.995 -9.99921 0
    endloop
  endfacet
  facet normal 0 0 1
    outer loop
      vertex -83.995 121.999 0
      vertex -87.0902 121.511 0
      vertex -93.9992 111.995 0
    endloop
  endfacet
  facet normal -0 0 1
    outer loop
      vertex -93.9992 0.00499916 0
      vertex -83.995 -9.99921 0
      vertex -93.9992 111.995 0
    endloop
  endfacet
  facet normal 0 0 1
    outer loop
      vertex -93.9992 111.995 0
      vertex -87.0902 121.511 0
      vertex -89.8779 120.09 0
    endloop
  endfacet
  facet normal -0 -0 1
    outer loop
      vertex -87.0902 -9.51056 0
      vertex -83.995 -9.99921 0
      vertex -93.9992 0.00499916 0
    endloop
  endfacet
  facet normal 0 0 1
    outer loop
      vertex -93.9992 111.995 0
      vertex -89.8779 120.09 0
      vertex -92.0902 117.878 0
    endloop
  endfacet
  facet normal 0 0 1
    outer loop
      vertex -83.995 -9.99921 0
      vertex -87.0902 -9.51056 0
      vertex -84 -10 0
    endloop
  endfacet
  facet normal 0 0 1
    outer loop
      vertex -93.9992 111.995 0
      vertex -92.0902 117.878 0
      vertex -93.5106 115.09 0
    endloop
  endfacet
  facet normal 0 0 1
    outer loop
      vertex -87.0902 -9.51056 0
      vertex -93.9992 0.00499916 0
      vertex -89.8779 -8.09017 0
    endloop
  endfacet
  facet normal 0 0 1
    outer loop
      vertex -89.8779 -8.09017 0
      vertex -93.9992 0.00499916 0
      vertex -92.0902 -5.87785 0
    endloop
  endfacet
  facet normal 0 -0 1
    outer loop
      vertex -93.9992 111.995 0
      vertex -93.5106 115.09 0
      vertex -94 112 0
    endloop
  endfacet
  facet normal 0 0 1
    outer loop
      vertex -83.995 121.999 0
      vertex 149.995 121.999 0
      vertex 149.995 122 0
    endloop
  endfacet
  facet normal 0 0 1
    outer loop
      vertex 149.995 121.999 0
      vertex -83.995 121.999 0
      vertex 149.995 -9.99921 0
    endloop
  endfacet
  facet normal 0 0 1
    outer loop
      vertex -83.995 121.999 0
      vertex 149.995 122 0
      vertex -83.995 122 0
    endloop
  endfacet
  facet normal 0 0 1
    outer loop
      vertex -83.995 -9.99921 0
      vertex 149.995 -9.99921 0
      vertex -83.995 121.999 0
    endloop
  endfacet
  facet normal 0 0 1
    outer loop
      vertex 149.995 -9.99921 0
      vertex -83.995 -9.99921 0
      vertex 149.995 -10 0
    endloop
  endfacet
  facet normal 0 0 1
    outer loop
      vertex 149.995 -10 0
      vertex -83.995 -9.99921 0
      vertex -83.995 -10 0
    endloop
  endfacet
  facet normal 0 0 1
    outer loop
      vertex -92.0902 -5.87785 0
      vertex -93.9992 0.00499916 0
      vertex -93.5106 -3.09017 0
    endloop
  endfacet
  facet normal 0 0 1
    outer loop
      vertex -93.5106 -3.09017 0
      vertex -93.9992 0.00499916 0
      vertex -94 2.08722e-14 0
    endloop
  endfacet
  facet normal 0 1 -0
    outer loop
      vertex 149.995 122 -3
      vertex -83.995 122 0
      vertex 149.995 122 0
    endloop
  endfacet
  facet normal 0 1 0
    outer loop
      vertex -83.995 122 0
      vertex 149.995 122 -3
      vertex -83.995 122 -3
    endloop
  endfacet
  facet normal -1 0 0
    outer loop
      vertex -94 0.00499916 -3
      vertex -94 111.995 0
      vertex -94 111.995 -3
    endloop
  endfacet
  facet normal -1 -0 0
    outer loop
      vertex -94 111.995 0
      vertex -94 0.00499916 -3
      vertex -94 0.00499916 0
    endloop
  endfacet
  facet normal 0 0 -1
    outer loop
      vertex 149.995 -9.99921 -3
      vertex 159.999 0.00499916 -3
      vertex 159.511 -3.09017 -3
    endloop
  endfacet
  facet normal 0 0 -1
    outer loop
      vertex 159.511 -3.09017 -3
      vertex 159.999 0.00499916 -3
      vertex 160 -9.53674e-07 -3
    endloop
  endfacet
  facet normal 0 0 -1
    outer loop
      vertex 159.999 0.00499916 -3
      vertex 160 111.995 -3
      vertex 160 0.00499916 -3
    endloop
  endfacet
  facet normal -0 0 -1
    outer loop
      vertex 160 111.995 -3
      vertex 159.999 0.00499916 -3
      vertex 159.999 111.995 -3
    endloop
  endfacet
  facet normal 0 0 -1
    outer loop
      vertex 159.999 111.995 -3
      vertex 159.511 115.09 -3
      vertex 160 112 -3
    endloop
  endfacet
  facet normal -0 0 -1
    outer loop
      vertex 159.999 0.00499916 -3
      vertex 149.995 -9.99921 -3
      vertex 159.999 111.995 -3
    endloop
  endfacet
  facet normal 0 0 -1
    outer loop
      vertex 149.995 -9.99921 -3
      vertex 159.511 -3.09017 -3
      vertex 158.09 -5.87785 -3
    endloop
  endfacet
  facet normal 0 0 -1
    outer loop
      vertex 149.995 121.999 -3
      vertex 159.999 111.995 -3
      vertex 149.995 -9.99921 -3
    endloop
  endfacet
  facet normal 0 0 -1
    outer loop
      vertex 149.995 -9.99921 -3
      vertex 158.09 -5.87785 -3
      vertex 155.878 -8.09017 -3
    endloop
  endfacet
  facet normal 0 0 -1
    outer loop
      vertex 159.999 111.995 -3
      vertex 149.995 121.999 -3
      vertex 159.511 115.09 -3
    endloop
  endfacet
  facet normal 0 0 -1
    outer loop
      vertex 149.995 -9.99921 -3
      vertex 155.878 -8.09017 -3
      vertex 153.09 -9.51056 -3
    endloop
  endfacet
  facet normal 0 0 -1
    outer loop
      vertex 159.511 115.09 -3
      vertex 149.995 121.999 -3
      vertex 158.09 117.878 -3
    endloop
  endfacet
  facet normal 0 0 -1
    outer loop
      vertex 149.995 -9.99921 -3
      vertex 153.09 -9.51056 -3
      vertex 150 -10 -3
    endloop
  endfacet
  facet normal 0 0 -1
    outer loop
      vertex 158.09 117.878 -3
      vertex 149.995 121.999 -3
      vertex 155.878 120.09 -3
    endloop
  endfacet
  facet normal 0 0 -1
    outer loop
      vertex 155.878 120.09 -3
      vertex 149.995 121.999 -3
      vertex 153.09 121.511 -3
    endloop
  endfacet
  facet normal 0 0 -1
    outer loop
      vertex 153.09 121.511 -3
      vertex 149.995 121.999 -3
      vertex 150 122 -3
    endloop
  endfacet
  facet normal 0 0 -1
    outer loop
      vertex -94 0.00499916 -3
      vertex -93.9992 111.995 -3
      vertex -93.9992 0.00499916 -3
    endloop
  endfacet
  facet normal -0 0 -1
    outer loop
      vertex -93.9992 111.995 -3
      vertex -94 0.00499916 -3
      vertex -94 111.995 -3
    endloop
  endfacet
  facet normal 0 0 -1
    outer loop
      vertex -87.0902 -9.51056 -3
      vertex -83.995 -9.99921 -3
      vertex -84 -10 -3
    endloop
  endfacet
  facet normal 0 0 -1
    outer loop
      vertex -83.995 -9.99921 -3
      vertex -93.9992 0.00499916 -3
      vertex -83.995 121.999 -3
    endloop
  endfacet
  facet normal 0 0 -1
    outer loop
      vertex -83.995 -9.99921 -3
      vertex -87.0902 -9.51056 -3
      vertex -93.9992 0.00499916 -3
    endloop
  endfacet
  facet normal 0 0 -1
    outer loop
      vertex -93.9992 111.995 -3
      vertex -83.995 121.999 -3
      vertex -93.9992 0.00499916 -3
    endloop
  endfacet
  facet normal 0 0 -1
    outer loop
      vertex -93.9992 0.00499916 -3
      vertex -87.0902 -9.51056 -3
      vertex -89.8779 -8.09017 -3
    endloop
  endfacet
  facet normal 0 -0 -1
    outer loop
      vertex -87.0902 121.511 -3
      vertex -83.995 121.999 -3
      vertex -93.9992 111.995 -3
    endloop
  endfacet
  facet normal 0 0 -1
    outer loop
      vertex -93.9992 0.00499916 -3
      vertex -89.8779 -8.09017 -3
      vertex -92.0902 -5.87785 -3
    endloop
  endfacet
  facet normal -0 0 -1
    outer loop
      vertex -83.995 121.999 -3
      vertex -87.0902 121.511 -3
      vertex -84 122 -3
    endloop
  endfacet
  facet normal 0 0 -1
    outer loop
      vertex -93.9992 0.00499916 -3
      vertex -92.0902 -5.87785 -3
      vertex -93.5106 -3.09017 -3
    endloop
  endfacet
  facet normal 0 0 -1
    outer loop
      vertex -87.0902 121.511 -3
      vertex -93.9992 111.995 -3
      vertex -89.8779 120.09 -3
    endloop
  endfacet
  facet normal 0 0 -1
    outer loop
      vertex -89.8779 120.09 -3
      vertex -93.9992 111.995 -3
      vertex -92.0902 117.878 -3
    endloop
  endfacet
  facet normal 0 -0 -1
    outer loop
      vertex -93.9992 0.00499916 -3
      vertex -93.5106 -3.09017 -3
      vertex -94 2.08722e-14 -3
    endloop
  endfacet
  facet normal 0 0 -1
    outer loop
      vertex -83.995 -9.99921 -3
      vertex 149.995 -9.99921 -3
      vertex 149.995 -10 -3
    endloop
  endfacet
  facet normal 0 0 -1
    outer loop
      vertex 149.995 -9.99921 -3
      vertex -83.995 -9.99921 -3
      vertex 149.995 121.999 -3
    endloop
  endfacet
  facet normal 0 0 -1
    outer loop
      vertex -83.995 -9.99921 -3
      vertex 149.995 -10 -3
      vertex -83.995 -10 -3
    endloop
  endfacet
  facet normal 0 0 -1
    outer loop
      vertex -83.995 121.999 -3
      vertex 149.995 121.999 -3
      vertex -83.995 -9.99921 -3
    endloop
  endfacet
  facet normal 0 0 -1
    outer loop
      vertex 149.995 121.999 -3
      vertex -83.995 121.999 -3
      vertex 149.995 122 -3
    endloop
  endfacet
  facet normal -0 0 -1
    outer loop
      vertex 149.995 122 -3
      vertex -83.995 121.999 -3
      vertex -83.995 122 -3
    endloop
  endfacet
  facet normal 0 0 -1
    outer loop
      vertex -92.0902 117.878 -3
      vertex -93.9992 111.995 -3
      vertex -93.5106 115.09 -3
    endloop
  endfacet
  facet normal 0 0 -1
    outer loop
      vertex -93.5106 115.09 -3
      vertex -93.9992 111.995 -3
      vertex -94 112 -3
    endloop
  endfacet
  facet normal 0 -1 0
    outer loop
      vertex 159.999 0.00499916 -3
      vertex 160 0.00499916 0
      vertex 159.999 0.00499916 0
    endloop
  endfacet
  facet normal 0 -1 -0
    outer loop
      vertex 160 0.00499916 0
      vertex 159.999 0.00499916 -3
      vertex 160 0.00499916 -3
    endloop
  endfacet
  facet normal 1 -0 0
    outer loop
      vertex 149.995 -10 0
      vertex 149.995 -9.99921 -3
      vertex 149.995 -9.99921 0
    endloop
  endfacet
  facet normal 1 0 0
    outer loop
      vertex 149.995 -9.99921 -3
      vertex 149.995 -10 0
      vertex 149.995 -10 -3
    endloop
  endfacet
  facet normal 0.980582 0.196112 0
    outer loop
      vertex 160 -9.53674e-07 0
      vertex 159.999 0.00499916 -3
      vertex 159.999 0.00499916 0
    endloop
  endfacet
  facet normal 0.980582 0.196112 0
    outer loop
      vertex 159.999 0.00499916 -3
      vertex 160 -9.53674e-07 0
      vertex 160 -9.53674e-07 -3
    endloop
  endfacet
  facet normal -0.156064 -0.987747 0
    outer loop
      vertex 149.995 -9.99921 -3
      vertex 150 -10 0
      vertex 149.995 -9.99921 0
    endloop
  endfacet
  facet normal -0.156064 -0.987747 -0
    outer loop
      vertex 150 -10 0
      vertex 149.995 -9.99921 -3
      vertex 150 -10 -3
    endloop
  endfacet
  facet normal 0.156444 -0.987687 0
    outer loop
      vertex 150 -10 -3
      vertex 153.09 -9.51056 0
      vertex 150 -10 0
    endloop
  endfacet
  facet normal 0.156444 -0.987687 0
    outer loop
      vertex 153.09 -9.51056 0
      vertex 150 -10 -3
      vertex 153.09 -9.51056 -3
    endloop
  endfacet
  facet normal 0.98771 -0.156299 0
    outer loop
      vertex 159.511 -3.09017 0
      vertex 160 -9.53674e-07 -3
      vertex 160 -9.53674e-07 0
    endloop
  endfacet
  facet normal 0.98771 -0.156299 0
    outer loop
      vertex 160 -9.53674e-07 -3
      vertex 159.511 -3.09017 0
      vertex 159.511 -3.09017 -3
    endloop
  endfacet
  facet normal 0.707158 -0.707056 0
    outer loop
      vertex 155.878 -8.09017 0
      vertex 158.09 -5.87785 -3
      vertex 158.09 -5.87785 0
    endloop
  endfacet
  facet normal 0.707158 -0.707056 0
    outer loop
      vertex 158.09 -5.87785 -3
      vertex 155.878 -8.09017 0
      vertex 155.878 -8.09017 -3
    endloop
  endfacet
  facet normal 0.453948 -0.891028 0
    outer loop
      vertex 153.09 -9.51056 -3
      vertex 155.878 -8.09017 0
      vertex 153.09 -9.51056 0
    endloop
  endfacet
  facet normal 0.453948 -0.891028 0
    outer loop
      vertex 155.878 -8.09017 0
      vertex 153.09 -9.51056 -3
      vertex 155.878 -8.09017 -3
    endloop
  endfacet
  facet normal 0.890928 -0.454144 0
    outer loop
      vertex 158.09 -5.87785 0
      vertex 159.511 -3.09017 -3
      vertex 159.511 -3.09017 0
    endloop
  endfacet
  facet normal 0.890928 -0.454144 0
    outer loop
      vertex 159.511 -3.09017 -3
      vertex 158.09 -5.87785 0
      vertex 158.09 -5.87785 -3
    endloop
  endfacet
  facet normal 1 -0 0
    outer loop
      vertex 149.995 121.999 0
      vertex 149.995 122 -3
      vertex 149.995 122 0
    endloop
  endfacet
  facet normal 1 0 0
    outer loop
      vertex 149.995 122 -3
      vertex 149.995 121.999 0
      vertex 149.995 121.999 -3
    endloop
  endfacet
  facet normal 0 1 -0
    outer loop
      vertex 160 111.995 -3
      vertex 159.999 111.995 0
      vertex 160 111.995 0
    endloop
  endfacet
  facet normal 0 1 0
    outer loop
      vertex 159.999 111.995 0
      vertex 160 111.995 -3
      vertex 159.999 111.995 -3
    endloop
  endfacet
  facet normal -0.196116 0.980581 0
    outer loop
      vertex 150 122 -3
      vertex 149.995 121.999 0
      vertex 150 122 0
    endloop
  endfacet
  facet normal -0.196116 0.980581 0
    outer loop
      vertex 149.995 121.999 0
      vertex 150 122 -3
      vertex 149.995 121.999 -3
    endloop
  endfacet
  facet normal 0.980581 -0.196116 0
    outer loop
      vertex 159.999 111.995 0
      vertex 160 112 -3
      vertex 160 112 0
    endloop
  endfacet
  facet normal 0.980581 -0.196116 0
    outer loop
      vertex 160 112 -3
      vertex 159.999 111.995 0
      vertex 159.999 111.995 -3
    endloop
  endfacet
  facet normal 0.987708 0.156307 0
    outer loop
      vertex 160 112 0
      vertex 159.511 115.09 -3
      vertex 159.511 115.09 0
    endloop
  endfacet
  facet normal 0.987708 0.156307 0
    outer loop
      vertex 159.511 115.09 -3
      vertex 160 112 0
      vertex 160 112 -3
    endloop
  endfacet
  facet normal 0.156307 0.987708 -0
    outer loop
      vertex 153.09 121.511 -3
      vertex 150 122 0
      vertex 153.09 121.511 0
    endloop
  endfacet
  facet normal 0.156307 0.987708 0
    outer loop
      vertex 150 122 0
      vertex 153.09 121.511 -3
      vertex 150 122 -3
    endloop
  endfacet
  facet normal 0.707107 0.707107 0
    outer loop
      vertex 158.09 117.878 0
      vertex 155.878 120.09 -3
      vertex 155.878 120.09 0
    endloop
  endfacet
  facet normal 0.707107 0.707107 0
    outer loop
      vertex 155.878 120.09 -3
      vertex 158.09 117.878 0
      vertex 158.09 117.878 -3
    endloop
  endfacet
  facet normal 0.890949 0.454103 0
    outer loop
      vertex 159.511 115.09 0
      vertex 158.09 117.878 -3
      vertex 158.09 117.878 0
    endloop
  endfacet
  facet normal 0.890949 0.454103 0
    outer loop
      vertex 158.09 117.878 -3
      vertex 159.511 115.09 0
      vertex 159.511 115.09 -3
    endloop
  endfacet
  facet normal 0.454103 0.890949 -0
    outer loop
      vertex 155.878 120.09 -3
      vertex 153.09 121.511 0
      vertex 155.878 120.09 0
    endloop
  endfacet
  facet normal 0.454103 0.890949 0
    outer loop
      vertex 153.09 121.511 0
      vertex 155.878 120.09 -3
      vertex 153.09 121.511 -3
    endloop
  endfacet
  facet normal 1 -0 0
    outer loop
      vertex 160 0.00499916 0
      vertex 160 111.995 -3
      vertex 160 111.995 0
    endloop
  endfacet
  facet normal 1 0 0
    outer loop
      vertex 160 111.995 -3
      vertex 160 0.00499916 0
      vertex 160 0.00499916 -3
    endloop
  endfacet
endsolid OpenSCAD_Model
