solid OpenSCAD_Model
  facet normal -1 0 0
    outer loop
      vertex -81.995 -2 0
      vertex -81.995 -1.99921 4
      vertex -81.995 -1.99921 0
    endloop
  endfacet
  facet normal -1 -0 0
    outer loop
      vertex -81.995 -1.99921 4
      vertex -81.995 -2 0
      vertex -81.995 -2 4
    endloop
  endfacet
  facet normal 0 -1 0
    outer loop
      vertex -86 2.005 0
      vertex -85.9992 2.005 4
      vertex -86 2.005 4
    endloop
  endfacet
  facet normal 0 -1 -0
    outer loop
      vertex -85.9992 2.005 4
      vertex -86 2.005 0
      vertex -85.9992 2.005 0
    endloop
  endfacet
  facet normal -0.987685 -0.156455 0
    outer loop
      vertex -85.8042 0.763931 0
      vertex -86 2 4
      vertex -86 2 0
    endloop
  endfacet
  facet normal -0.987685 -0.156455 0
    outer loop
      vertex -86 2 4
      vertex -85.8042 0.763931 0
      vertex -85.8042 0.763931 4
    endloop
  endfacet
  facet normal 0.156064 -0.987747 0
    outer loop
      vertex -82 -2 0
      vertex -81.995 -1.99921 4
      vertex -82 -2 4
    endloop
  endfacet
  facet normal 0.156064 -0.987747 0
    outer loop
      vertex -81.995 -1.99921 4
      vertex -82 -2 0
      vertex -81.995 -1.99921 0
    endloop
  endfacet
  facet normal -0.891025 -0.453954 0
    outer loop
      vertex -85.2361 -0.351141 0
      vertex -85.8042 0.763931 4
      vertex -85.8042 0.763931 0
    endloop
  endfacet
  facet normal -0.891025 -0.453954 0
    outer loop
      vertex -85.8042 0.763931 4
      vertex -85.2361 -0.351141 0
      vertex -85.2361 -0.351141 4
    endloop
  endfacet
  facet normal -0.156427 -0.987689 0
    outer loop
      vertex -83.2361 -1.80423 0
      vertex -82 -2 4
      vertex -83.2361 -1.80423 4
    endloop
  endfacet
  facet normal -0.156427 -0.987689 -0
    outer loop
      vertex -82 -2 4
      vertex -83.2361 -1.80423 0
      vertex -82 -2 0
    endloop
  endfacet
  facet normal -0.987441 0.157991 0
    outer loop
      vertex -86 2 0
      vertex -85.9992 2.005 4
      vertex -85.9992 2.005 0
    endloop
  endfacet
  facet normal -0.987441 0.157991 0
    outer loop
      vertex -85.9992 2.005 4
      vertex -86 2 0
      vertex -86 2 4
    endloop
  endfacet
  facet normal -0.707078 -0.707135 0
    outer loop
      vertex -84.3511 -1.23607 0
      vertex -85.2361 -0.351141 4
      vertex -85.2361 -0.351141 0
    endloop
  endfacet
  facet normal -0.707078 -0.707135 0
    outer loop
      vertex -85.2361 -0.351141 4
      vertex -84.3511 -1.23607 0
      vertex -84.3511 -1.23607 4
    endloop
  endfacet
  facet normal -0.454015 -0.890994 0
    outer loop
      vertex -84.3511 -1.23607 0
      vertex -83.2361 -1.80423 4
      vertex -84.3511 -1.23607 4
    endloop
  endfacet
  facet normal -0.454015 -0.890994 -0
    outer loop
      vertex -83.2361 -1.80423 4
      vertex -84.3511 -1.23607 0
      vertex -83.2361 -1.80423 0
    endloop
  endfacet
  facet normal 0 1 -0
    outer loop
      vertex -85.9992 111.995 0
      vertex -86 111.995 4
      vertex -85.9992 111.995 4
    endloop
  endfacet
  facet normal 0 1 0
    outer loop
      vertex -86 111.995 4
      vertex -85.9992 111.995 0
      vertex -86 111.995 0
    endloop
  endfacet
  facet normal -1 0 0
    outer loop
      vertex -83.995 113.999 0
      vertex -83.995 114 4
      vertex -83.995 114 0
    endloop
  endfacet
  facet normal -1 -0 0
    outer loop
      vertex -83.995 114 4
      vertex -83.995 113.999 0
      vertex -83.995 113.999 4
    endloop
  endfacet
  facet normal 0.196116 0.980581 -0
    outer loop
      vertex -83.995 113.999 0
      vertex -84 114 4
      vertex -83.995 113.999 4
    endloop
  endfacet
  facet normal 0.196116 0.980581 0
    outer loop
      vertex -84 114 4
      vertex -83.995 113.999 0
      vertex -84 114 0
    endloop
  endfacet
  facet normal -0.987684 0.156463 0
    outer loop
      vertex -86 112 0
      vertex -85.9021 112.618 4
      vertex -85.9021 112.618 0
    endloop
  endfacet
  facet normal -0.987684 0.156463 0
    outer loop
      vertex -85.9021 112.618 4
      vertex -86 112 0
      vertex -86 112 4
    endloop
  endfacet
  facet normal -0.453849 0.891079 0
    outer loop
      vertex -84.618 113.902 0
      vertex -85.1756 113.618 4
      vertex -84.618 113.902 4
    endloop
  endfacet
  facet normal -0.453849 0.891079 0
    outer loop
      vertex -85.1756 113.618 4
      vertex -84.618 113.902 0
      vertex -85.1756 113.618 0
    endloop
  endfacet
  facet normal -0.156619 0.987659 0
    outer loop
      vertex -84 114 0
      vertex -84.618 113.902 4
      vertex -84 114 4
    endloop
  endfacet
  facet normal -0.156619 0.987659 0
    outer loop
      vertex -84.618 113.902 4
      vertex -84 114 0
      vertex -84.618 113.902 0
    endloop
  endfacet
  facet normal -0.987441 -0.157991 0
    outer loop
      vertex -85.9992 111.995 0
      vertex -86 112 4
      vertex -86 112 0
    endloop
  endfacet
  facet normal -0.987441 -0.157991 0
    outer loop
      vertex -86 112 4
      vertex -85.9992 111.995 0
      vertex -85.9992 111.995 4
    endloop
  endfacet
  facet normal -0.706787 0.707427 0
    outer loop
      vertex -85.618 113.176 0
      vertex -85.1756 113.618 4
      vertex -85.1756 113.618 0
    endloop
  endfacet
  facet normal -0.706787 0.707427 0
    outer loop
      vertex -85.1756 113.618 4
      vertex -85.618 113.176 0
      vertex -85.618 113.176 4
    endloop
  endfacet
  facet normal -0.891146 0.453718 0
    outer loop
      vertex -85.9021 112.618 0
      vertex -85.618 113.176 4
      vertex -85.618 113.176 0
    endloop
  endfacet
  facet normal -0.891146 0.453718 0
    outer loop
      vertex -85.618 113.176 4
      vertex -85.9021 112.618 0
      vertex -85.9021 112.618 4
    endloop
  endfacet
  facet normal 0 -1 0
    outer loop
      vertex -81.995 -2 0
      vertex 66 -2 4
      vertex -81.995 -2 4
    endloop
  endfacet
  facet normal 0 -1 -0
    outer loop
      vertex 66 -2 4
      vertex -81.995 -2 0
      vertex 66 -2 0
    endloop
  endfacet
  facet normal -0 0 1
    outer loop
      vertex -86 111.995 4
      vertex -85.9992 2.005 4
      vertex -85.9992 111.995 4
    endloop
  endfacet
  facet normal 0 0 1
    outer loop
      vertex -85.9992 2.005 4
      vertex -86 111.995 4
      vertex -86 2.005 4
    endloop
  endfacet
  facet normal 0 0 1
    outer loop
      vertex -85.9021 112.618 4
      vertex -86 112 4
      vertex -85.9992 111.995 4
    endloop
  endfacet
  facet normal 0 0 1
    outer loop
      vertex -84 1.86517e-14 4
      vertex -82 -2 4
      vertex -81.995 -1.99921 4
    endloop
  endfacet
  facet normal 0 0 1
    outer loop
      vertex -84 1.86517e-14 4
      vertex -81.995 -1.99921 4
      vertex 28 -6.21725e-15 4
    endloop
  endfacet
  facet normal 0 0 1
    outer loop
      vertex -82 -2 4
      vertex -84 1.86517e-14 4
      vertex -83.2361 -1.80423 4
    endloop
  endfacet
  facet normal 0 0 1
    outer loop
      vertex -83.2361 -1.80423 4
      vertex -84 1.86517e-14 4
      vertex -84.3511 -1.23607 4
    endloop
  endfacet
  facet normal 0 0 1
    outer loop
      vertex 66 114 4
      vertex 38 112 4
      vertex 66 112 4
    endloop
  endfacet
  facet normal 0 0 1
    outer loop
      vertex 38 112 4
      vertex 28 112 4
      vertex 38 -8.43769e-15 4
    endloop
  endfacet
  facet normal 0 0 1
    outer loop
      vertex 66 114 4
      vertex 28 112 4
      vertex 38 112 4
    endloop
  endfacet
  facet normal -0 0 1
    outer loop
      vertex -83.995 114 4
      vertex 28 112 4
      vertex 66 114 4
    endloop
  endfacet
  facet normal -0 0 1
    outer loop
      vertex -83.995 113.999 4
      vertex 28 112 4
      vertex -83.995 114 4
    endloop
  endfacet
  facet normal 0 0 1
    outer loop
      vertex -83.995 113.999 4
      vertex -84 112 4
      vertex 28 112 4
    endloop
  endfacet
  facet normal 0 0 1
    outer loop
      vertex -84 114 4
      vertex -84 112 4
      vertex -83.995 113.999 4
    endloop
  endfacet
  facet normal -0 0 1
    outer loop
      vertex -84.618 113.902 4
      vertex -84 112 4
      vertex -84 114 4
    endloop
  endfacet
  facet normal 0 0 1
    outer loop
      vertex -84 112 4
      vertex -85.9992 2.005 4
      vertex -84 1.86517e-14 4
    endloop
  endfacet
  facet normal -0 0 1
    outer loop
      vertex -85.1756 113.618 4
      vertex -84 112 4
      vertex -84.618 113.902 4
    endloop
  endfacet
  facet normal -0 0 1
    outer loop
      vertex -85.618 113.176 4
      vertex -84 112 4
      vertex -85.1756 113.618 4
    endloop
  endfacet
  facet normal -0 0 1
    outer loop
      vertex -86 2 4
      vertex -84 1.86517e-14 4
      vertex -85.9992 2.005 4
    endloop
  endfacet
  facet normal -0 0 1
    outer loop
      vertex -85.9021 112.618 4
      vertex -84 112 4
      vertex -85.618 113.176 4
    endloop
  endfacet
  facet normal 0 0 1
    outer loop
      vertex -84 1.86517e-14 4
      vertex -85.2361 -0.351141 4
      vertex -84.3511 -1.23607 4
    endloop
  endfacet
  facet normal 0 0 1
    outer loop
      vertex -84 112 4
      vertex -85.9021 112.618 4
      vertex -85.9992 111.995 4
    endloop
  endfacet
  facet normal 0 0 1
    outer loop
      vertex -84 112 4
      vertex -85.9992 111.995 4
      vertex -85.9992 2.005 4
    endloop
  endfacet
  facet normal 0 0 1
    outer loop
      vertex -84 1.86517e-14 4
      vertex -85.8042 0.763931 4
      vertex -85.2361 -0.351141 4
    endloop
  endfacet
  facet normal 0 0 1
    outer loop
      vertex -84 1.86517e-14 4
      vertex -86 2 4
      vertex -85.8042 0.763931 4
    endloop
  endfacet
  facet normal 0 0 1
    outer loop
      vertex 147.995 114 4
      vertex 66 114 4
      vertex 147.995 113.999 4
    endloop
  endfacet
  facet normal 0 0 1
    outer loop
      vertex 149.236 113.804 4
      vertex 150 112 4
      vertex 150.351 113.236 4
    endloop
  endfacet
  facet normal 0 0 1
    outer loop
      vertex 148 114 4
      vertex 150 112 4
      vertex 149.236 113.804 4
    endloop
  endfacet
  facet normal -0 0 1
    outer loop
      vertex 147.995 113.999 4
      vertex 150 112 4
      vertex 148 114 4
    endloop
  endfacet
  facet normal 0 0 1
    outer loop
      vertex 66 112 4
      vertex 147.995 113.999 4
      vertex 66 114 4
    endloop
  endfacet
  facet normal 0 0 1
    outer loop
      vertex 147.995 113.999 4
      vertex 66 112 4
      vertex 150 112 4
    endloop
  endfacet
  facet normal 0 0 1
    outer loop
      vertex 150 -4.35937e-14 4
      vertex 151.999 0.00499916 4
      vertex 151.999 109.995 4
    endloop
  endfacet
  facet normal 0 0 1
    outer loop
      vertex 150 112 4
      vertex 152 110 4
      vertex 151.804 111.236 4
    endloop
  endfacet
  facet normal 0 0 1
    outer loop
      vertex 152 110 4
      vertex 150 112 4
      vertex 151.999 109.995 4
    endloop
  endfacet
  facet normal 0 0 1
    outer loop
      vertex 151.999 0.00499916 4
      vertex 150 -4.35937e-14 4
      vertex 151.902 -0.618034 4
    endloop
  endfacet
  facet normal -0 0 1
    outer loop
      vertex 150 112 4
      vertex 151.804 111.236 4
      vertex 151.236 112.351 4
    endloop
  endfacet
  facet normal 0 0 1
    outer loop
      vertex 151.902 -0.618034 4
      vertex 150 -4.35937e-14 4
      vertex 151.618 -1.17557 4
    endloop
  endfacet
  facet normal 0 0 1
    outer loop
      vertex 151.618 -1.17557 4
      vertex 150 -4.35937e-14 4
      vertex 151.176 -1.61803 4
    endloop
  endfacet
  facet normal 0 0 1
    outer loop
      vertex 150 112 4
      vertex 151.236 112.351 4
      vertex 150.351 113.236 4
    endloop
  endfacet
  facet normal 0 0 1
    outer loop
      vertex 151.999 109.995 4
      vertex 150 112 4
      vertex 150 -4.35937e-14 4
    endloop
  endfacet
  facet normal 0 0 1
    outer loop
      vertex 151.176 -1.61803 4
      vertex 150 -4.35937e-14 4
      vertex 150.618 -1.90211 4
    endloop
  endfacet
  facet normal 0 0 1
    outer loop
      vertex 150 -4.35937e-14 4
      vertex 150 -2 4
      vertex 150.618 -1.90211 4
    endloop
  endfacet
  facet normal 0 0 1
    outer loop
      vertex 150 -4.35937e-14 4
      vertex 149.995 -1.99921 4
      vertex 150 -2 4
    endloop
  endfacet
  facet normal 0 0 1
    outer loop
      vertex 66 -1.46549e-14 4
      vertex 149.995 -1.99921 4
      vertex 150 -4.35937e-14 4
    endloop
  endfacet
  facet normal 0 0 1
    outer loop
      vertex 66 -2 4
      vertex 149.995 -1.99921 4
      vertex 66 -1.46549e-14 4
    endloop
  endfacet
  facet normal 0 0 1
    outer loop
      vertex 149.995 -1.99921 4
      vertex 66 -2 4
      vertex 149.995 -2 4
    endloop
  endfacet
  facet normal 0 0 1
    outer loop
      vertex 38 -8.43769e-15 4
      vertex 66 -2 4
      vertex 66 -1.46549e-14 4
    endloop
  endfacet
  facet normal -0 0 1
    outer loop
      vertex 28 -6.21725e-15 4
      vertex 38 -8.43769e-15 4
      vertex 28 112 4
    endloop
  endfacet
  facet normal 0 0 1
    outer loop
      vertex 28 -6.21725e-15 4
      vertex 66 -2 4
      vertex 38 -8.43769e-15 4
    endloop
  endfacet
  facet normal 0 0 1
    outer loop
      vertex -81.995 -2 4
      vertex 28 -6.21725e-15 4
      vertex -81.995 -1.99921 4
    endloop
  endfacet
  facet normal 0 0 1
    outer loop
      vertex 28 -6.21725e-15 4
      vertex -81.995 -2 4
      vertex 66 -2 4
    endloop
  endfacet
  facet normal -0 0 1
    outer loop
      vertex 151.999 109.995 4
      vertex 152 0.00499916 4
      vertex 152 109.995 4
    endloop
  endfacet
  facet normal 0 0 1
    outer loop
      vertex 152 0.00499916 4
      vertex 151.999 109.995 4
      vertex 151.999 0.00499916 4
    endloop
  endfacet
  facet normal 0 0 1
    outer loop
      vertex 152 -9.53674e-07 4
      vertex 151.999 0.00499916 4
      vertex 151.902 -0.618034 4
    endloop
  endfacet
  facet normal 0 1 -0
    outer loop
      vertex 66 114 0
      vertex -83.995 114 4
      vertex 66 114 4
    endloop
  endfacet
  facet normal 0 1 0
    outer loop
      vertex -83.995 114 4
      vertex 66 114 0
      vertex -83.995 114 0
    endloop
  endfacet
  facet normal -1 0 0
    outer loop
      vertex -86 2.005 0
      vertex -86 111.995 4
      vertex -86 111.995 0
    endloop
  endfacet
  facet normal -1 -0 0
    outer loop
      vertex -86 111.995 4
      vertex -86 2.005 0
      vertex -86 2.005 4
    endloop
  endfacet
  facet normal 0 0 -1
    outer loop
      vertex -86 2.005 0
      vertex -85.9992 111.995 0
      vertex -85.9992 2.005 0
    endloop
  endfacet
  facet normal -0 0 -1
    outer loop
      vertex -85.9992 111.995 0
      vertex -86 2.005 0
      vertex -86 111.995 0
    endloop
  endfacet
  facet normal 0 0 -1
    outer loop
      vertex -84 112 0
      vertex -83.995 113.999 0
      vertex 28 112 0
    endloop
  endfacet
  facet normal -0 0 -1
    outer loop
      vertex -83.995 113.999 0
      vertex -84 112 0
      vertex -84 114 0
    endloop
  endfacet
  facet normal 0 0 -1
    outer loop
      vertex 38 112 0
      vertex 66 114 0
      vertex 66 112 0
    endloop
  endfacet
  facet normal 0 0 -1
    outer loop
      vertex 28 112 0
      vertex 38 112 0
      vertex 28 -6.21725e-15 0
    endloop
  endfacet
  facet normal 0 0 -1
    outer loop
      vertex 28 112 0
      vertex 66 114 0
      vertex 38 112 0
    endloop
  endfacet
  facet normal 0 0 -1
    outer loop
      vertex -83.995 114 0
      vertex 28 112 0
      vertex -83.995 113.999 0
    endloop
  endfacet
  facet normal 0 0 -1
    outer loop
      vertex 28 112 0
      vertex -83.995 114 0
      vertex 66 114 0
    endloop
  endfacet
  facet normal 0 0 -1
    outer loop
      vertex 149.995 -1.99921 0
      vertex 150 -4.35937e-14 0
      vertex 150 -2 0
    endloop
  endfacet
  facet normal 0 0 -1
    outer loop
      vertex 66 -2 0
      vertex 150 -4.35937e-14 0
      vertex 149.995 -1.99921 0
    endloop
  endfacet
  facet normal 0 0 -1
    outer loop
      vertex 66 -2 0
      vertex 66 -1.46549e-14 0
      vertex 150 -4.35937e-14 0
    endloop
  endfacet
  facet normal 0 0 -1
    outer loop
      vertex 66 -2 0
      vertex 38 -8.43769e-15 0
      vertex 66 -1.46549e-14 0
    endloop
  endfacet
  facet normal 0 0 -1
    outer loop
      vertex 38 -8.43769e-15 0
      vertex 28 -6.21725e-15 0
      vertex 38 112 0
    endloop
  endfacet
  facet normal 0 0 -1
    outer loop
      vertex 66 -2 0
      vertex 28 -6.21725e-15 0
      vertex 38 -8.43769e-15 0
    endloop
  endfacet
  facet normal 0 0 -1
    outer loop
      vertex -81.995 -2 0
      vertex 28 -6.21725e-15 0
      vertex 66 -2 0
    endloop
  endfacet
  facet normal 0 0 -1
    outer loop
      vertex -81.995 -1.99921 0
      vertex 28 -6.21725e-15 0
      vertex -81.995 -2 0
    endloop
  endfacet
  facet normal 0 0 -1
    outer loop
      vertex -84 1.86517e-14 0
      vertex -82 -2 0
      vertex -83.2361 -1.80423 0
    endloop
  endfacet
  facet normal 0 0 -1
    outer loop
      vertex -82 -2 0
      vertex -84 1.86517e-14 0
      vertex -81.995 -1.99921 0
    endloop
  endfacet
  facet normal 0 0 -1
    outer loop
      vertex -81.995 -1.99921 0
      vertex -84 1.86517e-14 0
      vertex 28 -6.21725e-15 0
    endloop
  endfacet
  facet normal 0 0 -1
    outer loop
      vertex -85.9992 2.005 0
      vertex -84 112 0
      vertex -84 1.86517e-14 0
    endloop
  endfacet
  facet normal 0 0 -1
    outer loop
      vertex -84.3511 -1.23607 0
      vertex -84 1.86517e-14 0
      vertex -83.2361 -1.80423 0
    endloop
  endfacet
  facet normal 0 0 -1
    outer loop
      vertex -85.2361 -0.351141 0
      vertex -84 1.86517e-14 0
      vertex -84.3511 -1.23607 0
    endloop
  endfacet
  facet normal 0 0 -1
    outer loop
      vertex -85.9992 111.995 0
      vertex -84 112 0
      vertex -85.9992 2.005 0
    endloop
  endfacet
  facet normal 0 -0 -1
    outer loop
      vertex -85.9021 112.618 0
      vertex -84 112 0
      vertex -85.9992 111.995 0
    endloop
  endfacet
  facet normal 0 0 -1
    outer loop
      vertex -85.8042 0.763931 0
      vertex -84 1.86517e-14 0
      vertex -85.2361 -0.351141 0
    endloop
  endfacet
  facet normal 0 0 -1
    outer loop
      vertex -84 112 0
      vertex -84.618 113.902 0
      vertex -84 114 0
    endloop
  endfacet
  facet normal 0 0 -1
    outer loop
      vertex -86 2 0
      vertex -84 1.86517e-14 0
      vertex -85.8042 0.763931 0
    endloop
  endfacet
  facet normal 0 0 -1
    outer loop
      vertex -84 112 0
      vertex -85.1756 113.618 0
      vertex -84.618 113.902 0
    endloop
  endfacet
  facet normal 0 0 -1
    outer loop
      vertex -84 112 0
      vertex -85.618 113.176 0
      vertex -85.1756 113.618 0
    endloop
  endfacet
  facet normal 0 0 -1
    outer loop
      vertex -84 1.86517e-14 0
      vertex -86 2 0
      vertex -85.9992 2.005 0
    endloop
  endfacet
  facet normal 0 0 -1
    outer loop
      vertex 149.995 -2 0
      vertex 66 -2 0
      vertex 149.995 -1.99921 0
    endloop
  endfacet
  facet normal 0 0 -1
    outer loop
      vertex 150 -4.35937e-14 0
      vertex 151.999 0.00499916 0
      vertex 151.902 -0.618034 0
    endloop
  endfacet
  facet normal 0 0 -1
    outer loop
      vertex 151.902 -0.618034 0
      vertex 151.999 0.00499916 0
      vertex 152 -9.53674e-07 0
    endloop
  endfacet
  facet normal 0 0 -1
    outer loop
      vertex 151.999 0.00499916 0
      vertex 152 109.995 0
      vertex 152 0.00499916 0
    endloop
  endfacet
  facet normal -0 0 -1
    outer loop
      vertex 152 109.995 0
      vertex 151.999 0.00499916 0
      vertex 151.999 109.995 0
    endloop
  endfacet
  facet normal 0 0 -1
    outer loop
      vertex 150 112 0
      vertex 152 110 0
      vertex 151.999 109.995 0
    endloop
  endfacet
  facet normal -0 0 -1
    outer loop
      vertex 151.999 0.00499916 0
      vertex 150 -4.35937e-14 0
      vertex 151.999 109.995 0
    endloop
  endfacet
  facet normal 0 0 -1
    outer loop
      vertex 150 -4.35937e-14 0
      vertex 151.902 -0.618034 0
      vertex 151.618 -1.17557 0
    endloop
  endfacet
  facet normal 0 0 -1
    outer loop
      vertex 150 112 0
      vertex 151.999 109.995 0
      vertex 150 -4.35937e-14 0
    endloop
  endfacet
  facet normal 0 0 -1
    outer loop
      vertex 150 -4.35937e-14 0
      vertex 151.618 -1.17557 0
      vertex 151.176 -1.61803 0
    endloop
  endfacet
  facet normal 0 0 -1
    outer loop
      vertex 150 -4.35937e-14 0
      vertex 151.176 -1.61803 0
      vertex 150.618 -1.90211 0
    endloop
  endfacet
  facet normal 0 0 -1
    outer loop
      vertex 152 110 0
      vertex 150 112 0
      vertex 151.804 111.236 0
    endloop
  endfacet
  facet normal 0 0 -1
    outer loop
      vertex 150 -4.35937e-14 0
      vertex 150.618 -1.90211 0
      vertex 150 -2 0
    endloop
  endfacet
  facet normal 0 0 -1
    outer loop
      vertex 151.804 111.236 0
      vertex 150 112 0
      vertex 151.236 112.351 0
    endloop
  endfacet
  facet normal -0 0 -1
    outer loop
      vertex 151.236 112.351 0
      vertex 150 112 0
      vertex 150.351 113.236 0
    endloop
  endfacet
  facet normal 0 0 -1
    outer loop
      vertex 150 112 0
      vertex 149.236 113.804 0
      vertex 150.351 113.236 0
    endloop
  endfacet
  facet normal 0 0 -1
    outer loop
      vertex 150 112 0
      vertex 148 114 0
      vertex 149.236 113.804 0
    endloop
  endfacet
  facet normal 0 0 -1
    outer loop
      vertex 150 112 0
      vertex 147.995 113.999 0
      vertex 148 114 0
    endloop
  endfacet
  facet normal 0 0 -1
    outer loop
      vertex 66 112 0
      vertex 147.995 113.999 0
      vertex 150 112 0
    endloop
  endfacet
  facet normal 0 0 -1
    outer loop
      vertex 66 114 0
      vertex 147.995 113.999 0
      vertex 66 112 0
    endloop
  endfacet
  facet normal 0 0 -1
    outer loop
      vertex 147.995 113.999 0
      vertex 66 114 0
      vertex 147.995 114 0
    endloop
  endfacet
  facet normal 0 0 -1
    outer loop
      vertex -84 112 0
      vertex -85.9021 112.618 0
      vertex -85.618 113.176 0
    endloop
  endfacet
  facet normal 0 0 -1
    outer loop
      vertex -85.9021 112.618 0
      vertex -85.9992 111.995 0
      vertex -86 112 0
    endloop
  endfacet
  facet normal 2.22044e-16 1 -0
    outer loop
      vertex 28 -6.21725e-15 0
      vertex -84 1.86517e-14 4
      vertex 28 -6.21725e-15 4
    endloop
  endfacet
  facet normal 2.22044e-16 1 0
    outer loop
      vertex -84 1.86517e-14 4
      vertex 28 -6.21725e-15 0
      vertex -84 1.86517e-14 0
    endloop
  endfacet
  facet normal 0 -1 0
    outer loop
      vertex -84 112 0
      vertex 28 112 4
      vertex -84 112 4
    endloop
  endfacet
  facet normal 0 -1 -0
    outer loop
      vertex 28 112 4
      vertex -84 112 0
      vertex 28 112 0
    endloop
  endfacet
  facet normal 1 -0 0
    outer loop
      vertex -84 1.86517e-14 4
      vertex -84 112 0
      vertex -84 112 4
    endloop
  endfacet
  facet normal 1 0 0
    outer loop
      vertex -84 112 0
      vertex -84 1.86517e-14 4
      vertex -84 1.86517e-14 0
    endloop
  endfacet
  facet normal 1 -0 0
    outer loop
      vertex 66 112 4
      vertex 66 114 0
      vertex 66 114 4
    endloop
  endfacet
  facet normal 1 0 0
    outer loop
      vertex 66 114 0
      vertex 66 112 4
      vertex 66 112 0
    endloop
  endfacet
  facet normal 2.22043e-16 1 -0
    outer loop
      vertex 66 -1.46549e-14 0
      vertex 38 -8.43769e-15 4
      vertex 66 -1.46549e-14 4
    endloop
  endfacet
  facet normal 2.22043e-16 1 0
    outer loop
      vertex 38 -8.43769e-15 4
      vertex 66 -1.46549e-14 0
      vertex 38 -8.43769e-15 0
    endloop
  endfacet
  facet normal 0 -1 0
    outer loop
      vertex 38 112 0
      vertex 66 112 4
      vertex 38 112 4
    endloop
  endfacet
  facet normal 0 -1 -0
    outer loop
      vertex 66 112 4
      vertex 38 112 0
      vertex 66 112 0
    endloop
  endfacet
  facet normal -1 0 0
    outer loop
      vertex 28 -6.21725e-15 0
      vertex 28 112 4
      vertex 28 112 0
    endloop
  endfacet
  facet normal -1 -0 0
    outer loop
      vertex 28 112 4
      vertex 28 -6.21725e-15 0
      vertex 28 -6.21725e-15 4
    endloop
  endfacet
  facet normal 1 -0 0
    outer loop
      vertex 38 -8.43769e-15 4
      vertex 38 112 0
      vertex 38 112 4
    endloop
  endfacet
  facet normal 1 0 0
    outer loop
      vertex 38 112 0
      vertex 38 -8.43769e-15 4
      vertex 38 -8.43769e-15 0
    endloop
  endfacet
  facet normal 1 -0 0
    outer loop
      vertex 147.995 113.999 4
      vertex 147.995 114 0
      vertex 147.995 114 4
    endloop
  endfacet
  facet normal 1 0 0
    outer loop
      vertex 147.995 114 0
      vertex 147.995 113.999 4
      vertex 147.995 113.999 0
    endloop
  endfacet
  facet normal 0 1 -0
    outer loop
      vertex 152 109.995 0
      vertex 151.999 109.995 4
      vertex 152 109.995 4
    endloop
  endfacet
  facet normal 0 1 0
    outer loop
      vertex 151.999 109.995 4
      vertex 152 109.995 0
      vertex 151.999 109.995 0
    endloop
  endfacet
  facet normal 0.987659 0.156619 0
    outer loop
      vertex 152 110 4
      vertex 151.804 111.236 0
      vertex 151.804 111.236 4
    endloop
  endfacet
  facet normal 0.987659 0.156619 0
    outer loop
      vertex 151.804 111.236 0
      vertex 152 110 4
      vertex 152 110 0
    endloop
  endfacet
  facet normal -0.196116 0.980581 0
    outer loop
      vertex 148 114 0
      vertex 147.995 113.999 4
      vertex 148 114 4
    endloop
  endfacet
  facet normal -0.196116 0.980581 0
    outer loop
      vertex 147.995 113.999 4
      vertex 148 114 0
      vertex 147.995 113.999 0
    endloop
  endfacet
  facet normal 0.891046 0.453914 0
    outer loop
      vertex 151.804 111.236 4
      vertex 151.236 112.351 0
      vertex 151.236 112.351 4
    endloop
  endfacet
  facet normal 0.891046 0.453914 0
    outer loop
      vertex 151.236 112.351 0
      vertex 151.804 111.236 4
      vertex 151.804 111.236 0
    endloop
  endfacet
  facet normal 0.156619 0.987659 -0
    outer loop
      vertex 149.236 113.804 0
      vertex 148 114 4
      vertex 149.236 113.804 4
    endloop
  endfacet
  facet normal 0.156619 0.987659 0
    outer loop
      vertex 148 114 4
      vertex 149.236 113.804 0
      vertex 148 114 0
    endloop
  endfacet
  facet normal 0.980581 -0.196116 0
    outer loop
      vertex 151.999 109.995 4
      vertex 152 110 0
      vertex 152 110 4
    endloop
  endfacet
  facet normal 0.980581 -0.196116 0
    outer loop
      vertex 152 110 0
      vertex 151.999 109.995 4
      vertex 151.999 109.995 0
    endloop
  endfacet
  facet normal 0.707107 0.707107 -0
    outer loop
      vertex 151.236 112.351 0
      vertex 150.351 113.236 4
      vertex 151.236 112.351 4
    endloop
  endfacet
  facet normal 0.707107 0.707107 0
    outer loop
      vertex 150.351 113.236 4
      vertex 151.236 112.351 0
      vertex 150.351 113.236 0
    endloop
  endfacet
  facet normal 0.453914 0.891046 -0
    outer loop
      vertex 150.351 113.236 0
      vertex 149.236 113.804 4
      vertex 150.351 113.236 4
    endloop
  endfacet
  facet normal 0.453914 0.891046 0
    outer loop
      vertex 149.236 113.804 4
      vertex 150.351 113.236 0
      vertex 149.236 113.804 0
    endloop
  endfacet
  facet normal 0 -1 0
    outer loop
      vertex 151.999 0.00499916 0
      vertex 152 0.00499916 4
      vertex 151.999 0.00499916 4
    endloop
  endfacet
  facet normal 0 -1 -0
    outer loop
      vertex 152 0.00499916 4
      vertex 151.999 0.00499916 0
      vertex 152 0.00499916 0
    endloop
  endfacet
  facet normal 1 -0 0
    outer loop
      vertex 149.995 -2 4
      vertex 149.995 -1.99921 0
      vertex 149.995 -1.99921 4
    endloop
  endfacet
  facet normal 1 0 0
    outer loop
      vertex 149.995 -1.99921 0
      vertex 149.995 -2 4
      vertex 149.995 -2 0
    endloop
  endfacet
  facet normal -0.156064 -0.987747 0
    outer loop
      vertex 149.995 -1.99921 0
      vertex 150 -2 4
      vertex 149.995 -1.99921 4
    endloop
  endfacet
  facet normal -0.156064 -0.987747 -0
    outer loop
      vertex 150 -2 4
      vertex 149.995 -1.99921 0
      vertex 150 -2 0
    endloop
  endfacet
  facet normal 0.98766 -0.156611 0
    outer loop
      vertex 151.902 -0.618034 4
      vertex 152 -9.53674e-07 0
      vertex 152 -9.53674e-07 4
    endloop
  endfacet
  facet normal 0.98766 -0.156611 0
    outer loop
      vertex 152 -9.53674e-07 0
      vertex 151.902 -0.618034 4
      vertex 151.902 -0.618034 0
    endloop
  endfacet
  facet normal 0.453692 -0.891158 0
    outer loop
      vertex 150.618 -1.90211 0
      vertex 151.176 -1.61803 4
      vertex 150.618 -1.90211 4
    endloop
  endfacet
  facet normal 0.453692 -0.891158 0
    outer loop
      vertex 151.176 -1.61803 4
      vertex 150.618 -1.90211 0
      vertex 151.176 -1.61803 0
    endloop
  endfacet
  facet normal 0.156448 -0.987686 0
    outer loop
      vertex 150 -2 0
      vertex 150.618 -1.90211 4
      vertex 150 -2 4
    endloop
  endfacet
  facet normal 0.156448 -0.987686 0
    outer loop
      vertex 150.618 -1.90211 4
      vertex 150 -2 0
      vertex 150.618 -1.90211 0
    endloop
  endfacet
  facet normal 0.980582 0.196112 0
    outer loop
      vertex 152 -9.53674e-07 4
      vertex 151.999 0.00499916 0
      vertex 151.999 0.00499916 4
    endloop
  endfacet
  facet normal 0.980582 0.196112 0
    outer loop
      vertex 151.999 0.00499916 0
      vertex 152 -9.53674e-07 4
      vertex 152 -9.53674e-07 0
    endloop
  endfacet
  facet normal 0.707474 -0.706739 0
    outer loop
      vertex 151.176 -1.61803 4
      vertex 151.618 -1.17557 0
      vertex 151.618 -1.17557 4
    endloop
  endfacet
  facet normal 0.707474 -0.706739 0
    outer loop
      vertex 151.618 -1.17557 0
      vertex 151.176 -1.61803 4
      vertex 151.176 -1.61803 0
    endloop
  endfacet
  facet normal 0.891057 -0.453891 0
    outer loop
      vertex 151.618 -1.17557 4
      vertex 151.902 -0.618034 0
      vertex 151.902 -0.618034 4
    endloop
  endfacet
  facet normal 0.891057 -0.453891 0
    outer loop
      vertex 151.902 -0.618034 0
      vertex 151.618 -1.17557 4
      vertex 151.618 -1.17557 0
    endloop
  endfacet
  facet normal 0 1 -0
    outer loop
      vertex 147.995 114 0
      vertex 66 114 4
      vertex 147.995 114 4
    endloop
  endfacet
  facet normal 0 1 0
    outer loop
      vertex 66 114 4
      vertex 147.995 114 0
      vertex 66 114 0
    endloop
  endfacet
  facet normal 0 -1 0
    outer loop
      vertex 66 -2 0
      vertex 149.995 -2 4
      vertex 66 -2 4
    endloop
  endfacet
  facet normal 0 -1 -0
    outer loop
      vertex 149.995 -2 4
      vertex 66 -2 0
      vertex 149.995 -2 0
    endloop
  endfacet
  facet normal 1 -0 0
    outer loop
      vertex 152 0.00499916 4
      vertex 152 109.995 0
      vertex 152 109.995 4
    endloop
  endfacet
  facet normal 1 0 0
    outer loop
      vertex 152 109.995 0
      vertex 152 0.00499916 4
      vertex 152 0.00499916 0
    endloop
  endfacet
  facet normal -1 0 0
    outer loop
      vertex 66 112 0
      vertex 66 114 4
      vertex 66 114 0
    endloop
  endfacet
  facet normal -1 -0 0
    outer loop
      vertex 66 114 4
      vertex 66 112 0
      vertex 66 112 4
    endloop
  endfacet
  facet normal 0 -1 0
    outer loop
      vertex 66 112 0
      vertex 150 112 4
      vertex 66 112 4
    endloop
  endfacet
  facet normal 0 -1 -0
    outer loop
      vertex 150 112 4
      vertex 66 112 0
      vertex 150 112 0
    endloop
  endfacet
  facet normal 3.4451e-16 1 -0
    outer loop
      vertex 150 -4.35937e-14 0
      vertex 66 -1.46549e-14 4
      vertex 150 -4.35937e-14 4
    endloop
  endfacet
  facet normal 3.4451e-16 1 0
    outer loop
      vertex 66 -1.46549e-14 4
      vertex 150 -4.35937e-14 0
      vertex 66 -1.46549e-14 0
    endloop
  endfacet
  facet normal -1 0 0
    outer loop
      vertex 150 -4.35937e-14 0
      vertex 150 112 4
      vertex 150 112 0
    endloop
  endfacet
  facet normal -1 -0 0
    outer loop
      vertex 150 112 4
      vertex 150 -4.35937e-14 0
      vertex 150 -4.35937e-14 4
    endloop
  endfacet
endsolid OpenSCAD_Model
