solid OpenSCAD_Model
  facet normal -1 0 0
    outer loop
      vertex -82.995 -3 -3
      vertex -82.995 -2.99921 0
      vertex -82.995 -2.99921 -3
    endloop
  endfacet
  facet normal -1 -0 0
    outer loop
      vertex -82.995 -2.99921 0
      vertex -82.995 -3 -3
      vertex -82.995 -3 0
    endloop
  endfacet
  facet normal 0 -1 0
    outer loop
      vertex -87 1.005 -3
      vertex -86.9992 1.005 0
      vertex -87 1.005 0
    endloop
  endfacet
  facet normal 0 -1 -0
    outer loop
      vertex -86.9992 1.005 0
      vertex -87 1.005 -3
      vertex -86.9992 1.005 -3
    endloop
  endfacet
  facet normal -0.987441 0.157991 0
    outer loop
      vertex -87 1 -3
      vertex -86.9992 1.005 0
      vertex -86.9992 1.005 -3
    endloop
  endfacet
  facet normal -0.987441 0.157991 0
    outer loop
      vertex -86.9992 1.005 0
      vertex -87 1 -3
      vertex -87 1 0
    endloop
  endfacet
  facet normal -0.156427 -0.987689 0
    outer loop
      vertex -84.2361 -2.80423 -3
      vertex -83 -3 0
      vertex -84.2361 -2.80423 0
    endloop
  endfacet
  facet normal -0.156427 -0.987689 -0
    outer loop
      vertex -83 -3 0
      vertex -84.2361 -2.80423 -3
      vertex -83 -3 -3
    endloop
  endfacet
  facet normal -0.891025 -0.453954 0
    outer loop
      vertex -86.2361 -1.35114 -3
      vertex -86.8042 -0.236069 0
      vertex -86.8042 -0.236069 -3
    endloop
  endfacet
  facet normal -0.891025 -0.453954 0
    outer loop
      vertex -86.8042 -0.236069 0
      vertex -86.2361 -1.35114 -3
      vertex -86.2361 -1.35114 0
    endloop
  endfacet
  facet normal -0.987685 -0.156455 0
    outer loop
      vertex -86.8042 -0.236069 -3
      vertex -87 1 0
      vertex -87 1 -3
    endloop
  endfacet
  facet normal -0.987685 -0.156455 0
    outer loop
      vertex -87 1 0
      vertex -86.8042 -0.236069 -3
      vertex -86.8042 -0.236069 0
    endloop
  endfacet
  facet normal 0.156064 -0.987747 0
    outer loop
      vertex -83 -3 -3
      vertex -82.995 -2.99921 0
      vertex -83 -3 0
    endloop
  endfacet
  facet normal 0.156064 -0.987747 0
    outer loop
      vertex -82.995 -2.99921 0
      vertex -83 -3 -3
      vertex -82.995 -2.99921 -3
    endloop
  endfacet
  facet normal -0.707079 -0.707135 0
    outer loop
      vertex -85.3511 -2.23607 -3
      vertex -86.2361 -1.35114 0
      vertex -86.2361 -1.35114 -3
    endloop
  endfacet
  facet normal -0.707079 -0.707135 0
    outer loop
      vertex -86.2361 -1.35114 0
      vertex -85.3511 -2.23607 -3
      vertex -85.3511 -2.23607 0
    endloop
  endfacet
  facet normal -0.454015 -0.890994 0
    outer loop
      vertex -85.3511 -2.23607 -3
      vertex -84.2361 -2.80423 0
      vertex -85.3511 -2.23607 0
    endloop
  endfacet
  facet normal -0.454015 -0.890994 -0
    outer loop
      vertex -84.2361 -2.80423 0
      vertex -85.3511 -2.23607 -3
      vertex -84.2361 -2.80423 -3
    endloop
  endfacet
  facet normal 0 1 -0
    outer loop
      vertex -86.9992 110.995 -3
      vertex -87 110.995 0
      vertex -86.9992 110.995 0
    endloop
  endfacet
  facet normal 0 1 0
    outer loop
      vertex -87 110.995 0
      vertex -86.9992 110.995 -3
      vertex -87 110.995 -3
    endloop
  endfacet
  facet normal -1 0 0
    outer loop
      vertex -82.995 114.999 -3
      vertex -82.995 115 0
      vertex -82.995 115 -3
    endloop
  endfacet
  facet normal -1 -0 0
    outer loop
      vertex -82.995 115 0
      vertex -82.995 114.999 -3
      vertex -82.995 114.999 0
    endloop
  endfacet
  facet normal 0.196116 0.980581 -0
    outer loop
      vertex -82.995 114.999 -3
      vertex -83 115 0
      vertex -82.995 114.999 0
    endloop
  endfacet
  facet normal 0.196116 0.980581 0
    outer loop
      vertex -83 115 0
      vertex -82.995 114.999 -3
      vertex -83 115 -3
    endloop
  endfacet
  facet normal -0.987684 0.156463 0
    outer loop
      vertex -87 111 -3
      vertex -86.8042 112.236 0
      vertex -86.8042 112.236 -3
    endloop
  endfacet
  facet normal -0.987684 0.156463 0
    outer loop
      vertex -86.8042 112.236 0
      vertex -87 111 -3
      vertex -87 111 0
    endloop
  endfacet
  facet normal -0.453914 0.891046 0
    outer loop
      vertex -84.2361 114.804 -3
      vertex -85.3511 114.236 0
      vertex -84.2361 114.804 0
    endloop
  endfacet
  facet normal -0.453914 0.891046 0
    outer loop
      vertex -85.3511 114.236 0
      vertex -84.2361 114.804 -3
      vertex -85.3511 114.236 -3
    endloop
  endfacet
  facet normal -0.156607 0.987661 0
    outer loop
      vertex -83 115 -3
      vertex -84.2361 114.804 0
      vertex -83 115 0
    endloop
  endfacet
  facet normal -0.156607 0.987661 0
    outer loop
      vertex -84.2361 114.804 0
      vertex -83 115 -3
      vertex -84.2361 114.804 -3
    endloop
  endfacet
  facet normal -0.987441 -0.157991 0
    outer loop
      vertex -86.9992 110.995 -3
      vertex -87 111 0
      vertex -87 111 -3
    endloop
  endfacet
  facet normal -0.987441 -0.157991 0
    outer loop
      vertex -87 111 0
      vertex -86.9992 110.995 -3
      vertex -86.9992 110.995 0
    endloop
  endfacet
  facet normal -0.707107 0.707107 0
    outer loop
      vertex -86.2361 113.351 -3
      vertex -85.3511 114.236 0
      vertex -85.3511 114.236 -3
    endloop
  endfacet
  facet normal -0.707107 0.707107 0
    outer loop
      vertex -85.3511 114.236 0
      vertex -86.2361 113.351 -3
      vertex -86.2361 113.351 0
    endloop
  endfacet
  facet normal -0.891013 0.453977 0
    outer loop
      vertex -86.8042 112.236 -3
      vertex -86.2361 113.351 0
      vertex -86.2361 113.351 -3
    endloop
  endfacet
  facet normal -0.891013 0.453977 0
    outer loop
      vertex -86.2361 113.351 0
      vertex -86.8042 112.236 -3
      vertex -86.8042 112.236 0
    endloop
  endfacet
  facet normal 0 -1 0
    outer loop
      vertex -82.995 -3 -3
      vertex -6.66134e-16 -3 0
      vertex -82.995 -3 0
    endloop
  endfacet
  facet normal 0 -1 -0
    outer loop
      vertex -6.66134e-16 -3 0
      vertex -82.995 -3 -3
      vertex -6.66134e-16 -3 -3
    endloop
  endfacet
  facet normal -0 0 1
    outer loop
      vertex -87 110.995 0
      vertex -86.9992 1.005 0
      vertex -86.9992 110.995 0
    endloop
  endfacet
  facet normal 0 0 1
    outer loop
      vertex -86.9992 1.005 0
      vertex -87 110.995 0
      vertex -87 1.005 0
    endloop
  endfacet
  facet normal 0 0 1
    outer loop
      vertex -84.2361 114.804 0
      vertex -82.995 114.999 0
      vertex -83 115 0
    endloop
  endfacet
  facet normal 0 0 1
    outer loop
      vertex -82.995 114.999 0
      vertex -86.9992 110.995 0
      vertex -82.995 -2.99921 0
    endloop
  endfacet
  facet normal 0 0 1
    outer loop
      vertex -82.995 114.999 0
      vertex -84.2361 114.804 0
      vertex -86.9992 110.995 0
    endloop
  endfacet
  facet normal -0 0 1
    outer loop
      vertex -86.9992 1.005 0
      vertex -82.995 -2.99921 0
      vertex -86.9992 110.995 0
    endloop
  endfacet
  facet normal 0 0 1
    outer loop
      vertex -86.9992 110.995 0
      vertex -84.2361 114.804 0
      vertex -85.3511 114.236 0
    endloop
  endfacet
  facet normal -0 -0 1
    outer loop
      vertex -84.2361 -2.80423 0
      vertex -82.995 -2.99921 0
      vertex -86.9992 1.005 0
    endloop
  endfacet
  facet normal 0 0 1
    outer loop
      vertex -86.9992 110.995 0
      vertex -85.3511 114.236 0
      vertex -86.2361 113.351 0
    endloop
  endfacet
  facet normal 0 0 1
    outer loop
      vertex -82.995 -2.99921 0
      vertex -84.2361 -2.80423 0
      vertex -83 -3 0
    endloop
  endfacet
  facet normal 0 0 1
    outer loop
      vertex -86.9992 110.995 0
      vertex -86.2361 113.351 0
      vertex -86.8042 112.236 0
    endloop
  endfacet
  facet normal 0 0 1
    outer loop
      vertex -84.2361 -2.80423 0
      vertex -86.9992 1.005 0
      vertex -85.3511 -2.23607 0
    endloop
  endfacet
  facet normal 0 0 1
    outer loop
      vertex -85.3511 -2.23607 0
      vertex -86.9992 1.005 0
      vertex -86.2361 -1.35114 0
    endloop
  endfacet
  facet normal 0 -0 1
    outer loop
      vertex -86.9992 110.995 0
      vertex -86.8042 112.236 0
      vertex -87 111 0
    endloop
  endfacet
  facet normal 0 0 1
    outer loop
      vertex -82.995 114.999 0
      vertex 2.55351e-14 115 0
      vertex -82.995 115 0
    endloop
  endfacet
  facet normal 0 0 1
    outer loop
      vertex 2.55351e-14 115 0
      vertex -82.995 114.999 0
      vertex -6.66134e-16 -3 0
    endloop
  endfacet
  facet normal -0 0 1
    outer loop
      vertex -82.995 -2.99921 0
      vertex -6.66134e-16 -3 0
      vertex -82.995 114.999 0
    endloop
  endfacet
  facet normal 0 0 1
    outer loop
      vertex -6.66134e-16 -3 0
      vertex -82.995 -2.99921 0
      vertex -82.995 -3 0
    endloop
  endfacet
  facet normal 0 0 1
    outer loop
      vertex -86.2361 -1.35114 0
      vertex -86.9992 1.005 0
      vertex -86.8042 -0.236069 0
    endloop
  endfacet
  facet normal 0 0 1
    outer loop
      vertex -86.8042 -0.236069 0
      vertex -86.9992 1.005 0
      vertex -87 1 0
    endloop
  endfacet
  facet normal 0 1 -0
    outer loop
      vertex 2.55351e-14 115 -3
      vertex -82.995 115 0
      vertex 2.55351e-14 115 0
    endloop
  endfacet
  facet normal 0 1 0
    outer loop
      vertex -82.995 115 0
      vertex 2.55351e-14 115 -3
      vertex -82.995 115 -3
    endloop
  endfacet
  facet normal -1 0 0
    outer loop
      vertex -87 1.005 -3
      vertex -87 110.995 0
      vertex -87 110.995 -3
    endloop
  endfacet
  facet normal -1 -0 0
    outer loop
      vertex -87 110.995 0
      vertex -87 1.005 -3
      vertex -87 1.005 0
    endloop
  endfacet
  facet normal 0 0 -1
    outer loop
      vertex -87 1.005 -3
      vertex -86.9992 110.995 -3
      vertex -86.9992 1.005 -3
    endloop
  endfacet
  facet normal -0 0 -1
    outer loop
      vertex -86.9992 110.995 -3
      vertex -87 1.005 -3
      vertex -87 110.995 -3
    endloop
  endfacet
  facet normal 0 0 -1
    outer loop
      vertex -84.2361 -2.80423 -3
      vertex -82.995 -2.99921 -3
      vertex -83 -3 -3
    endloop
  endfacet
  facet normal 0 0 -1
    outer loop
      vertex -82.995 -2.99921 -3
      vertex -86.9992 1.005 -3
      vertex -82.995 114.999 -3
    endloop
  endfacet
  facet normal 0 0 -1
    outer loop
      vertex -82.995 -2.99921 -3
      vertex -84.2361 -2.80423 -3
      vertex -86.9992 1.005 -3
    endloop
  endfacet
  facet normal 0 0 -1
    outer loop
      vertex -86.9992 110.995 -3
      vertex -82.995 114.999 -3
      vertex -86.9992 1.005 -3
    endloop
  endfacet
  facet normal 0 0 -1
    outer loop
      vertex -86.9992 1.005 -3
      vertex -84.2361 -2.80423 -3
      vertex -85.3511 -2.23607 -3
    endloop
  endfacet
  facet normal 0 -0 -1
    outer loop
      vertex -84.2361 114.804 -3
      vertex -82.995 114.999 -3
      vertex -86.9992 110.995 -3
    endloop
  endfacet
  facet normal 0 0 -1
    outer loop
      vertex -86.9992 1.005 -3
      vertex -85.3511 -2.23607 -3
      vertex -86.2361 -1.35114 -3
    endloop
  endfacet
  facet normal -0 0 -1
    outer loop
      vertex -82.995 114.999 -3
      vertex -84.2361 114.804 -3
      vertex -83 115 -3
    endloop
  endfacet
  facet normal 0 0 -1
    outer loop
      vertex -86.9992 1.005 -3
      vertex -86.2361 -1.35114 -3
      vertex -86.8042 -0.236069 -3
    endloop
  endfacet
  facet normal 0 0 -1
    outer loop
      vertex -84.2361 114.804 -3
      vertex -86.9992 110.995 -3
      vertex -85.3511 114.236 -3
    endloop
  endfacet
  facet normal 0 0 -1
    outer loop
      vertex -85.3511 114.236 -3
      vertex -86.9992 110.995 -3
      vertex -86.2361 113.351 -3
    endloop
  endfacet
  facet normal 0 -0 -1
    outer loop
      vertex -86.9992 1.005 -3
      vertex -86.8042 -0.236069 -3
      vertex -87 1 -3
    endloop
  endfacet
  facet normal 0 0 -1
    outer loop
      vertex -82.995 -2.99921 -3
      vertex -6.66134e-16 -3 -3
      vertex -82.995 -3 -3
    endloop
  endfacet
  facet normal 0 0 -1
    outer loop
      vertex -6.66134e-16 -3 -3
      vertex -82.995 -2.99921 -3
      vertex 2.55351e-14 115 -3
    endloop
  endfacet
  facet normal 0 0 -1
    outer loop
      vertex -82.995 114.999 -3
      vertex 2.55351e-14 115 -3
      vertex -82.995 -2.99921 -3
    endloop
  endfacet
  facet normal -0 0 -1
    outer loop
      vertex 2.55351e-14 115 -3
      vertex -82.995 114.999 -3
      vertex -82.995 115 -3
    endloop
  endfacet
  facet normal 0 0 -1
    outer loop
      vertex -86.2361 113.351 -3
      vertex -86.9992 110.995 -3
      vertex -86.8042 112.236 -3
    endloop
  endfacet
  facet normal 0 0 -1
    outer loop
      vertex -86.8042 112.236 -3
      vertex -86.9992 110.995 -3
      vertex -87 111 -3
    endloop
  endfacet
  facet normal 1 -2.22044e-16 0
    outer loop
      vertex -6.66134e-16 -3 0
      vertex 2.55351e-14 115 -3
      vertex 2.55351e-14 115 0
    endloop
  endfacet
  facet normal 1 -2.22044e-16 0
    outer loop
      vertex 2.55351e-14 115 -3
      vertex -6.66134e-16 -3 0
      vertex -6.66134e-16 -3 -3
    endloop
  endfacet
  facet normal 0 -1 0
    outer loop
      vertex 162.999 1.005 -3
      vertex 163 1.005 0
      vertex 162.999 1.005 0
    endloop
  endfacet
  facet normal 0 -1 -0
    outer loop
      vertex 163 1.005 0
      vertex 162.999 1.005 -3
      vertex 163 1.005 -3
    endloop
  endfacet
  facet normal 1 -0 0
    outer loop
      vertex 158.995 -3 0
      vertex 158.995 -2.99921 -3
      vertex 158.995 -2.99921 0
    endloop
  endfacet
  facet normal 1 0 0
    outer loop
      vertex 158.995 -2.99921 -3
      vertex 158.995 -3 0
      vertex 158.995 -3 -3
    endloop
  endfacet
  facet normal -0.156064 -0.987747 0
    outer loop
      vertex 158.995 -2.99921 -3
      vertex 159 -3 0
      vertex 158.995 -2.99921 0
    endloop
  endfacet
  facet normal -0.156064 -0.987747 -0
    outer loop
      vertex 159 -3 0
      vertex 158.995 -2.99921 -3
      vertex 159 -3 -3
    endloop
  endfacet
  facet normal 0.98766 -0.156611 0
    outer loop
      vertex 162.804 -0.236069 0
      vertex 163 0.999999 -3
      vertex 163 0.999999 0
    endloop
  endfacet
  facet normal 0.98766 -0.156611 0
    outer loop
      vertex 163 0.999999 -3
      vertex 162.804 -0.236069 0
      vertex 162.804 -0.236069 -3
    endloop
  endfacet
  facet normal 0.454015 -0.890994 0
    outer loop
      vertex 160.236 -2.80423 -3
      vertex 161.351 -2.23607 0
      vertex 160.236 -2.80423 0
    endloop
  endfacet
  facet normal 0.454015 -0.890994 0
    outer loop
      vertex 161.351 -2.23607 0
      vertex 160.236 -2.80423 -3
      vertex 161.351 -2.23607 -3
    endloop
  endfacet
  facet normal 0.15644 -0.987687 0
    outer loop
      vertex 159 -3 -3
      vertex 160.236 -2.80423 0
      vertex 159 -3 0
    endloop
  endfacet
  facet normal 0.15644 -0.987687 0
    outer loop
      vertex 160.236 -2.80423 0
      vertex 159 -3 -3
      vertex 160.236 -2.80423 -3
    endloop
  endfacet
  facet normal 0.980588 0.196078 0
    outer loop
      vertex 163 0.999999 0
      vertex 162.999 1.005 -3
      vertex 162.999 1.005 0
    endloop
  endfacet
  facet normal 0.980588 0.196078 0
    outer loop
      vertex 162.999 1.005 -3
      vertex 163 0.999999 0
      vertex 163 0.999999 -3
    endloop
  endfacet
  facet normal 0.707079 -0.707135 0
    outer loop
      vertex 161.351 -2.23607 -3
      vertex 162.236 -1.35114 0
      vertex 161.351 -2.23607 0
    endloop
  endfacet
  facet normal 0.707079 -0.707135 0
    outer loop
      vertex 162.236 -1.35114 0
      vertex 161.351 -2.23607 -3
      vertex 162.236 -1.35114 -3
    endloop
  endfacet
  facet normal 0.891057 -0.453891 0
    outer loop
      vertex 162.236 -1.35114 0
      vertex 162.804 -0.236069 -3
      vertex 162.804 -0.236069 0
    endloop
  endfacet
  facet normal 0.891057 -0.453891 0
    outer loop
      vertex 162.804 -0.236069 -3
      vertex 162.236 -1.35114 0
      vertex 162.236 -1.35114 -3
    endloop
  endfacet
  facet normal 1 -0 0
    outer loop
      vertex 158.995 114.999 0
      vertex 158.995 115 -3
      vertex 158.995 115 0
    endloop
  endfacet
  facet normal 1 0 0
    outer loop
      vertex 158.995 115 -3
      vertex 158.995 114.999 0
      vertex 158.995 114.999 -3
    endloop
  endfacet
  facet normal 0 1 -0
    outer loop
      vertex 163 110.995 -3
      vertex 162.999 110.995 0
      vertex 163 110.995 0
    endloop
  endfacet
  facet normal 0 1 0
    outer loop
      vertex 162.999 110.995 0
      vertex 163 110.995 -3
      vertex 162.999 110.995 -3
    endloop
  endfacet
  facet normal 0.980581 -0.196116 0
    outer loop
      vertex 162.999 110.995 0
      vertex 163 111 -3
      vertex 163 111 0
    endloop
  endfacet
  facet normal 0.980581 -0.196116 0
    outer loop
      vertex 163 111 -3
      vertex 162.999 110.995 0
      vertex 162.999 110.995 -3
    endloop
  endfacet
  facet normal 0.156619 0.987659 -0
    outer loop
      vertex 160.236 114.804 -3
      vertex 159 115 0
      vertex 160.236 114.804 0
    endloop
  endfacet
  facet normal 0.156619 0.987659 0
    outer loop
      vertex 159 115 0
      vertex 160.236 114.804 -3
      vertex 159 115 -3
    endloop
  endfacet
  facet normal 0.891046 0.453914 0
    outer loop
      vertex 162.804 112.236 0
      vertex 162.236 113.351 -3
      vertex 162.236 113.351 0
    endloop
  endfacet
  facet normal 0.891046 0.453914 0
    outer loop
      vertex 162.236 113.351 -3
      vertex 162.804 112.236 0
      vertex 162.804 112.236 -3
    endloop
  endfacet
  facet normal 0.987659 0.156619 0
    outer loop
      vertex 163 111 0
      vertex 162.804 112.236 -3
      vertex 162.804 112.236 0
    endloop
  endfacet
  facet normal 0.987659 0.156619 0
    outer loop
      vertex 162.804 112.236 -3
      vertex 163 111 0
      vertex 163 111 -3
    endloop
  endfacet
  facet normal -0.196116 0.980581 0
    outer loop
      vertex 159 115 -3
      vertex 158.995 114.999 0
      vertex 159 115 0
    endloop
  endfacet
  facet normal -0.196116 0.980581 0
    outer loop
      vertex 158.995 114.999 0
      vertex 159 115 -3
      vertex 158.995 114.999 -3
    endloop
  endfacet
  facet normal 0.707107 0.707107 -0
    outer loop
      vertex 162.236 113.351 -3
      vertex 161.351 114.236 0
      vertex 162.236 113.351 0
    endloop
  endfacet
  facet normal 0.707107 0.707107 0
    outer loop
      vertex 161.351 114.236 0
      vertex 162.236 113.351 -3
      vertex 161.351 114.236 -3
    endloop
  endfacet
  facet normal 0.453914 0.891046 -0
    outer loop
      vertex 161.351 114.236 -3
      vertex 160.236 114.804 0
      vertex 161.351 114.236 0
    endloop
  endfacet
  facet normal 0.453914 0.891046 0
    outer loop
      vertex 160.236 114.804 0
      vertex 161.351 114.236 -3
      vertex 160.236 114.804 -3
    endloop
  endfacet
  facet normal 0 -1 0
    outer loop
      vertex 76 -3 -3
      vertex 158.995 -3 0
      vertex 76 -3 0
    endloop
  endfacet
  facet normal 0 -1 -0
    outer loop
      vertex 158.995 -3 0
      vertex 76 -3 -3
      vertex 158.995 -3 -3
    endloop
  endfacet
  facet normal 0 0 1
    outer loop
      vertex 158.995 114.999 0
      vertex 162.999 110.995 0
      vertex 162.804 112.236 0
    endloop
  endfacet
  facet normal 0 0 1
    outer loop
      vertex 162.804 112.236 0
      vertex 162.999 110.995 0
      vertex 163 111 0
    endloop
  endfacet
  facet normal -0 0 1
    outer loop
      vertex 162.999 110.995 0
      vertex 163 1.005 0
      vertex 163 110.995 0
    endloop
  endfacet
  facet normal 0 0 1
    outer loop
      vertex 163 1.005 0
      vertex 162.999 110.995 0
      vertex 162.999 1.005 0
    endloop
  endfacet
  facet normal 0 0 1
    outer loop
      vertex 162.999 1.005 0
      vertex 162.804 -0.236069 0
      vertex 163 0.999999 0
    endloop
  endfacet
  facet normal 0 0 1
    outer loop
      vertex 76 115 0
      vertex 162.999 110.995 0
      vertex 158.995 114.999 0
    endloop
  endfacet
  facet normal 0 0 1
    outer loop
      vertex 158.995 114.999 0
      vertex 162.804 112.236 0
      vertex 162.236 113.351 0
    endloop
  endfacet
  facet normal 0 0 1
    outer loop
      vertex 162.999 110.995 0
      vertex 76 115 0
      vertex 162.999 1.005 0
    endloop
  endfacet
  facet normal 0 0 1
    outer loop
      vertex 158.995 114.999 0
      vertex 162.236 113.351 0
      vertex 161.351 114.236 0
    endloop
  endfacet
  facet normal 0 0 1
    outer loop
      vertex 162.999 1.005 0
      vertex 158.995 -2.99921 0
      vertex 162.804 -0.236069 0
    endloop
  endfacet
  facet normal 0 0 1
    outer loop
      vertex 158.995 114.999 0
      vertex 161.351 114.236 0
      vertex 160.236 114.804 0
    endloop
  endfacet
  facet normal 0 0 1
    outer loop
      vertex 162.804 -0.236069 0
      vertex 158.995 -2.99921 0
      vertex 162.236 -1.35114 0
    endloop
  endfacet
  facet normal -0 0 1
    outer loop
      vertex 158.995 114.999 0
      vertex 160.236 114.804 0
      vertex 159 115 0
    endloop
  endfacet
  facet normal 0 0 1
    outer loop
      vertex 162.236 -1.35114 0
      vertex 158.995 -2.99921 0
      vertex 161.351 -2.23607 0
    endloop
  endfacet
  facet normal 0 0 1
    outer loop
      vertex 161.351 -2.23607 0
      vertex 158.995 -2.99921 0
      vertex 160.236 -2.80423 0
    endloop
  endfacet
  facet normal 0 0 1
    outer loop
      vertex 160.236 -2.80423 0
      vertex 158.995 -2.99921 0
      vertex 159 -3 0
    endloop
  endfacet
  facet normal -0 0 1
    outer loop
      vertex 76 115 0
      vertex 158.995 114.999 0
      vertex 158.995 115 0
    endloop
  endfacet
  facet normal 0 0 1
    outer loop
      vertex 76 -3 0
      vertex 162.999 1.005 0
      vertex 76 115 0
    endloop
  endfacet
  facet normal 0 0 1
    outer loop
      vertex 162.999 1.005 0
      vertex 76 -3 0
      vertex 158.995 -2.99921 0
    endloop
  endfacet
  facet normal 0 0 1
    outer loop
      vertex 158.995 -2.99921 0
      vertex 76 -3 0
      vertex 158.995 -3 0
    endloop
  endfacet
  facet normal 0 1 -0
    outer loop
      vertex 158.995 115 -3
      vertex 76 115 0
      vertex 158.995 115 0
    endloop
  endfacet
  facet normal 0 1 0
    outer loop
      vertex 76 115 0
      vertex 158.995 115 -3
      vertex 76 115 -3
    endloop
  endfacet
  facet normal -1 0 0
    outer loop
      vertex 76 -3 -3
      vertex 76 115 0
      vertex 76 115 -3
    endloop
  endfacet
  facet normal -1 -0 0
    outer loop
      vertex 76 115 0
      vertex 76 -3 -3
      vertex 76 -3 0
    endloop
  endfacet
  facet normal 0 0 -1
    outer loop
      vertex 158.995 -2.99921 -3
      vertex 162.999 1.005 -3
      vertex 162.804 -0.236069 -3
    endloop
  endfacet
  facet normal 0 0 -1
    outer loop
      vertex 162.804 -0.236069 -3
      vertex 162.999 1.005 -3
      vertex 163 0.999999 -3
    endloop
  endfacet
  facet normal 0 0 -1
    outer loop
      vertex 162.999 1.005 -3
      vertex 163 110.995 -3
      vertex 163 1.005 -3
    endloop
  endfacet
  facet normal -0 0 -1
    outer loop
      vertex 163 110.995 -3
      vertex 162.999 1.005 -3
      vertex 162.999 110.995 -3
    endloop
  endfacet
  facet normal 0 0 -1
    outer loop
      vertex 162.999 110.995 -3
      vertex 162.804 112.236 -3
      vertex 163 111 -3
    endloop
  endfacet
  facet normal 0 0 -1
    outer loop
      vertex 76 -3 -3
      vertex 162.999 1.005 -3
      vertex 158.995 -2.99921 -3
    endloop
  endfacet
  facet normal 0 0 -1
    outer loop
      vertex 158.995 -2.99921 -3
      vertex 162.804 -0.236069 -3
      vertex 162.236 -1.35114 -3
    endloop
  endfacet
  facet normal -0 0 -1
    outer loop
      vertex 162.999 1.005 -3
      vertex 76 -3 -3
      vertex 162.999 110.995 -3
    endloop
  endfacet
  facet normal 0 0 -1
    outer loop
      vertex 158.995 -2.99921 -3
      vertex 162.236 -1.35114 -3
      vertex 161.351 -2.23607 -3
    endloop
  endfacet
  facet normal 0 0 -1
    outer loop
      vertex 162.999 110.995 -3
      vertex 158.995 114.999 -3
      vertex 162.804 112.236 -3
    endloop
  endfacet
  facet normal 0 0 -1
    outer loop
      vertex 158.995 -2.99921 -3
      vertex 161.351 -2.23607 -3
      vertex 160.236 -2.80423 -3
    endloop
  endfacet
  facet normal 0 0 -1
    outer loop
      vertex 162.804 112.236 -3
      vertex 158.995 114.999 -3
      vertex 162.236 113.351 -3
    endloop
  endfacet
  facet normal 0 0 -1
    outer loop
      vertex 158.995 -2.99921 -3
      vertex 160.236 -2.80423 -3
      vertex 159 -3 -3
    endloop
  endfacet
  facet normal 0 0 -1
    outer loop
      vertex 162.236 113.351 -3
      vertex 158.995 114.999 -3
      vertex 161.351 114.236 -3
    endloop
  endfacet
  facet normal 0 0 -1
    outer loop
      vertex 161.351 114.236 -3
      vertex 158.995 114.999 -3
      vertex 160.236 114.804 -3
    endloop
  endfacet
  facet normal 0 0 -1
    outer loop
      vertex 160.236 114.804 -3
      vertex 158.995 114.999 -3
      vertex 159 115 -3
    endloop
  endfacet
  facet normal 0 0 -1
    outer loop
      vertex 76 -3 -3
      vertex 158.995 -2.99921 -3
      vertex 158.995 -3 -3
    endloop
  endfacet
  facet normal 0 0 -1
    outer loop
      vertex 76 115 -3
      vertex 162.999 110.995 -3
      vertex 76 -3 -3
    endloop
  endfacet
  facet normal 0 0 -1
    outer loop
      vertex 162.999 110.995 -3
      vertex 76 115 -3
      vertex 158.995 114.999 -3
    endloop
  endfacet
  facet normal 0 0 -1
    outer loop
      vertex 158.995 114.999 -3
      vertex 76 115 -3
      vertex 158.995 115 -3
    endloop
  endfacet
  facet normal 1 -0 0
    outer loop
      vertex 163 1.005 0
      vertex 163 110.995 -3
      vertex 163 110.995 0
    endloop
  endfacet
  facet normal 1 0 0
    outer loop
      vertex 163 110.995 -3
      vertex 163 1.005 0
      vertex 163 1.005 -3
    endloop
  endfacet
  facet normal 0 -1 0
    outer loop
      vertex 5 -3 -3
      vertex 71 -3 0
      vertex 5 -3 0
    endloop
  endfacet
  facet normal 0 -1 -0
    outer loop
      vertex 71 -3 0
      vertex 5 -3 -3
      vertex 71 -3 -3
    endloop
  endfacet
  facet normal -0 0 1
    outer loop
      vertex 5 115 0
      vertex 71 -3 0
      vertex 71 115 0
    endloop
  endfacet
  facet normal 0 0 1
    outer loop
      vertex 71 -3 0
      vertex 5 115 0
      vertex 5 -3 0
    endloop
  endfacet
  facet normal 0 1 -0
    outer loop
      vertex 71 115 -3
      vertex 5 115 0
      vertex 71 115 0
    endloop
  endfacet
  facet normal 0 1 0
    outer loop
      vertex 5 115 0
      vertex 71 115 -3
      vertex 5 115 -3
    endloop
  endfacet
  facet normal -1 0 0
    outer loop
      vertex 5 -3 -3
      vertex 5 115 0
      vertex 5 115 -3
    endloop
  endfacet
  facet normal -1 -0 0
    outer loop
      vertex 5 115 0
      vertex 5 -3 -3
      vertex 5 -3 0
    endloop
  endfacet
  facet normal 0 0 -1
    outer loop
      vertex 5 -3 -3
      vertex 71 115 -3
      vertex 71 -3 -3
    endloop
  endfacet
  facet normal -0 0 -1
    outer loop
      vertex 71 115 -3
      vertex 5 -3 -3
      vertex 5 115 -3
    endloop
  endfacet
  facet normal 1 -0 0
    outer loop
      vertex 71 -3 0
      vertex 71 115 -3
      vertex 71 115 0
    endloop
  endfacet
  facet normal 1 0 0
    outer loop
      vertex 71 115 -3
      vertex 71 -3 0
      vertex 71 -3 -3
    endloop
  endfacet
endsolid OpenSCAD_Model
