solid OpenSCAD_Model
  facet normal 0 1 -0
    outer loop
      vertex -1.99921 81.995 0
      vertex -2 81.995 4
      vertex -1.99921 81.995 4
    endloop
  endfacet
  facet normal 0 1 0
    outer loop
      vertex -2 81.995 4
      vertex -1.99921 81.995 0
      vertex -2 81.995 0
    endloop
  endfacet
  facet normal -1 0 0
    outer loop
      vertex 2.005 85.9992 0
      vertex 2.005 86 4
      vertex 2.005 86 0
    endloop
  endfacet
  facet normal -1 -0 0
    outer loop
      vertex 2.005 86 4
      vertex 2.005 85.9992 0
      vertex 2.005 85.9992 4
    endloop
  endfacet
  facet normal -0.987747 -0.156064 0
    outer loop
      vertex -1.99921 81.995 0
      vertex -2 82 4
      vertex -2 82 0
    endloop
  endfacet
  facet normal -0.987747 -0.156064 0
    outer loop
      vertex -2 82 4
      vertex -1.99921 81.995 0
      vertex -1.99921 81.995 4
    endloop
  endfacet
  facet normal 0.157991 0.987441 -0
    outer loop
      vertex 2.005 85.9992 0
      vertex 2 86 4
      vertex 2.005 85.9992 4
    endloop
  endfacet
  facet normal 0.157991 0.987441 0
    outer loop
      vertex 2 86 4
      vertex 2.005 85.9992 0
      vertex 2 86 0
    endloop
  endfacet
  facet normal -0.987689 0.156427 0
    outer loop
      vertex -2 82 0
      vertex -1.80423 83.2361 4
      vertex -1.80423 83.2361 0
    endloop
  endfacet
  facet normal -0.987689 0.156427 0
    outer loop
      vertex -1.80423 83.2361 4
      vertex -2 82 0
      vertex -2 82 4
    endloop
  endfacet
  facet normal -0.453954 0.891025 0
    outer loop
      vertex 0.763931 85.8042 0
      vertex -0.351141 85.2361 4
      vertex 0.763931 85.8042 4
    endloop
  endfacet
  facet normal -0.453954 0.891025 0
    outer loop
      vertex -0.351141 85.2361 4
      vertex 0.763931 85.8042 0
      vertex -0.351141 85.2361 0
    endloop
  endfacet
  facet normal -0.156455 0.987685 0
    outer loop
      vertex 2 86 0
      vertex 0.763931 85.8042 4
      vertex 2 86 4
    endloop
  endfacet
  facet normal -0.156455 0.987685 0
    outer loop
      vertex 0.763931 85.8042 4
      vertex 2 86 0
      vertex 0.763931 85.8042 0
    endloop
  endfacet
  facet normal -0.707135 0.707078 0
    outer loop
      vertex -0.351141 85.2361 0
      vertex -1.23607 84.3511 4
      vertex -0.351141 85.2361 4
    endloop
  endfacet
  facet normal -0.707135 0.707078 0
    outer loop
      vertex -1.23607 84.3511 4
      vertex -0.351141 85.2361 0
      vertex -1.23607 84.3511 0
    endloop
  endfacet
  facet normal -0.890994 0.454015 0
    outer loop
      vertex -1.80423 83.2361 0
      vertex -1.23607 84.3511 4
      vertex -1.23607 84.3511 0
    endloop
  endfacet
  facet normal -0.890994 0.454015 0
    outer loop
      vertex -1.23607 84.3511 4
      vertex -1.80423 83.2361 0
      vertex -1.80423 83.2361 4
    endloop
  endfacet
  facet normal 1 -0 0
    outer loop
      vertex 111.995 85.9992 4
      vertex 111.995 86 0
      vertex 111.995 86 4
    endloop
  endfacet
  facet normal 1 0 0
    outer loop
      vertex 111.995 86 0
      vertex 111.995 85.9992 4
      vertex 111.995 85.9992 0
    endloop
  endfacet
  facet normal 0 1 -0
    outer loop
      vertex 114 83.995 0
      vertex 113.999 83.995 4
      vertex 114 83.995 4
    endloop
  endfacet
  facet normal 0 1 0
    outer loop
      vertex 113.999 83.995 4
      vertex 114 83.995 0
      vertex 113.999 83.995 0
    endloop
  endfacet
  facet normal -0.157991 0.987441 0
    outer loop
      vertex 112 86 0
      vertex 111.995 85.9992 4
      vertex 112 86 4
    endloop
  endfacet
  facet normal -0.157991 0.987441 0
    outer loop
      vertex 111.995 85.9992 4
      vertex 112 86 0
      vertex 111.995 85.9992 0
    endloop
  endfacet
  facet normal 0.453718 0.891146 -0
    outer loop
      vertex 113.176 85.618 0
      vertex 112.618 85.9021 4
      vertex 113.176 85.618 4
    endloop
  endfacet
  facet normal 0.453718 0.891146 0
    outer loop
      vertex 112.618 85.9021 4
      vertex 113.176 85.618 0
      vertex 112.618 85.9021 0
    endloop
  endfacet
  facet normal 0.980581 -0.196116 0
    outer loop
      vertex 113.999 83.995 4
      vertex 114 84 0
      vertex 114 84 4
    endloop
  endfacet
  facet normal 0.980581 -0.196116 0
    outer loop
      vertex 114 84 0
      vertex 113.999 83.995 4
      vertex 113.999 83.995 0
    endloop
  endfacet
  facet normal 0.156463 0.987684 -0
    outer loop
      vertex 112.618 85.9021 0
      vertex 112 86 4
      vertex 112.618 85.9021 4
    endloop
  endfacet
  facet normal 0.156463 0.987684 0
    outer loop
      vertex 112 86 4
      vertex 112.618 85.9021 0
      vertex 112 86 0
    endloop
  endfacet
  facet normal 0.891079 0.453849 0
    outer loop
      vertex 113.902 84.618 4
      vertex 113.618 85.1756 0
      vertex 113.618 85.1756 4
    endloop
  endfacet
  facet normal 0.891079 0.453849 0
    outer loop
      vertex 113.618 85.1756 0
      vertex 113.902 84.618 4
      vertex 113.902 84.618 0
    endloop
  endfacet
  facet normal 0.987659 0.156619 0
    outer loop
      vertex 114 84 4
      vertex 113.902 84.618 0
      vertex 113.902 84.618 4
    endloop
  endfacet
  facet normal 0.987659 0.156619 0
    outer loop
      vertex 113.902 84.618 0
      vertex 114 84 4
      vertex 114 84 0
    endloop
  endfacet
  facet normal 0.707427 0.706787 0
    outer loop
      vertex 113.618 85.1756 4
      vertex 113.176 85.618 0
      vertex 113.176 85.618 4
    endloop
  endfacet
  facet normal 0.707427 0.706787 0
    outer loop
      vertex 113.176 85.618 0
      vertex 113.618 85.1756 4
      vertex 113.618 85.1756 0
    endloop
  endfacet
  facet normal -1 0 0
    outer loop
      vertex -2 0 0
      vertex -2 81.995 4
      vertex -2 81.995 0
    endloop
  endfacet
  facet normal -1 -0 0
    outer loop
      vertex -2 81.995 4
      vertex -2 0 0
      vertex -2 0 4
    endloop
  endfacet
  facet normal 0 0 1
    outer loop
      vertex 111.995 86 4
      vertex 2.005 86 4
      vertex 111.995 85.9992 4
    endloop
  endfacet
  facet normal 0 0 1
    outer loop
      vertex 114 84 4
      vertex 113.902 84.618 4
      vertex 113.999 83.995 4
    endloop
  endfacet
  facet normal -0 0 1
    outer loop
      vertex 113.999 83.995 4
      vertex 114 0 4
      vertex 114 83.995 4
    endloop
  endfacet
  facet normal -0 0 1
    outer loop
      vertex 112 84 4
      vertex 113.999 83.995 4
      vertex 113.902 84.618 4
    endloop
  endfacet
  facet normal 0 0 1
    outer loop
      vertex 112 84 4
      vertex 113.902 84.618 4
      vertex 113.618 85.1756 4
    endloop
  endfacet
  facet normal 0 0 1
    outer loop
      vertex 112 84 4
      vertex 113.618 85.1756 4
      vertex 113.176 85.618 4
    endloop
  endfacet
  facet normal 0 0 1
    outer loop
      vertex 112 84 4
      vertex 113.176 85.618 4
      vertex 112.618 85.9021 4
    endloop
  endfacet
  facet normal 0 0 1
    outer loop
      vertex 112 84 4
      vertex 112.618 85.9021 4
      vertex 112 86 4
    endloop
  endfacet
  facet normal 0 0 1
    outer loop
      vertex 113.999 83.995 4
      vertex 112 84 4
      vertex 114 0 4
    endloop
  endfacet
  facet normal 0 0 1
    outer loop
      vertex 114 0 4
      vertex 112 84 4
      vertex 112 0 4
    endloop
  endfacet
  facet normal -0 0 1
    outer loop
      vertex 111.995 85.9992 4
      vertex 112 84 4
      vertex 112 86 4
    endloop
  endfacet
  facet normal 0 0 1
    outer loop
      vertex 2.005 85.9992 4
      vertex 111.995 85.9992 4
      vertex 2.005 86 4
    endloop
  endfacet
  facet normal 0 0 1
    outer loop
      vertex 111.995 85.9992 4
      vertex 2.005 85.9992 4
      vertex 112 84 4
    endloop
  endfacet
  facet normal 0 0 1
    outer loop
      vertex 0 84 4
      vertex 2 86 4
      vertex 0.763931 85.8042 4
    endloop
  endfacet
  facet normal 0 0 1
    outer loop
      vertex 2 86 4
      vertex 0 84 4
      vertex 2.005 85.9992 4
    endloop
  endfacet
  facet normal 0 0 1
    outer loop
      vertex 2.005 85.9992 4
      vertex 0 84 4
      vertex 112 84 4
    endloop
  endfacet
  facet normal -0 0 1
    outer loop
      vertex -0.351141 85.2361 4
      vertex 0 84 4
      vertex 0.763931 85.8042 4
    endloop
  endfacet
  facet normal -0 0 1
    outer loop
      vertex -1.23607 84.3511 4
      vertex 0 84 4
      vertex -0.351141 85.2361 4
    endloop
  endfacet
  facet normal 0 0 1
    outer loop
      vertex -1.80423 83.2361 4
      vertex 0 84 4
      vertex -1.23607 84.3511 4
    endloop
  endfacet
  facet normal 0 0 1
    outer loop
      vertex -2 82 4
      vertex 0 84 4
      vertex -1.80423 83.2361 4
    endloop
  endfacet
  facet normal 0 0 1
    outer loop
      vertex 0 84 4
      vertex -1.99921 81.995 4
      vertex 0 0 4
    endloop
  endfacet
  facet normal 0 0 1
    outer loop
      vertex -2 0 4
      vertex -1.99921 81.995 4
      vertex -2 81.995 4
    endloop
  endfacet
  facet normal 0 0 1
    outer loop
      vertex -1.99921 81.995 4
      vertex -2 0 4
      vertex 0 0 4
    endloop
  endfacet
  facet normal 0 0 1
    outer loop
      vertex 0 84 4
      vertex -2 82 4
      vertex -1.99921 81.995 4
    endloop
  endfacet
  facet normal 1 -0 0
    outer loop
      vertex 114 0 4
      vertex 114 83.995 0
      vertex 114 83.995 4
    endloop
  endfacet
  facet normal 1 0 0
    outer loop
      vertex 114 83.995 0
      vertex 114 0 4
      vertex 114 0 0
    endloop
  endfacet
  facet normal 0 0 -1
    outer loop
      vertex -1.99921 81.995 0
      vertex 0 84 0
      vertex 0 0 0
    endloop
  endfacet
  facet normal 0 0 -1
    outer loop
      vertex -2 82 0
      vertex 0 84 0
      vertex -1.99921 81.995 0
    endloop
  endfacet
  facet normal 0 0 -1
    outer loop
      vertex 0 84 0
      vertex -1.23607 84.3511 0
      vertex -0.351141 85.2361 0
    endloop
  endfacet
  facet normal -0 0 -1
    outer loop
      vertex 0 84 0
      vertex -1.80423 83.2361 0
      vertex -1.23607 84.3511 0
    endloop
  endfacet
  facet normal 0 0 -1
    outer loop
      vertex -2 0 0
      vertex -1.99921 81.995 0
      vertex 0 0 0
    endloop
  endfacet
  facet normal -0 0 -1
    outer loop
      vertex -1.99921 81.995 0
      vertex -2 0 0
      vertex -2 81.995 0
    endloop
  endfacet
  facet normal 0 0 -1
    outer loop
      vertex 114 0 0
      vertex 113.999 83.995 0
      vertex 114 83.995 0
    endloop
  endfacet
  facet normal 0 0 -1
    outer loop
      vertex 112 84 0
      vertex 113.999 83.995 0
      vertex 114 0 0
    endloop
  endfacet
  facet normal 0 0 -1
    outer loop
      vertex 113.999 83.995 0
      vertex 112 84 0
      vertex 113.902 84.618 0
    endloop
  endfacet
  facet normal -0 0 -1
    outer loop
      vertex 113.902 84.618 0
      vertex 112 84 0
      vertex 113.618 85.1756 0
    endloop
  endfacet
  facet normal -0 0 -1
    outer loop
      vertex 113.618 85.1756 0
      vertex 112 84 0
      vertex 113.176 85.618 0
    endloop
  endfacet
  facet normal 0 0 -1
    outer loop
      vertex 112 84 0
      vertex 114 0 0
      vertex 112 0 0
    endloop
  endfacet
  facet normal -0 0 -1
    outer loop
      vertex 113.176 85.618 0
      vertex 112 84 0
      vertex 112.618 85.9021 0
    endloop
  endfacet
  facet normal 0 0 -1
    outer loop
      vertex 112 84 0
      vertex 112 86 0
      vertex 112.618 85.9021 0
    endloop
  endfacet
  facet normal 0 0 -1
    outer loop
      vertex 112 84 0
      vertex 111.995 85.9992 0
      vertex 112 86 0
    endloop
  endfacet
  facet normal 0 0 -1
    outer loop
      vertex 111.995 85.9992 0
      vertex 2.005 85.9992 0
      vertex 111.995 86 0
    endloop
  endfacet
  facet normal 0 0 -1
    outer loop
      vertex 112 84 0
      vertex 2.005 85.9992 0
      vertex 111.995 85.9992 0
    endloop
  endfacet
  facet normal 0 0 -1
    outer loop
      vertex 0 84 0
      vertex 2 86 0
      vertex 2.005 85.9992 0
    endloop
  endfacet
  facet normal 0 0 -1
    outer loop
      vertex 0 84 0
      vertex 2.005 85.9992 0
      vertex 112 84 0
    endloop
  endfacet
  facet normal 0 0 -1
    outer loop
      vertex 2 86 0
      vertex 0 84 0
      vertex 0.763931 85.8042 0
    endloop
  endfacet
  facet normal 0 0 -1
    outer loop
      vertex 0.763931 85.8042 0
      vertex 0 84 0
      vertex -0.351141 85.2361 0
    endloop
  endfacet
  facet normal -0 0 -1
    outer loop
      vertex 114 84 0
      vertex 113.999 83.995 0
      vertex 113.902 84.618 0
    endloop
  endfacet
  facet normal -0 0 -1
    outer loop
      vertex 111.995 86 0
      vertex 2.005 85.9992 0
      vertex 2.005 86 0
    endloop
  endfacet
  facet normal 0 0 -1
    outer loop
      vertex 0 84 0
      vertex -2 82 0
      vertex -1.80423 83.2361 0
    endloop
  endfacet
  facet normal 0 -1 0
    outer loop
      vertex 112 0 0
      vertex 114 0 4
      vertex 112 0 4
    endloop
  endfacet
  facet normal 0 -1 -0
    outer loop
      vertex 114 0 4
      vertex 112 0 0
      vertex 114 0 0
    endloop
  endfacet
  facet normal 0 -1 0
    outer loop
      vertex -2 0 0
      vertex 0 0 4
      vertex -2 0 4
    endloop
  endfacet
  facet normal 0 -1 -0
    outer loop
      vertex 0 0 4
      vertex -2 0 0
      vertex 0 0 0
    endloop
  endfacet
  facet normal 0 1 -0
    outer loop
      vertex 111.995 86 0
      vertex 2.005 86 4
      vertex 111.995 86 4
    endloop
  endfacet
  facet normal 0 1 0
    outer loop
      vertex 2.005 86 4
      vertex 111.995 86 0
      vertex 2.005 86 0
    endloop
  endfacet
  facet normal 1 -0 0
    outer loop
      vertex 0 0 4
      vertex 0 84 0
      vertex 0 84 4
    endloop
  endfacet
  facet normal 1 0 0
    outer loop
      vertex 0 84 0
      vertex 0 0 4
      vertex 0 0 0
    endloop
  endfacet
  facet normal -1 0 0
    outer loop
      vertex 112 0 0
      vertex 112 84 4
      vertex 112 84 0
    endloop
  endfacet
  facet normal -1 -0 0
    outer loop
      vertex 112 84 4
      vertex 112 0 0
      vertex 112 0 4
    endloop
  endfacet
  facet normal 0 -1 0
    outer loop
      vertex 0 84 0
      vertex 112 84 4
      vertex 0 84 4
    endloop
  endfacet
  facet normal 0 -1 -0
    outer loop
      vertex 112 84 4
      vertex 0 84 0
      vertex 112 84 0
    endloop
  endfacet
  facet normal -1 0 0
    outer loop
      vertex -2 -71 0
      vertex -2 -5 4
      vertex -2 -5 0
    endloop
  endfacet
  facet normal -1 -0 0
    outer loop
      vertex -2 -5 4
      vertex -2 -71 0
      vertex -2 -71 4
    endloop
  endfacet
  facet normal -0 0 1
    outer loop
      vertex -2 -5 4
      vertex 0 -33 4
      vertex 0 -5 4
    endloop
  endfacet
  facet normal 0 0 1
    outer loop
      vertex 0 -33 4
      vertex -2 -5 4
      vertex 0 -43 4
    endloop
  endfacet
  facet normal 0 0 1
    outer loop
      vertex -2 -71 4
      vertex 0 -43 4
      vertex -2 -5 4
    endloop
  endfacet
  facet normal 0 0 1
    outer loop
      vertex 0 -43 4
      vertex -2 -71 4
      vertex 0 -71 4
    endloop
  endfacet
  facet normal -0 0 1
    outer loop
      vertex 0 -33 4
      vertex 112 -43 4
      vertex 112 -33 4
    endloop
  endfacet
  facet normal 0 0 1
    outer loop
      vertex 112 -43 4
      vertex 0 -33 4
      vertex 0 -43 4
    endloop
  endfacet
  facet normal 0 0 1
    outer loop
      vertex 112 -33 4
      vertex 114 -5 4
      vertex 112 -5 4
    endloop
  endfacet
  facet normal 0 0 1
    outer loop
      vertex 114 -5 4
      vertex 112 -33 4
      vertex 114 -71 4
    endloop
  endfacet
  facet normal -0 0 1
    outer loop
      vertex 112 -43 4
      vertex 114 -71 4
      vertex 112 -33 4
    endloop
  endfacet
  facet normal 0 0 1
    outer loop
      vertex 114 -71 4
      vertex 112 -43 4
      vertex 112 -71 4
    endloop
  endfacet
  facet normal 1 -0 0
    outer loop
      vertex 114 -71 4
      vertex 114 -5 0
      vertex 114 -5 4
    endloop
  endfacet
  facet normal 1 0 0
    outer loop
      vertex 114 -5 0
      vertex 114 -71 4
      vertex 114 -71 0
    endloop
  endfacet
  facet normal 0 1 -0
    outer loop
      vertex 114 -5 0
      vertex 112 -5 4
      vertex 114 -5 4
    endloop
  endfacet
  facet normal 0 1 0
    outer loop
      vertex 112 -5 4
      vertex 114 -5 0
      vertex 112 -5 0
    endloop
  endfacet
  facet normal 0 1 -0
    outer loop
      vertex 0 -5 0
      vertex -2 -5 4
      vertex 0 -5 4
    endloop
  endfacet
  facet normal 0 1 0
    outer loop
      vertex -2 -5 4
      vertex 0 -5 0
      vertex -2 -5 0
    endloop
  endfacet
  facet normal 0 0 -1
    outer loop
      vertex -2 -71 0
      vertex 0 -43 0
      vertex 0 -71 0
    endloop
  endfacet
  facet normal -0 0 -1
    outer loop
      vertex 0 -43 0
      vertex -2 -71 0
      vertex 0 -33 0
    endloop
  endfacet
  facet normal 0 0 -1
    outer loop
      vertex -2 -5 0
      vertex 0 -33 0
      vertex -2 -71 0
    endloop
  endfacet
  facet normal 0 0 -1
    outer loop
      vertex 0 -33 0
      vertex -2 -5 0
      vertex 0 -5 0
    endloop
  endfacet
  facet normal 0 0 -1
    outer loop
      vertex 0 -43 0
      vertex 112 -33 0
      vertex 112 -43 0
    endloop
  endfacet
  facet normal -0 0 -1
    outer loop
      vertex 112 -33 0
      vertex 0 -43 0
      vertex 0 -33 0
    endloop
  endfacet
  facet normal 0 0 -1
    outer loop
      vertex 112 -43 0
      vertex 114 -71 0
      vertex 112 -71 0
    endloop
  endfacet
  facet normal 0 0 -1
    outer loop
      vertex 114 -71 0
      vertex 112 -43 0
      vertex 114 -5 0
    endloop
  endfacet
  facet normal 0 0 -1
    outer loop
      vertex 112 -33 0
      vertex 114 -5 0
      vertex 112 -43 0
    endloop
  endfacet
  facet normal -0 0 -1
    outer loop
      vertex 114 -5 0
      vertex 112 -33 0
      vertex 112 -5 0
    endloop
  endfacet
  facet normal 0 -1 0
    outer loop
      vertex 112 -71 0
      vertex 114 -71 4
      vertex 112 -71 4
    endloop
  endfacet
  facet normal 0 -1 -0
    outer loop
      vertex 114 -71 4
      vertex 112 -71 0
      vertex 114 -71 0
    endloop
  endfacet
  facet normal 0 -1 0
    outer loop
      vertex -2 -71 0
      vertex 0 -71 4
      vertex -2 -71 4
    endloop
  endfacet
  facet normal 0 -1 -0
    outer loop
      vertex 0 -71 4
      vertex -2 -71 0
      vertex 0 -71 0
    endloop
  endfacet
  facet normal 1 -0 0
    outer loop
      vertex 0 -71 4
      vertex 0 -43 0
      vertex 0 -43 4
    endloop
  endfacet
  facet normal 1 0 0
    outer loop
      vertex 0 -43 0
      vertex 0 -71 4
      vertex 0 -71 0
    endloop
  endfacet
  facet normal 1 -0 0
    outer loop
      vertex 0 -33 4
      vertex 0 -5 0
      vertex 0 -5 4
    endloop
  endfacet
  facet normal 1 0 0
    outer loop
      vertex 0 -5 0
      vertex 0 -33 4
      vertex 0 -33 0
    endloop
  endfacet
  facet normal -1 0 0
    outer loop
      vertex 112 -71 0
      vertex 112 -43 4
      vertex 112 -43 0
    endloop
  endfacet
  facet normal -1 -0 0
    outer loop
      vertex 112 -43 4
      vertex 112 -71 0
      vertex 112 -71 4
    endloop
  endfacet
  facet normal -1 0 0
    outer loop
      vertex 112 -33 0
      vertex 112 -5 4
      vertex 112 -5 0
    endloop
  endfacet
  facet normal -1 -0 0
    outer loop
      vertex 112 -5 4
      vertex 112 -33 0
      vertex 112 -33 4
    endloop
  endfacet
  facet normal 0 -1 0
    outer loop
      vertex 0 -43 0
      vertex 112 -43 4
      vertex 0 -43 4
    endloop
  endfacet
  facet normal 0 -1 -0
    outer loop
      vertex 112 -43 4
      vertex 0 -43 0
      vertex 112 -43 0
    endloop
  endfacet
  facet normal 0 1 -0
    outer loop
      vertex 112 -33 0
      vertex 0 -33 4
      vertex 112 -33 4
    endloop
  endfacet
  facet normal 0 1 0
    outer loop
      vertex 0 -33 4
      vertex 112 -33 0
      vertex 0 -33 0
    endloop
  endfacet
  facet normal 0 -1 0
    outer loop
      vertex 113.999 -157.995 0
      vertex 114 -157.995 4
      vertex 113.999 -157.995 4
    endloop
  endfacet
  facet normal 0 -1 -0
    outer loop
      vertex 114 -157.995 4
      vertex 113.999 -157.995 0
      vertex 114 -157.995 0
    endloop
  endfacet
  facet normal 1 -0 0
    outer loop
      vertex 109.995 -162 4
      vertex 109.995 -161.999 0
      vertex 109.995 -161.999 4
    endloop
  endfacet
  facet normal 1 0 0
    outer loop
      vertex 109.995 -161.999 0
      vertex 109.995 -162 4
      vertex 109.995 -162 0
    endloop
  endfacet
  facet normal 0.980581 0.196116 0
    outer loop
      vertex 114 -158 4
      vertex 113.999 -157.995 0
      vertex 113.999 -157.995 4
    endloop
  endfacet
  facet normal 0.980581 0.196116 0
    outer loop
      vertex 113.999 -157.995 0
      vertex 114 -158 4
      vertex 114 -158 0
    endloop
  endfacet
  facet normal -0.196116 -0.980581 0
    outer loop
      vertex 109.995 -161.999 0
      vertex 110 -162 4
      vertex 109.995 -161.999 4
    endloop
  endfacet
  facet normal -0.196116 -0.980581 -0
    outer loop
      vertex 110 -162 4
      vertex 109.995 -161.999 0
      vertex 110 -162 0
    endloop
  endfacet
  facet normal 0.987659 -0.156619 0
    outer loop
      vertex 113.804 -159.236 4
      vertex 114 -158 0
      vertex 114 -158 4
    endloop
  endfacet
  facet normal 0.987659 -0.156619 0
    outer loop
      vertex 114 -158 0
      vertex 113.804 -159.236 4
      vertex 113.804 -159.236 0
    endloop
  endfacet
  facet normal 0.453914 -0.891046 0
    outer loop
      vertex 111.236 -161.804 0
      vertex 112.351 -161.236 4
      vertex 111.236 -161.804 4
    endloop
  endfacet
  facet normal 0.453914 -0.891046 0
    outer loop
      vertex 112.351 -161.236 4
      vertex 111.236 -161.804 0
      vertex 112.351 -161.236 0
    endloop
  endfacet
  facet normal 0.156619 -0.987659 0
    outer loop
      vertex 110 -162 0
      vertex 111.236 -161.804 4
      vertex 110 -162 4
    endloop
  endfacet
  facet normal 0.156619 -0.987659 0
    outer loop
      vertex 111.236 -161.804 4
      vertex 110 -162 0
      vertex 111.236 -161.804 0
    endloop
  endfacet
  facet normal 0.707107 -0.707107 0
    outer loop
      vertex 112.351 -161.236 4
      vertex 113.236 -160.351 0
      vertex 113.236 -160.351 4
    endloop
  endfacet
  facet normal 0.707107 -0.707107 0
    outer loop
      vertex 113.236 -160.351 0
      vertex 112.351 -161.236 4
      vertex 112.351 -161.236 0
    endloop
  endfacet
  facet normal 0.891046 -0.453914 0
    outer loop
      vertex 113.236 -160.351 4
      vertex 113.804 -159.236 0
      vertex 113.804 -159.236 4
    endloop
  endfacet
  facet normal 0.891046 -0.453914 0
    outer loop
      vertex 113.804 -159.236 0
      vertex 113.236 -160.351 4
      vertex 113.236 -160.351 0
    endloop
  endfacet
  facet normal -1 0 0
    outer loop
      vertex 0.00499916 -162 0
      vertex 0.00499916 -161.999 4
      vertex 0.00499916 -161.999 0
    endloop
  endfacet
  facet normal -1 -0 0
    outer loop
      vertex 0.00499916 -161.999 4
      vertex 0.00499916 -162 0
      vertex 0.00499916 -162 4
    endloop
  endfacet
  facet normal 0 -1 0
    outer loop
      vertex -2 -159.995 0
      vertex -1.99921 -159.995 4
      vertex -2 -159.995 4
    endloop
  endfacet
  facet normal 0 -1 -0
    outer loop
      vertex -1.99921 -159.995 4
      vertex -2 -159.995 0
      vertex -1.99921 -159.995 0
    endloop
  endfacet
  facet normal 0.196112 -0.980582 0
    outer loop
      vertex -9.53674e-07 -162 0
      vertex 0.00499916 -161.999 4
      vertex -9.53674e-07 -162 4
    endloop
  endfacet
  facet normal 0.196112 -0.980582 0
    outer loop
      vertex 0.00499916 -161.999 4
      vertex -9.53674e-07 -162 0
      vertex 0.00499916 -161.999 0
    endloop
  endfacet
  facet normal -0.453891 -0.891057 0
    outer loop
      vertex -1.17557 -161.618 0
      vertex -0.618034 -161.902 4
      vertex -1.17557 -161.618 4
    endloop
  endfacet
  facet normal -0.453891 -0.891057 -0
    outer loop
      vertex -0.618034 -161.902 4
      vertex -1.17557 -161.618 0
      vertex -0.618034 -161.902 0
    endloop
  endfacet
  facet normal -0.987747 0.156064 0
    outer loop
      vertex -2 -160 0
      vertex -1.99921 -159.995 4
      vertex -1.99921 -159.995 0
    endloop
  endfacet
  facet normal -0.987747 0.156064 0
    outer loop
      vertex -1.99921 -159.995 4
      vertex -2 -160 0
      vertex -2 -160 4
    endloop
  endfacet
  facet normal -0.156611 -0.98766 0
    outer loop
      vertex -0.618034 -161.902 0
      vertex -9.53674e-07 -162 4
      vertex -0.618034 -161.902 4
    endloop
  endfacet
  facet normal -0.156611 -0.98766 -0
    outer loop
      vertex -9.53674e-07 -162 4
      vertex -0.618034 -161.902 0
      vertex -9.53674e-07 -162 0
    endloop
  endfacet
  facet normal -0.891158 -0.453692 0
    outer loop
      vertex -1.61803 -161.176 0
      vertex -1.90211 -160.618 4
      vertex -1.90211 -160.618 0
    endloop
  endfacet
  facet normal -0.891158 -0.453692 0
    outer loop
      vertex -1.90211 -160.618 4
      vertex -1.61803 -161.176 0
      vertex -1.61803 -161.176 4
    endloop
  endfacet
  facet normal -0.987686 -0.156448 0
    outer loop
      vertex -1.90211 -160.618 0
      vertex -2 -160 4
      vertex -2 -160 0
    endloop
  endfacet
  facet normal -0.987686 -0.156448 0
    outer loop
      vertex -2 -160 4
      vertex -1.90211 -160.618 0
      vertex -1.90211 -160.618 4
    endloop
  endfacet
  facet normal -0.706739 -0.707474 0
    outer loop
      vertex -1.61803 -161.176 0
      vertex -1.17557 -161.618 4
      vertex -1.61803 -161.176 4
    endloop
  endfacet
  facet normal -0.706739 -0.707474 -0
    outer loop
      vertex -1.17557 -161.618 4
      vertex -1.61803 -161.176 0
      vertex -1.17557 -161.618 0
    endloop
  endfacet
  facet normal 1 -0 0
    outer loop
      vertex 114 -157.995 4
      vertex 114 -76 0
      vertex 114 -76 4
    endloop
  endfacet
  facet normal 1 0 0
    outer loop
      vertex 114 -76 0
      vertex 114 -157.995 4
      vertex 114 -157.995 0
    endloop
  endfacet
  facet normal -0 0 1
    outer loop
      vertex -1.99921 -159.995 4
      vertex -1.0287e-14 -160 4
      vertex 0 -76 4
    endloop
  endfacet
  facet normal 0 -0 1
    outer loop
      vertex -1.90211 -160.618 4
      vertex -1.0287e-14 -160 4
      vertex -1.99921 -159.995 4
    endloop
  endfacet
  facet normal 0 0 1
    outer loop
      vertex -1.0287e-14 -160 4
      vertex -0.618034 -161.902 4
      vertex -9.53674e-07 -162 4
    endloop
  endfacet
  facet normal 0 0 1
    outer loop
      vertex -1.0287e-14 -160 4
      vertex -1.17557 -161.618 4
      vertex -0.618034 -161.902 4
    endloop
  endfacet
  facet normal 0 0 1
    outer loop
      vertex -1.0287e-14 -160 4
      vertex -1.61803 -161.176 4
      vertex -1.17557 -161.618 4
    endloop
  endfacet
  facet normal 0 0 1
    outer loop
      vertex -1.0287e-14 -160 4
      vertex -1.90211 -160.618 4
      vertex -1.61803 -161.176 4
    endloop
  endfacet
  facet normal -0 0 1
    outer loop
      vertex -2 -76 4
      vertex -1.99921 -159.995 4
      vertex 0 -76 4
    endloop
  endfacet
  facet normal 0 0 1
    outer loop
      vertex -1.99921 -159.995 4
      vertex -2 -76 4
      vertex -2 -159.995 4
    endloop
  endfacet
  facet normal 0 0 1
    outer loop
      vertex 114 -76 4
      vertex 113.999 -157.995 4
      vertex 114 -157.995 4
    endloop
  endfacet
  facet normal -0 0 1
    outer loop
      vertex 112 -76 4
      vertex 113.999 -157.995 4
      vertex 114 -76 4
    endloop
  endfacet
  facet normal 0 0 1
    outer loop
      vertex 112 -160 4
      vertex 113.999 -157.995 4
      vertex 112 -76 4
    endloop
  endfacet
  facet normal 0 0 1
    outer loop
      vertex 113.804 -159.236 4
      vertex 112 -160 4
      vertex 113.236 -160.351 4
    endloop
  endfacet
  facet normal 0 0 1
    outer loop
      vertex 113.999 -157.995 4
      vertex 112 -160 4
      vertex 113.804 -159.236 4
    endloop
  endfacet
  facet normal 0 0 1
    outer loop
      vertex 113.236 -160.351 4
      vertex 112 -160 4
      vertex 112.351 -161.236 4
    endloop
  endfacet
  facet normal 0 0 1
    outer loop
      vertex 112 -160 4
      vertex 111.236 -161.804 4
      vertex 112.351 -161.236 4
    endloop
  endfacet
  facet normal 0 0 1
    outer loop
      vertex 112 -160 4
      vertex 110 -162 4
      vertex 111.236 -161.804 4
    endloop
  endfacet
  facet normal 0 0 1
    outer loop
      vertex 112 -160 4
      vertex 109.995 -161.999 4
      vertex 110 -162 4
    endloop
  endfacet
  facet normal 0 0 1
    outer loop
      vertex 109.995 -161.999 4
      vertex 0.00499916 -161.999 4
      vertex 109.995 -162 4
    endloop
  endfacet
  facet normal -0 0 1
    outer loop
      vertex -1.0287e-14 -160 4
      vertex 109.995 -161.999 4
      vertex 112 -160 4
    endloop
  endfacet
  facet normal 0 0 1
    outer loop
      vertex 109.995 -161.999 4
      vertex -1.0287e-14 -160 4
      vertex 0.00499916 -161.999 4
    endloop
  endfacet
  facet normal 0 0 1
    outer loop
      vertex 0.00499916 -161.999 4
      vertex -1.0287e-14 -160 4
      vertex -9.53674e-07 -162 4
    endloop
  endfacet
  facet normal 0 0 1
    outer loop
      vertex 114 -158 4
      vertex 113.999 -157.995 4
      vertex 113.804 -159.236 4
    endloop
  endfacet
  facet normal 0 0 1
    outer loop
      vertex 109.995 -162 4
      vertex 0.00499916 -161.999 4
      vertex 0.00499916 -162 4
    endloop
  endfacet
  facet normal 0 0 1
    outer loop
      vertex -1.90211 -160.618 4
      vertex -1.99921 -159.995 4
      vertex -2 -160 4
    endloop
  endfacet
  facet normal -1 0 0
    outer loop
      vertex -2 -159.995 0
      vertex -2 -76 4
      vertex -2 -76 0
    endloop
  endfacet
  facet normal -1 -0 0
    outer loop
      vertex -2 -76 4
      vertex -2 -159.995 0
      vertex -2 -159.995 4
    endloop
  endfacet
  facet normal 0 0 -1
    outer loop
      vertex 109.995 -162 0
      vertex 0.00499916 -162 0
      vertex 109.995 -161.999 0
    endloop
  endfacet
  facet normal 0 0 -1
    outer loop
      vertex 112 -160 0
      vertex 114 -158 0
      vertex 113.804 -159.236 0
    endloop
  endfacet
  facet normal 0 0 -1
    outer loop
      vertex 113.999 -157.995 0
      vertex 114 -76 0
      vertex 114 -157.995 0
    endloop
  endfacet
  facet normal -0 0 -1
    outer loop
      vertex 114 -158 0
      vertex 112 -160 0
      vertex 113.999 -157.995 0
    endloop
  endfacet
  facet normal 0 0 -1
    outer loop
      vertex 112 -160 0
      vertex 113.804 -159.236 0
      vertex 113.236 -160.351 0
    endloop
  endfacet
  facet normal 0 0 -1
    outer loop
      vertex 112 -160 0
      vertex 113.236 -160.351 0
      vertex 112.351 -161.236 0
    endloop
  endfacet
  facet normal -0 0 -1
    outer loop
      vertex 113.999 -157.995 0
      vertex 112 -160 0
      vertex 112 -76 0
    endloop
  endfacet
  facet normal 0 0 -1
    outer loop
      vertex 113.999 -157.995 0
      vertex 112 -76 0
      vertex 114 -76 0
    endloop
  endfacet
  facet normal 0 0 -1
    outer loop
      vertex 111.236 -161.804 0
      vertex 112 -160 0
      vertex 112.351 -161.236 0
    endloop
  endfacet
  facet normal 0 0 -1
    outer loop
      vertex 110 -162 0
      vertex 112 -160 0
      vertex 111.236 -161.804 0
    endloop
  endfacet
  facet normal 0 0 -1
    outer loop
      vertex 109.995 -161.999 0
      vertex 112 -160 0
      vertex 110 -162 0
    endloop
  endfacet
  facet normal 0 0 -1
    outer loop
      vertex 0.00499916 -161.999 0
      vertex 109.995 -161.999 0
      vertex 0.00499916 -162 0
    endloop
  endfacet
  facet normal 0 0 -1
    outer loop
      vertex -1.0287e-14 -160 0
      vertex 109.995 -161.999 0
      vertex 0.00499916 -161.999 0
    endloop
  endfacet
  facet normal 0 0 -1
    outer loop
      vertex 109.995 -161.999 0
      vertex -1.0287e-14 -160 0
      vertex 112 -160 0
    endloop
  endfacet
  facet normal 0 -0 -1
    outer loop
      vertex -1.0287e-14 -160 0
      vertex 0.00499916 -161.999 0
      vertex -9.53674e-07 -162 0
    endloop
  endfacet
  facet normal 0 0 -1
    outer loop
      vertex -0.618034 -161.902 0
      vertex -1.0287e-14 -160 0
      vertex -9.53674e-07 -162 0
    endloop
  endfacet
  facet normal 0 0 -1
    outer loop
      vertex -1.17557 -161.618 0
      vertex -1.0287e-14 -160 0
      vertex -0.618034 -161.902 0
    endloop
  endfacet
  facet normal 0 0 -1
    outer loop
      vertex -1.61803 -161.176 0
      vertex -1.0287e-14 -160 0
      vertex -1.17557 -161.618 0
    endloop
  endfacet
  facet normal 0 0 -1
    outer loop
      vertex -1.90211 -160.618 0
      vertex -1.0287e-14 -160 0
      vertex -1.61803 -161.176 0
    endloop
  endfacet
  facet normal -0 0 -1
    outer loop
      vertex -1.0287e-14 -160 0
      vertex -1.90211 -160.618 0
      vertex -1.99921 -159.995 0
    endloop
  endfacet
  facet normal 0 0 -1
    outer loop
      vertex -1.0287e-14 -160 0
      vertex -1.99921 -159.995 0
      vertex 0 -76 0
    endloop
  endfacet
  facet normal 0 0 -1
    outer loop
      vertex -2 -76 0
      vertex -1.99921 -159.995 0
      vertex -2 -159.995 0
    endloop
  endfacet
  facet normal 0 0 -1
    outer loop
      vertex -1.99921 -159.995 0
      vertex -2 -76 0
      vertex 0 -76 0
    endloop
  endfacet
  facet normal 0 0 -1
    outer loop
      vertex -1.90211 -160.618 0
      vertex -2 -160 0
      vertex -1.99921 -159.995 0
    endloop
  endfacet
  facet normal 0 1 -0
    outer loop
      vertex 0 -76 0
      vertex -2 -76 4
      vertex 0 -76 4
    endloop
  endfacet
  facet normal 0 1 0
    outer loop
      vertex -2 -76 4
      vertex 0 -76 0
      vertex -2 -76 0
    endloop
  endfacet
  facet normal 0 1 -0
    outer loop
      vertex 114 -76 0
      vertex 112 -76 4
      vertex 114 -76 4
    endloop
  endfacet
  facet normal 0 1 0
    outer loop
      vertex 112 -76 4
      vertex 114 -76 0
      vertex 112 -76 0
    endloop
  endfacet
  facet normal 0 -1 0
    outer loop
      vertex 0.00499916 -162 0
      vertex 109.995 -162 4
      vertex 0.00499916 -162 4
    endloop
  endfacet
  facet normal 0 -1 -0
    outer loop
      vertex 109.995 -162 4
      vertex 0.00499916 -162 0
      vertex 109.995 -162 0
    endloop
  endfacet
  facet normal -1 0 0
    outer loop
      vertex 112 -160 0
      vertex 112 -76 4
      vertex 112 -76 0
    endloop
  endfacet
  facet normal -1 -0 0
    outer loop
      vertex 112 -76 4
      vertex 112 -160 0
      vertex 112 -160 4
    endloop
  endfacet
  facet normal 1 -1.22464e-16 0
    outer loop
      vertex -1.0287e-14 -160 4
      vertex 0 -76 0
      vertex 0 -76 4
    endloop
  endfacet
  facet normal 1 -1.22464e-16 0
    outer loop
      vertex 0 -76 0
      vertex -1.0287e-14 -160 4
      vertex -1.0287e-14 -160 0
    endloop
  endfacet
  facet normal 0 1 -0
    outer loop
      vertex 112 -160 0
      vertex -1.0287e-14 -160 4
      vertex 112 -160 4
    endloop
  endfacet
  facet normal 0 1 0
    outer loop
      vertex -1.0287e-14 -160 4
      vertex 112 -160 0
      vertex -1.0287e-14 -160 0
    endloop
  endfacet
endsolid OpenSCAD_Model
